<svg xmlns="http://www.w3.org/2000/svg" xmlns:xlink="http://www.w3.org/1999/xlink" width="61" height="61" viewBox="0 0 61 61">
  <defs>
    <filter id="Ellipse_173" x="0" y="0" width="61" height="61" filterUnits="userSpaceOnUse">
      <feOffset dy="3" input="SourceAlpha"/>
      <feGaussianBlur stdDeviation="3" result="blur"/>
      <feFlood flood-opacity="0.361"/>
      <feComposite operator="in" in2="blur"/>
      <feComposite in="SourceGraphic"/>
    </filter>
  </defs>
  <g id="_1" data-name="1" transform="translate(-1026 -713)">
    <g id="Group_2748" data-name="Group 2748">
      <g id="Group_2747" data-name="Group 2747">
        <circle id="_1-2" data-name="1" cx="25.5" cy="25.5" r="25.5" transform="translate(1031 715)" fill="#cc5151"/>
        <g transform="matrix(1, 0, 0, 1, 1026, 713)" filter="url(#Ellipse_173)">
          <circle id="Ellipse_173-2" data-name="Ellipse 173" cx="21.5" cy="21.5" r="21.5" transform="translate(9 6)" fill="#fff"/>
        </g>
      </g>
    </g>
    <g id="Group_1871" data-name="Group 1871" transform="translate(227.048 20.105)">
      <g id="Group_1867" data-name="Group 1867">
        <g id="phone-call" transform="translate(816.952 710)">
          <path id="Path_1283" data-name="Path 1283" d="M21.406,21.406V19.044a2.282,2.282,0,0,0-2.085-2.285,15.09,15.09,0,0,1-4.126-.993L13.86,16.845A16.163,16.163,0,0,1,5.667,8.083l1.122-1.4a14.609,14.609,0,0,1-.673-4.392A2.3,2.3,0,0,0,3.823,0H.134C.061.956,0,1.619,0,2.294A20.651,20.651,0,0,0,19.877,22.9C20.031,22.9,21.363,22.425,21.406,21.406Z" transform="translate(0 0)" fill="#cc5151"/>
        </g>
      </g>
      <g id="Group_1869" data-name="Group 1869" transform="translate(830.263 709.263)">
        <path id="Path_1288" data-name="Path 1288" d="M13.078,8.342H9.131V4.395A.394.394,0,0,0,8.737,4a4.737,4.737,0,1,0,4.737,4.737A.4.4,0,0,0,13.078,8.342Z" transform="translate(-4 -4)" fill="#cc5151"/>
      </g>
      <g id="Group_1870" data-name="Group 1870" transform="translate(827.895 706.895)">
        <path id="Path_1289" data-name="Path 1289" d="M7.1,14.21a7.1,7.1,0,1,1,7.1-7.1A7.113,7.113,0,0,1,7.1,14.21Zm0-13.025A5.921,5.921,0,1,0,13.025,7.1,5.927,5.927,0,0,0,7.1,1.184Z" fill="#cc5151"/>
      </g>
    </g>
  </g>
</svg>
