<svg xmlns="http://www.w3.org/2000/svg" xmlns:xlink="http://www.w3.org/1999/xlink" width="61" height="61" viewBox="0 0 61 61">
  <defs>
    <filter id="_1000" x="0" y="0" width="61" height="61" filterUnits="userSpaceOnUse">
      <feOffset dy="3" input="SourceAlpha"/>
      <feGaussianBlur stdDeviation="3" result="blur"/>
      <feFlood flood-opacity="0.361"/>
      <feComposite operator="in" in2="blur"/>
      <feComposite in="SourceGraphic"/>
    </filter>
  </defs>
  <g id="_10" data-name="10" transform="translate(-1527 -872)">
    <g id="_999" data-name="999">
      <circle id="_1000-2" data-name="1000" cx="25.5" cy="25.5" r="25.5" transform="translate(1532 874)" fill="#cc5151"/>
      <g transform="matrix(1, 0, 0, 1, 1527, 872)" filter="url(#_1000)">
        <circle id="_1000-3" data-name="1000" cx="21.5" cy="21.5" r="21.5" transform="translate(9 6)" fill="#fff"/>
      </g>
    </g>
    <g id="Group_2161" data-name="Group 2161" transform="translate(552 -34.12)">
      <g id="Group_1877" data-name="Group 1877" transform="translate(176.048 213.105)">
        <g id="Group_1867" data-name="Group 1867">
          <g id="phone-call" transform="translate(816.952 710)">
            <path id="Path_1283" data-name="Path 1283" d="M21.406,21.406V19.044a2.282,2.282,0,0,0-2.085-2.285,15.09,15.09,0,0,1-4.126-.993L13.86,16.845A16.163,16.163,0,0,1,5.667,8.083l1.122-1.4a14.609,14.609,0,0,1-.673-4.392A2.3,2.3,0,0,0,3.823,0H.134C.061.956,0,1.619,0,2.294A20.651,20.651,0,0,0,19.877,22.9C20.031,22.9,21.363,22.425,21.406,21.406Z" transform="translate(0 0)" fill="#cc5151"/>
          </g>
        </g>
      </g>
      <g id="back" transform="translate(1002.703 916.638)">
        <g id="Group_2160" data-name="Group 2160" transform="translate(0 5.482)">
          <path id="Path_1566" data-name="Path 1566" d="M15.007,13.323a6.749,6.749,0,0,0-6.54-4.491V5.749A.274.274,0,0,0,8.2,5.482a.287.287,0,0,0-.16.053L.109,11.273a.26.26,0,0,0-.053.374l.053.053,7.93,5.7a.277.277,0,0,0,.374-.053.287.287,0,0,0,.053-.16V14.125a4.3,4.3,0,0,1,4.116,2.281A3.078,3.078,0,0,1,11.532,19.9a.259.259,0,0,0-.018.374.286.286,0,0,0,.2.089h.214a.2.2,0,0,0,.143-.053C14.686,18.58,15.809,15.889,15.007,13.323Z" transform="translate(0 -5.482)" fill="#cc5151"/>
        </g>
      </g>
    </g>
  </g>
</svg>
