<svg xmlns="http://www.w3.org/2000/svg" xmlns:xlink="http://www.w3.org/1999/xlink" width="61" height="61" viewBox="0 0 61 61">
  <defs>
    <filter id="_22" x="0" y="0" width="61" height="61" filterUnits="userSpaceOnUse">
      <feOffset dy="3" input="SourceAlpha"/>
      <feGaussianBlur stdDeviation="3" result="blur"/>
      <feFlood flood-opacity="0.361"/>
      <feComposite operator="in" in2="blur"/>
      <feComposite in="SourceGraphic"/>
    </filter>
  </defs>
  <g id="_2" data-name="2" transform="translate(-1026 -794)">
    <g id="Group_2746" data-name="Group 2746">
      <circle id="Ellipse_175" data-name="Ellipse 175" cx="25.5" cy="25.5" r="25.5" transform="translate(1031 796)" fill="#5c86e2"/>
      <g transform="matrix(1, 0, 0, 1, 1026, 794)" filter="url(#_22)">
        <circle id="_22-2" data-name="22" cx="21.5" cy="21.5" r="21.5" transform="translate(9 6)" fill="#fff"/>
      </g>
    </g>
    <g id="Group_1874" data-name="Group 1874" transform="translate(229.923 -40.786)">
      <g id="phone-call" transform="translate(814.077 852.103)">
        <path id="Path_1283" data-name="Path 1283" d="M21.406,21.406V19.044a2.282,2.282,0,0,0-2.085-2.285,15.09,15.09,0,0,1-4.126-.993L13.86,16.845A16.163,16.163,0,0,1,5.667,8.083l1.122-1.4a14.609,14.609,0,0,1-.673-4.392A2.3,2.3,0,0,0,3.823,0H.134C.061.956,0,1.619,0,2.294A20.651,20.651,0,0,0,19.877,22.9C20.031,22.9,21.363,22.425,21.406,21.406Z" transform="translate(0 0)" fill="#5c86e2"/>
      </g>
      <g id="settings_2_" data-name="settings (2)" transform="translate(824.78 831.847)">
        <g id="Group_1872" data-name="Group 1872" transform="translate(0 16.939)">
          <path id="Path_1290" data-name="Path 1290" d="M13.385,22.372a1.1,1.1,0,0,0-1.47-.889.55.55,0,0,1-.672-.3,4.976,4.976,0,0,0-.5-.867.536.536,0,0,1,.075-.735,1.076,1.076,0,0,0,.395-.858,1.1,1.1,0,0,0-.438-.857,6.732,6.732,0,0,0-1.449-.837,1.114,1.114,0,0,0-.433-.088,1.085,1.085,0,0,0-1.076.907.537.537,0,0,1-.6.432,4.755,4.755,0,0,0-.994,0,.537.537,0,0,1-.6-.432,1.085,1.085,0,0,0-1.076-.907,1.109,1.109,0,0,0-.432.088,6.7,6.7,0,0,0-1.449.837,1.1,1.1,0,0,0-.437.856,1.079,1.079,0,0,0,.395.859.535.535,0,0,1,.075.734,4.979,4.979,0,0,0-.5.867.535.535,0,0,1-.678.3,1.089,1.089,0,0,0-1.464.892A6.711,6.711,0,0,0,0,23.214a6.613,6.613,0,0,0,.054.842,1.1,1.1,0,0,0,1.47.889.55.55,0,0,1,.672.3,4.976,4.976,0,0,0,.5.867.536.536,0,0,1-.075.735,1.076,1.076,0,0,0-.395.858,1.1,1.1,0,0,0,.438.857,6.732,6.732,0,0,0,1.449.837,1.114,1.114,0,0,0,.433.088,1.085,1.085,0,0,0,1.076-.907.539.539,0,0,1,.6-.432,4.755,4.755,0,0,0,.994,0,.539.539,0,0,1,.6.432,1.085,1.085,0,0,0,1.076.907,1.109,1.109,0,0,0,.432-.088,6.7,6.7,0,0,0,1.449-.837,1.1,1.1,0,0,0,.438-.856,1.079,1.079,0,0,0-.395-.859.535.535,0,0,1-.075-.734,4.979,4.979,0,0,0,.5-.867.535.535,0,0,1,.678-.3,1.076,1.076,0,0,0,.381.07,1.1,1.1,0,0,0,1.082-.961,6.782,6.782,0,0,0,.054-.843A6.667,6.667,0,0,0,13.385,22.372ZM6.72,25.454a2.24,2.24,0,1,1,2.24-2.24A2.242,2.242,0,0,1,6.72,25.454Z" transform="translate(0 -16.939)" fill="#5c86e2"/>
        </g>
      </g>
    </g>
  </g>
</svg>
