<svg xmlns="http://www.w3.org/2000/svg" xmlns:xlink="http://www.w3.org/1999/xlink" width="39.274" height="39.274" viewBox="0 0 39.274 39.274">
  <defs>
    <clipPath id="clip-path">
      <path id="Контур_1717" data-name="Контур 1717" d="M0,0H39.274V39.274H0Z" transform="translate(227 123)" fill="#0078d4"/>
    </clipPath>
  </defs>
  <g id="Сгруппировать_2199" data-name="Сгруппировать 2199" transform="translate(-227 -123)" clip-path="url(#clip-path)">
    <path id="Контур_1713" data-name="Контур 1713" d="M250.733,144.879l-1.2-3.87-.725-.107.416-.882-.246-.8h-.5l.259-.78-.621-2a1.966,1.966,0,0,0,.131-2.05l-1.278-2.273-.7.264.055-1.4-.744-.267-2.37,1.168,2.435-2.11-.27-.479a2.25,2.25,0,0,0-2.6-.875l-.008,0a4.06,4.06,0,0,0-.558.233,2.635,2.635,0,0,0-.613.5l-.05-.1a2.642,2.642,0,0,0-1.8-1.3l-.139.537-.893-.539a2.618,2.618,0,0,0-.5.152l.23,1.419-1.471-.364a2.65,2.65,0,0,0,4.336,3.037l.141.257a5.341,5.341,0,0,1-.581,1.144,7.977,7.977,0,0,1-1.453,1.183,7.007,7.007,0,0,1,1.485.662c-.257-.037-1.361-.155-2.131-.233l-.212.131.278.1.128.809-.987.634c-.037.291.534.5.888.5a1.032,1.032,0,0,0,.524-.144,14.3,14.3,0,0,0,3.1-2.375,2.47,2.47,0,0,0,.181-.257l.943,1.678a34.847,34.847,0,0,0-3.027,2.38l.639.278-1.409.6a10.446,10.446,0,0,0-.751,3.3l.545.139-.623.44-.068.531,1.443.4-1.571.673q-.015.151-.034.3a1.406,1.406,0,0,0,2.791.306,41.462,41.462,0,0,1,.723-4.705,37.052,37.052,0,0,1,3.406-2.665l2.377,7.645a1.4,1.4,0,1,0,2.681-.835Z" transform="translate(15.478 7.687)" fill="#0078d4"/>
    <path id="Контур_1714" data-name="Контур 1714" d="M244.357,134.041a1.03,1.03,0,1,0,.3,2.037,13.8,13.8,0,0,0,1.953-.427,3.647,3.647,0,0,1-1.013-1.883,9.566,9.566,0,0,1-1.241.272Zm-10.916-2.626a2.7,2.7,0,1,0-2.619-2.7A2.7,2.7,0,0,0,233.441,131.414Z" transform="translate(6.184 4.873)" fill="#0078d4"/>
    <path id="Контур_1715" data-name="Контур 1715" d="M249.659,128.67l1.1,1.961,1.72-1.9-1.595-1.448a.484.484,0,0,0-.113-.55.479.479,0,0,0-.558-.058l-.186-.168-1.063,1.17.165.152-4.189,4.433a1.016,1.016,0,0,0-.856.17c-.309.2-1.9.806-2.506,1.037l-.33.123a12.7,12.7,0,0,1-2.152-1.6,1.052,1.052,0,0,0-.152-.133,2.881,2.881,0,0,0-.539-.584,2.191,2.191,0,0,0-.5-.322,3.969,3.969,0,0,0-.587-.194l-.008,0a2.291,2.291,0,0,0-2.582,1.079l-2.54,5.4a1.817,1.817,0,0,0-.134,1.165l-.694,4.331-3.791,2.642a1.333,1.333,0,1,0,1.524,2.186l4.255-2.964a1.333,1.333,0,0,0,.555-.882l.448-2.809a1.581,1.581,0,0,0,.139.189l2.4,2.684-.872,3.739a1.335,1.335,0,0,0,2.6.6l1.026-4.414a1.335,1.335,0,0,0-.3-1.191l-2.731-3.048q.035-.058.065-.118l1.1-2.333a1.359,1.359,0,0,0,.833.495c.207.034.581.063,1.013.086-.175.147-.191.312.319.484,1.068.359.869-.047,1.045-.241l.186-.2h.1c.3,0,.555-.005.717-.021a1.047,1.047,0,0,0,.759-1.647l1.055-1.115a7.886,7.886,0,0,0,1.516-.728,1.055,1.055,0,0,0,.348-1.241l3.99-4.221Zm-10.418,6.8a6.928,6.928,0,0,1-.377-.772l.05-.107a7.363,7.363,0,0,0,1.571.94q-.622-.017-1.244-.06Zm17.3-6.352c.33.034.524-.065.657,0s0,.6,0,.6l.5-.613.131-.4-.5-.209h-.463S256.207,129.087,256.54,129.121Zm-3.1-.016s-.463.793-.333.827,1.225,0,1.225,0l-.623-.662Zm-.178-1.626a5.5,5.5,0,0,0,.961-.058c.165-.068-.168.463-.168.463l.995-.861-.927-.4-1.06.165-.7,1.259h.9Zm3.412-1.448-1.013,3.922.259.058Z" transform="translate(0 4.905)" fill="#0078d4"/>
    <path id="Контур_1716" data-name="Контур 1716" d="M238.267,128.324l-3.037.134,3.037.131Z" transform="translate(13.319 8.616)" fill="#0078d4"/>
  </g>
</svg>
