<svg xmlns="http://www.w3.org/2000/svg" xmlns:xlink="http://www.w3.org/1999/xlink" width="28.733" height="28.733" viewBox="0 0 28.733 28.733">
  <defs>
    <clipPath id="clip-path">
      <path id="Контур_1735" data-name="Контур 1735" d="M0,0H28.733V28.733H0Z" transform="translate(175 145)" fill="#0078d4"/>
    </clipPath>
  </defs>
  <g id="Сгруппировать_2202" data-name="Сгруппировать 2202" transform="translate(-175 -145)" clip-path="url(#clip-path)">
    <path id="Контур_1734" data-name="Контур 1734" d="M199.924,164.26a.488.488,0,0,0-.6,0c-.215.172-2.093,1.738-2.093,3.247a2.4,2.4,0,1,0,4.789,0c0-1.508-1.877-3.074-2.093-3.247Zm-23.285,3.527,4.506,4.506,4.87-4.868-4.509-4.509Zm-1.439,2.756a3.185,3.185,0,0,0,5.258,2.423l-4.492-4.492a3.167,3.167,0,0,0-.766,2.069Zm22.507-8.783a1.437,1.437,0,1,0,2.873,0v-5.55a8.692,8.692,0,0,0,2.351-5.866,6.225,6.225,0,0,0-2.552-5.253.479.479,0,0,0-.618.048l-15.224,15.224-.618-.618a1.532,1.532,0,0,0-2.117,0,1.506,1.506,0,0,0,0,2.117l7.183,7.183a1.5,1.5,0,0,0,2.117-2.117l-.618-.618,2.912-2.916v.043a1.676,1.676,0,0,0,3.352,0v-1.676a.455.455,0,0,1,.148-.34.469.469,0,0,1,.67.01.443.443,0,0,1,.139.33Zm-1.259-10.813a1.877,1.877,0,0,1-.508.886l-1.561,1.561a3.358,3.358,0,0,0-.982,2.375v6.273l-3.592,3.592-4.588-4.592,11.608-11.61-.378,1.516Z" transform="translate(0.279 0)" fill="#0078d4"/>
  </g>
</svg>
