<svg xmlns="http://www.w3.org/2000/svg" width="31.364" height="28.296" viewBox="0 0 31.364 28.296">
  <g id="Сгруппировать_2390" data-name="Сгруппировать 2390" transform="translate(666.291 -2421.638)">
    <path id="Контур_1723" data-name="Контур 1723" d="M306.341,125.582h6.029v-.944h-5.5c-2.759,0-5.161,1.045-5.626,4.7l-1.332,5.817c-.123.058-.241.118-.355.183l-.311-2.788s-1.972-2.578-3.027-.618,0,2.665,0,2.665l3.056.917a3.539,3.539,0,0,0-1.7,2.916v3.538l-2.467-5.187.063-.244a.753.753,0,0,0-.422-.881.789.789,0,0,0-.2-.053l-.946-1.991a4.022,4.022,0,0,1-.379-1.05c-.048-.333.077-.391.138-.42a.919.919,0,0,1,.729.08,1.656,1.656,0,0,1,.777.789l.345-.164a2.04,2.04,0,0,0-.956-.97,1.272,1.272,0,0,0-1.06-.08.694.694,0,0,0-.35.821,4.259,4.259,0,0,0,.41,1.159l.893,1.878a.746.746,0,0,0-.393.389l-.9,2.032-3.669.338a1.142,1.142,0,0,0-.987.792,2.506,2.506,0,0,0-.49.874l-1.578,4.989a2.478,2.478,0,0,0-.019,1.439l-.063,1.837-4.35.6a.816.816,0,0,0,.135,1.622l5.37-.167a1.031,1.031,0,0,0,.992-.905l.012-.1.13-1.093h.01l1.859,2.165-4.581.859a.816.816,0,0,0,.244,1.61l6.471-.739a1.028,1.028,0,0,0,.712-1.622l-.048-.063-2.428-3.336a2.465,2.465,0,0,0,.287-.6l1.27-4.009.625.644.068.068a.778.778,0,0,0,.282.186l4.692,1.75a.686.686,0,0,0,.154.039,4.084,4.084,0,0,0,1.726,1.673v3.58c0,1.214,1.494,2.194,3.343,2.194s3.343-.98,3.343-2.194v-2.979h6.005v-4.7h-3.963v-1.255h3.963V141.2h-3.857v-1.255h3.857v-5.595H301.325c-.092,0-.181.007-.27.01l1.434-5.742a4.034,4.034,0,0,1,3.852-3.036Zm-13.546,14.543.847-.145.113-.019a.859.859,0,0,0,.688-.63l.517-1.972,2.616,5.5v.577l-3.461-1.665-1.32-1.649Zm14.149-.266v2.867H300.91v-2.867Z" transform="translate(-947.297 2297)" fill="#0078d4"/>
    <path id="Контур_1724" data-name="Контур 1724" d="M286.352,133.42a2.711,2.711,0,1,0-2.713-2.708A2.711,2.711,0,0,0,286.352,133.42Z" transform="translate(-943.574 2301.751)" fill="#0078d4"/>
  </g>
</svg>
