<svg xmlns="http://www.w3.org/2000/svg" xmlns:xlink="http://www.w3.org/1999/xlink" width="33.205" height="33.205" viewBox="0 0 33.205 33.205">
  <defs>
    <clipPath id="clip-path">
      <path id="Контур_1754" data-name="Контур 1754" d="M0,0H33.2V33.2H0Z" fill="#0078d4"/>
    </clipPath>
  </defs>
  <g id="Сгруппировать_2391" data-name="Сгруппировать 2391" transform="translate(827.696 -2291)">
    <g id="Сгруппировать_2205" data-name="Сгруппировать 2205" transform="translate(-827.696 2291)" clip-path="url(#clip-path)">
      <path id="Контур_1750" data-name="Контур 1750" d="M233.769,149.017a2.009,2.009,0,1,0-1.944-2.009,2.009,2.009,0,0,0,1.944,2.009Zm5.655,6.956h.183v1.052h.378v-.762l3.206-.125a.374.374,0,0,0,.035.127c.118.239.172.5.305.733a.306.306,0,0,0,.365.145l.012.006a3.4,3.4,0,0,0,.16.544c.145.386.743.241.629-.172-.071-.259-.127-.523-.193-.782a3.3,3.3,0,0,1-.019-.658v-.006l.674-.463-.7-.55-4.481-.284v-.766h-.378v1.05h-.064a.842.842,0,0,0-.714-.562c-2.084-.338-3.034-1.679-3.484-3.659a.922.922,0,0,0-.44-.629,1.844,1.844,0,0,0-2.034-.795.971.971,0,0,0-.135-.027,5.3,5.3,0,0,0-5.641,3.283c-.527,1.237,1.289,2.314,1.822,1.065a3.409,3.409,0,0,1,2.2-2.135l0,.071s-.928,3.669-1.349,5.908a1.317,1.317,0,0,0-.247.874l-2.345,8.814a1.2,1.2,0,0,0,2.237.857l2.019-7.633a4.659,4.659,0,0,1,2.824,2.424c.5,1.253-.295,2.851-.909,3.9-.776,1.322,1.164,2.735,1.947,1.4,1.071-1.824,1.905-3.929,1.222-6.043a6.082,6.082,0,0,0-3.154-3.414l1.073-4.653a5.553,5.553,0,0,0,3.827,2.43,1.1,1.1,0,0,0,1.156-.56Z" transform="translate(-224.924 -140.849)" fill="#0078d4"/>
      <path id="Контур_1751" data-name="Контур 1751" d="M234.961,153.967a.193.193,0,0,0,.193-.193c0-.106-.193-.328-.193-.328s-.193.222-.193.328A.194.194,0,0,0,234.961,153.967Zm.618.521a.083.083,0,0,0,.083-.081c0-.048-.083-.143-.083-.143s-.081.1-.081.143A.083.083,0,0,0,235.579,154.488Zm9.067-2.15a1.905,1.905,0,1,0-1.905-1.905,1.905,1.905,0,0,0,1.905,1.905Z" transform="translate(-216.572 -137.056)" fill="#0078d4"/>
      <path id="Контур_1752" data-name="Контур 1752" d="M252.145,160.219a12.678,12.678,0,0,1-2.289-6.336,1.092,1.092,0,0,0-.268-.652c-.237-1.53-2.337-2.171-3.206-1.065a41.243,41.243,0,0,0-4.153-2.293c-1.256-.546-2.353,1.305-1.085,1.855,1.617.7,3.078,1.7,4.615,2.559a31.5,31.5,0,0,1-1.177,3.789q-1.485-1.257-2.874-2.621a1.385,1.385,0,0,0-2.142.276,30.253,30.253,0,0,0-2.712,3.974h-2.9a1.362,1.362,0,0,0,0,2.723h11.8a1.245,1.245,0,0,0,1.077-.544,1.34,1.34,0,0,0,.262-.39c.521-1.2,1.006-2.414,1.424-3.648a14.567,14.567,0,0,0,1.764,3.455c.784,1.133,2.65.058,1.857-1.083Zm-12.132-.513c.288-.421.594-.832.9-1.241.457.423.921.834,1.39,1.241Z" transform="translate(-218.86 -135.716)" fill="#0078d4"/>
      <path id="Контур_1753" data-name="Контур 1753" d="M243.721,156.8c.554,0,1-.245,1-.55s-.45-.55-1-.55-1,.247-1,.55S243.165,156.8,243.721,156.8Zm-3.167-.243c-.674,0-3.495.8-2.021.826s1.347.828,2.021.828,1.218-.369,1.218-.828S241.227,156.554,240.554,156.554Zm2.457,1.654c0,.106.129.193.286.193a1.422,1.422,0,0,0,.475-.193,1.414,1.414,0,0,0-.475-.2C243.14,158.013,243.011,158.1,243.011,158.208Zm1.334-.828c0,.108.127.2.284.2a1.411,1.411,0,0,0,.477-.2,1.419,1.419,0,0,0-.477-.193C244.472,157.187,244.346,157.274,244.346,157.38Z" transform="translate(-212.976 -129.347)" fill="#0078d4"/>
    </g>
  </g>
</svg>
