<svg xmlns="http://www.w3.org/2000/svg" xmlns:xlink="http://www.w3.org/1999/xlink" width="61" height="61" viewBox="0 0 61 61">
  <defs>
    <filter id="_5" x="0" y="0" width="61" height="61" filterUnits="userSpaceOnUse">
      <feOffset dy="3" input="SourceAlpha"/>
      <feGaussianBlur stdDeviation="3" result="blur"/>
      <feFlood flood-opacity="0.361"/>
      <feComposite operator="in" in2="blur"/>
      <feComposite in="SourceGraphic"/>
    </filter>
  </defs>
  <g id="_5-2" data-name="5" transform="translate(-1264 -713)">
    <g id="Group_2749" data-name="Group 2749">
      <circle id="_5-3" data-name="5" cx="25.5" cy="25.5" r="25.5" transform="translate(1269 715)" fill="#5c86e2"/>
      <g transform="matrix(1, 0, 0, 1, 1264, 713)" filter="url(#_5)">
        <circle id="_5-4" data-name="5" cx="21.5" cy="21.5" r="21.5" transform="translate(9 6)" fill="#fff"/>
      </g>
    </g>
    <g id="phone-call" transform="translate(1282 730)">
      <path id="Path_1283" data-name="Path 1283" d="M21.406,21.406V19.044a2.282,2.282,0,0,0-2.085-2.285,15.09,15.09,0,0,1-4.126-.993L13.86,16.845A16.163,16.163,0,0,1,5.667,8.083l1.122-1.4a14.609,14.609,0,0,1-.673-4.392A2.3,2.3,0,0,0,3.823,0H.134C.061.956,0,1.619,0,2.294A20.651,20.651,0,0,0,19.877,22.9C20.031,22.9,21.363,22.425,21.406,21.406Z" transform="translate(0 0)" fill="#5c86e2"/>
      <path id="Path_1284" data-name="Path 1284" d="M186.881,13.761A6.881,6.881,0,1,0,180,6.881,6.888,6.888,0,0,0,186.881,13.761Zm-.765-10.7h1.529V6.116h1.529V7.645h-3.058Z" transform="translate(-169.297 -1)" fill="#5c86e2"/>
    </g>
  </g>
</svg>
