<svg xmlns="http://www.w3.org/2000/svg" xmlns:xlink="http://www.w3.org/1999/xlink" width="61" height="61" viewBox="0 0 61 61">
  <defs>
    <filter id="_6" x="0" y="0" width="61" height="61" filterUnits="userSpaceOnUse">
      <feOffset dy="3" input="SourceAlpha"/>
      <feGaussianBlur stdDeviation="3" result="blur"/>
      <feFlood flood-opacity="0.361"/>
      <feComposite operator="in" in2="blur"/>
      <feComposite in="SourceGraphic"/>
    </filter>
  </defs>
  <g id="_7" data-name="7" transform="translate(-1264 -795)">
    <g id="Group_2750" data-name="Group 2750">
      <g id="_6-2" data-name="6" transform="translate(1269 797)" fill="#419d15" stroke="#419d15" stroke-width="1">
        <circle cx="25.5" cy="25.5" r="25.5" stroke="none"/>
        <circle cx="25.5" cy="25.5" r="25" fill="none"/>
      </g>
      <g transform="matrix(1, 0, 0, 1, 1264, 795)" filter="url(#_6)">
        <circle id="_6-3" data-name="6" cx="21.5" cy="21.5" r="21.5" transform="translate(9 6)" fill="#fff"/>
      </g>
    </g>
    <g id="Group_1873" data-name="Group 1873" transform="translate(466.923 -110.653)">
      <g id="phone-call" transform="translate(814.077 922.973)">
        <path id="Path_1283" data-name="Path 1283" d="M20.976,20.976V18.662a2.236,2.236,0,0,0-2.043-2.239,14.787,14.787,0,0,1-4.044-.973l-1.308,1.056A15.838,15.838,0,0,1,5.553,7.92l1.1-1.369a14.316,14.316,0,0,1-.659-4.3A2.25,2.25,0,0,0,3.746,0H.132C.06.937,0,1.587,0,2.247A20.236,20.236,0,0,0,19.478,22.437C19.629,22.438,20.934,21.975,20.976,20.976Z" transform="translate(0 0)" fill="#419d15"/>
      </g>
      <g id="clock_2_" data-name="clock (2)" transform="translate(826.401 921.653)">
        <path id="Path_1291" data-name="Path 1291" d="M100.6,95.957h.4a4.618,4.618,0,0,0-1.055-2.545l-.282.282a.422.422,0,0,1-.6-.6l.282-.282A4.618,4.618,0,0,0,96.8,91.76v.4a.422.422,0,1,1-.844,0v-.4a4.618,4.618,0,0,0-2.545,1.055l.282.282a.422.422,0,0,1-.6.6l-.282-.282a4.618,4.618,0,0,0-1.055,2.545h.4a.422.422,0,1,1,0,.844h-.4a4.618,4.618,0,0,0,1.055,2.545l.282-.282a.422.422,0,0,1,.6.6l-.282.282A4.618,4.618,0,0,0,95.957,101v-.4a.422.422,0,1,1,.844,0v.4a4.618,4.618,0,0,0,2.545-1.055l-.282-.282a.422.422,0,0,1,.6-.6l.282.282A4.618,4.618,0,0,0,101,96.8h-.4a.422.422,0,1,1,0-.844Zm-2.233,2.407a.422.422,0,0,1-.6,0L96.08,96.677a.422.422,0,0,1-.124-.3V93.848a.422.422,0,0,1,.844,0V96.2l1.564,1.564A.422.422,0,0,1,98.364,98.364Z" transform="translate(-89.18 -89.18)" fill="#419d15"/>
        <path id="Path_1292" data-name="Path 1292" d="M7.2,0a7.2,7.2,0,1,0,7.2,7.2A7.227,7.227,0,0,0,7.2,0Zm0,12.683A5.484,5.484,0,1,1,12.683,7.2,5.491,5.491,0,0,1,7.2,12.683Z" fill="#419d15"/>
      </g>
    </g>
  </g>
</svg>
