<svg xmlns="http://www.w3.org/2000/svg" width="34.046" height="31.903" viewBox="0 0 34.046 31.903">
  <path id="Контур_7732" data-name="Контур 7732" d="M4.406,7.619h6.773a3.433,3.433,0,0,1-6.773,0ZM2.33,7.36H13.256a.278.278,0,1,0,0-.557H11.435V5.432c0-1.23-.514-1.865-1.745-1.865h-3.7c-1.231,0-1.623.634-1.623,1.865V6.8H2.33a.278.278,0,0,0,0,.557ZM14.07,24.39h.6v7.266H12.86V24.39h.657v-.465a1.013,1.013,0,0,1-.835-.73L12.1,21.1c.5,4.471.5,9.03.5,9.03H10.724c-.016,2.3-.029,4.253-.029,4.253a1.1,1.1,0,0,1-2.19.095s-.189-2.013-.408-4.348H7.923l-.4-4.627-.109,4.627H7.065c-.219,2.335-.407,4.348-.407,4.348a1.1,1.1,0,0,1-2.191-.095s-.014-1.957-.029-4.253H2.167a92.361,92.361,0,0,1,.716-9.212L2.31,22.992a1.013,1.013,0,0,1-1.129.733.958.958,0,0,1-.1-.026v.69h.734v5.357H0V24.39H.524V23.333h0a1.006,1.006,0,0,1-.194-.761l.777-5.118a.737.737,0,0,1,.033-.129l.006-.014L1.264,17l.093-.232.19-.457c.131-.3.268-.6.412-.9a16.728,16.728,0,0,1,.987-1.772A8.419,8.419,0,0,1,4.374,11.91c.05-.044.1-.087.156-.13L3.694,9.445l.585.205v0L7.3,10.7l0,.178c.086-.006.172-.013.259-.013h.014a3.322,3.322,0,0,1,.715.081l0-.247L11.3,9.647l-.837,2.335c.052.043.106.086.156.13a8.435,8.435,0,0,1,1.429,1.727,16.716,16.716,0,0,1,.987,1.772c.144.3.282.6.412.9l.191.457.092.232.118.311,0,.014a.593.593,0,0,1,.033.129l.777,5.118a1.012,1.012,0,0,1-.591,1.074v.543ZM8.478,19.16a.685.685,0,1,0-.685.685A.685.685,0,0,0,8.478,19.16Zm0-2.7a.685.685,0,1,0-.685.685A.685.685,0,0,0,8.478,16.459Zm0-2.613a.685.685,0,1,0-.685.685A.685.685,0,0,0,8.478,13.846ZM33.9,24.235H31.04a3.321,3.321,0,1,0-6.641,0H15.433v-.446h-.255a1.613,1.613,0,0,0,.237-1.106l-.776-5.11a1.121,1.121,0,0,0-.058-.235l-.424-1.065c-.045-.106-.094-.214-.142-.321H15.4V12.264h-3.63c-.138-.155-.286-.309-.448-.464l.371-1.034h8.92c2.583,0,7.509,6.355,7.509,6.355A16,16,0,0,1,32.793,18.7C34.639,19.807,33.9,24.235,33.9,24.235Zm-8.671-8.282s-2.906-3.689-4.29-3.689H17.066v3.689Zm7.61,3.367h-1.53v.97h1.53Zm-2.083,4.913A2.957,2.957,0,1,1,27.8,21.277,2.959,2.959,0,0,1,30.757,24.233Zm-1.661,0a1.3,1.3,0,1,0-1.3,1.3A1.3,1.3,0,0,0,29.1,24.233ZM15.433,25.478h8.758V24.51H15.433Z" transform="translate(0 -3.567)" fill="#0078d4"/>
</svg>
