<svg xmlns="http://www.w3.org/2000/svg" width="37.648" height="33.363" viewBox="0 0 37.648 33.363">
  <path id="Контур_7733" data-name="Контур 7733" d="M27.913,9.906a3.506,3.506,0,1,1,3.392,3.617A3.506,3.506,0,0,1,27.913,9.906Zm9.7,12.993L36.7,16.185a3.215,3.215,0,0,0-6.357-.094c-.047.064-.091.128-.14.2-.312.438-.677.949-1.067,1.5l-.6.844-.621.883-3.285,4.707A.974.974,0,0,0,26.178,25.4l3.7-4.387.858-1.01.512,3.758A3.2,3.2,0,0,0,32.7,26.035l-.448,3.308-.02.146a1.229,1.229,0,0,0,.022.442l2.109,9a1.217,1.217,0,0,0,2.389-.459L35.426,29.7l.881-3.753A3.214,3.214,0,0,0,37.618,22.9ZM21.8,24.715l.075-.088-.026-.02a.055.055,0,0,1-.006-.077l.167-.2a.055.055,0,0,1,.077-.007l.024.021,2.058-2.439.033-.036-.029-.06a.055.055,0,0,1,.025-.073l.049-.024a.056.056,0,0,1,.074.025l.013.028a.644.644,0,0,1,.2-.081l.191-.227a.055.055,0,0,1,.078-.007l.661.558a.054.054,0,0,1,.007.077l0,0a.2.2,0,0,1,.089.181l.139.07-1.075,1.745a.82.82,0,0,1-.493-.068L22.971,25.4l-.272-.159-.183.217a.055.055,0,0,1-.077.007l-.517-.436a.055.055,0,0,1-.007-.077l.094-.112Zm2.857-1.32a.91.91,0,0,1,.091.216,1.308,1.308,0,0,1,.128-.214l-.156-.077Zm-.435.516a.676.676,0,0,0,.417.038,1.113,1.113,0,0,1,.037-.158.04.04,0,0,1,0-.033.427.427,0,0,0-.074-.295Zm-3.5,5.168a3.047,3.047,0,1,0,3.926,1.777A3.047,3.047,0,0,0,20.728,29.079Zm-3.162,5.06,1.281-3.062a1.11,1.11,0,0,0,.042-.116,1.282,1.282,0,0,0,.04-.588,2.789,2.789,0,0,0-3.4-3.079L9.4,28.724a2.872,2.872,0,0,0-.4.131,1.4,1.4,0,0,0-1.428.888l-1.507,3.9-4.137-.32a.918.918,0,0,0-.255,1.815l5.042,1.031a1.137,1.137,0,0,0,1.216-.556l.344,1.376L1,36.3A.917.917,0,0,0,.777,38.12l8.9,1.372a1.17,1.17,0,0,0,.366,0,1.153,1.153,0,0,0,.947-1.328l-.013-.08-.647-3.859a2.826,2.826,0,0,0,.347-.057l4.871-1.138-.284.918-.034.1a1.008,1.008,0,0,0,.25,1.007l3.54,3.552a.847.847,0,0,0,1.257-1.131Z" transform="translate(0 -6.512)" fill="#0078D4"/>
</svg>
