<svg xmlns="http://www.w3.org/2000/svg" xmlns:xlink="http://www.w3.org/1999/xlink" width="61" height="61" viewBox="0 0 61 61">
  <defs>
    <filter id="_9999" x="0" y="0" width="61" height="61" filterUnits="userSpaceOnUse">
      <feOffset dy="3" input="SourceAlpha"/>
      <feGaussianBlur stdDeviation="3" result="blur"/>
      <feFlood flood-opacity="0.361"/>
      <feComposite operator="in" in2="blur"/>
      <feComposite in="SourceGraphic"/>
    </filter>
  </defs>
  <g id="_9" data-name="9" transform="translate(-1527 -795)">
    <g id="Group_2749" data-name="Group 2749">
      <circle id="_9999-2" data-name="9999" cx="25.5" cy="25.5" r="25.5" transform="translate(1532 797)" fill="#f57c2b"/>
      <g transform="matrix(1, 0, 0, 1, 1527, 795)" filter="url(#_9999)">
        <circle id="_9999-3" data-name="9999" cx="21.5" cy="21.5" r="21.5" transform="translate(9 6)" fill="#fff"/>
      </g>
    </g>
    <g id="Group_1876" data-name="Group 1876" transform="translate(551.892 30.601)">
      <g id="comments" transform="translate(1002.039 778.072)">
        <g id="Group_1859" data-name="Group 1859" transform="translate(1.63 0)">
          <path id="Path_1277" data-name="Path 1277" d="M12.639,1.925A6.424,6.424,0,0,0,1.633,6.618a6.122,6.122,0,0,0,.439,2.15,6.363,6.363,0,0,0,.908,1.59l-.53,1.257A.952.952,0,0,0,3.5,12.931l2.453-.424A6.432,6.432,0,0,0,12.639,1.925ZM7.583,9H5.9a.484.484,0,0,1,0-.969h1.68a.488.488,0,0,1,.484.484A.478.478,0,0,1,7.583,9ZM10.2,7.027H5.9a.488.488,0,0,1-.484-.484A.478.478,0,0,1,5.9,6.058h4.3a.484.484,0,0,1,0,.969Zm0-1.983H5.9a.484.484,0,0,1,0-.969h4.3a.488.488,0,0,1,.484.484A.5.5,0,0,1,10.2,5.044Z" transform="translate(-0.313 1.327)" fill="#f57c2b"/>
        </g>
      </g>
      <g id="phone-call" transform="translate(993.109 780.897)">
        <path id="Path_1283" data-name="Path 1283" d="M21.406,21.406V19.044a2.282,2.282,0,0,0-2.085-2.285,15.09,15.09,0,0,1-4.126-.993L13.86,16.845A16.163,16.163,0,0,1,5.667,8.083l1.122-1.4a14.609,14.609,0,0,1-.673-4.392A2.3,2.3,0,0,0,3.823,0H.134C.061.956,0,1.619,0,2.294A20.651,20.651,0,0,0,19.877,22.9C20.031,22.9,21.363,22.425,21.406,21.406Z" transform="translate(0 0)" fill="#f57c2b"/>
      </g>
    </g>
  </g>
</svg>
