<svg xmlns="http://www.w3.org/2000/svg" width="38.051" height="38.067" viewBox="0 0 38.051 38.067">
  <g id="alzheimer" transform="translate(-0.109 0)">
    <path id="Контур_7817" data-name="Контур 7817" d="M82.514,426.2a1.947,1.947,0,0,0,3.395,1.288,1.114,1.114,0,0,1,.335-.257,6.9,6.9,0,0,1-3.693-1.408A1.948,1.948,0,0,0,82.514,426.2Z" transform="translate(-76.278 -394.158)" fill="#0078d4"/>
    <path id="Контур_7818" data-name="Контур 7818" d="M146.435,427.484a1.945,1.945,0,0,0,3.358-1.665,6.9,6.9,0,0,1-3.693,1.408A1.112,1.112,0,0,1,146.435,427.484Z" transform="translate(-135.136 -394.158)" fill="#0078d4"/>
    <path id="Контур_7819" data-name="Контур 7819" d="M18.461,397.33a7.636,7.636,0,0,1-1.7,1.324,4.182,4.182,0,0,1-6.292,4.66,4.182,4.182,0,0,1-6.292-4.66,7.632,7.632,0,0,1-1.7-1.324,6.767,6.767,0,0,0-2.359,5.135v2.271a1.115,1.115,0,0,0,1.115,1.115l18.481,0a1.115,1.115,0,0,0,1.115-1.115v-2.274A6.767,6.767,0,0,0,18.461,397.33Z" transform="translate(0 -367.787)" fill="#0078d4"/>
    <path id="Контур_7820" data-name="Контур 7820" d="M91.67,152.825a5.144,5.144,0,0,0-8.335,0A14.025,14.025,0,0,1,91.67,152.825Z" transform="translate(-77.038 -139.491)" fill="#0078d4"/>
    <path id="Контур_7821" data-name="Контур 7821" d="M39.138,205.089a1.545,1.545,0,0,0,1.475,0,8.362,8.362,0,0,1,7.256.033c-2.122-5.876-13.864-5.877-15.987,0A8.362,8.362,0,0,1,39.138,205.089Z" transform="translate(-29.411 -185.791)" fill="#0078d4"/>
    <path id="Контур_7822" data-name="Контур 7822" d="M33.816,287.433a1.008,1.008,0,0,1,.533.244,4.645,4.645,0,0,0,6.007,0,1.008,1.008,0,0,1,.533-.244,5.243,5.243,0,0,0,3.368-2.121,6.807,6.807,0,0,0,1.291-4.038v-.824c-.718-1.777-4.424-2.354-6.442-1.244a3.762,3.762,0,0,1-3.505,0c-2.019-1.111-5.727-.531-6.442,1.244v.824C29.106,284.093,31.013,287.015,33.816,287.433Z" transform="translate(-26.887 -257.921)" fill="#0078d4"/>
    <path id="Контур_7823" data-name="Контур 7823" d="M245.994,0c-7.346-.109-12.771,7.016-9.084,13.133l-.33,3.49a1.115,1.115,0,0,0,1.268,1.209l4.2-.6c6.313,2.45,14.288-1.767,14.211-8.272,0-4.94-4.6-8.959-10.261-8.959Zm1.115,12.9a1.115,1.115,0,0,1-2.231,0v-.095a1.115,1.115,0,0,1,2.231,0Zm0-3.473v.128a1.115,1.115,0,0,1-2.231,0s0-.94,0-1a1.115,1.115,0,0,1,1.115-1.115.449.449,0,1,0,0-.9,1.115,1.115,0,0,1,0-2.231A2.684,2.684,0,0,1,247.11,9.429Z" transform="translate(-218.096 0)" fill="#0078d4"/>
  </g>
</svg>
