<svg id="ambulance" xmlns="http://www.w3.org/2000/svg" width="39.693" height="27.679" viewBox="0 0 39.693 27.679">
  <g id="Сгруппировать_2434" data-name="Сгруппировать 2434">
    <path id="Контур_7830" data-name="Контур 7830" d="M38.1,87.03H13.408a1.593,1.593,0,0,0-1.593,1.593v3.058l-1.98.008a1.721,1.721,0,0,0-1.467.986l-2,4.843C5.492,97.517,0,98.23,0,99.11v7.3c0,.664,1.921,1.233,3.24,1.473a5.708,5.708,0,0,1,10.438.12H26.523a5.712,5.712,0,0,1,10.5,0H38.1a1.593,1.593,0,0,0,1.593-1.593V88.623A1.592,1.592,0,0,0,38.1,87.03ZM32.879,97.067a1.641,1.641,0,0,1-1.641,1.641H27.33v3.908a1.641,1.641,0,0,1-1.641,1.641h-.457a1.641,1.641,0,0,1-1.641-1.641V98.709H19.683a1.641,1.641,0,0,1-1.641-1.641V96.61a1.641,1.641,0,0,1,1.641-1.641h3.908V91.061a1.641,1.641,0,0,1,1.641-1.641h.457a1.641,1.641,0,0,1,1.641,1.641v3.908h3.908a1.641,1.641,0,0,1,1.641,1.641Z" transform="translate(0 -87.03)" fill="#0078d4"/>
    <path id="Контур_7831" data-name="Контур 7831" d="M66.589,363.628a4.447,4.447,0,1,0-4.448,4.447A4.419,4.419,0,0,0,66.589,363.628Z" transform="translate(-53.712 -340.396)" fill="#0078d4"/>
    <path id="Контур_7832" data-name="Контур 7832" d="M404.757,363.628a4.447,4.447,0,1,0-4.448,4.447A4.419,4.419,0,0,0,404.757,363.628Z" transform="translate(-368.539 -340.396)" fill="#0078d4"/>
  </g>
</svg>
