<svg xmlns="http://www.w3.org/2000/svg" width="19.539" height="19.541" viewBox="0 0 19.539 19.541">
  <g id="arrow__down" transform="translate(0 19.541) rotate(-90)">
    <g id="_x35__11_" transform="translate(0 0)">
      <g id="Group_2165" data-name="Group 2165">
        <path id="Path_1569" data-name="Path 1569" d="M.481,8.609,8.609.481A1.642,1.642,0,0,1,10.931,2.8L3.965,9.77l6.967,6.967a1.642,1.642,0,0,1-2.322,2.322L.481,10.93A1.64,1.64,0,0,1,.481,8.609Zm9.774-.492,6.453-6.8a1.6,1.6,0,0,1,2.347,0,1.815,1.815,0,0,1,0,2.473l-5.28,5.565,5.28,5.565a1.815,1.815,0,0,1,0,2.473,1.6,1.6,0,0,1-2.347,0l-6.453-6.8A1.815,1.815,0,0,1,10.254,8.117Z" fill="#537dd9"/>
      </g>
    </g>
  </g>
</svg>
