<svg id="balance" xmlns="http://www.w3.org/2000/svg" width="34.74" height="34.74" viewBox="0 0 34.74 34.74">
  <path id="Контур_7845" data-name="Контур 7845" d="M139.32,454.053A3.053,3.053,0,0,0,136.267,451H124.053A3.053,3.053,0,0,0,121,454.053v1.086h18.32Z" transform="translate(-112.79 -420.399)" fill="#0078d4"/>
  <path id="Контур_7846" data-name="Контур 7846" d="M32.7,8.21V6.175H20.236a3.049,3.049,0,0,0-1.848-1.848V0H16.352V4.326A3.049,3.049,0,0,0,14.5,6.175H2.036V8.21H4.58L0,19.406a5.1,5.1,0,0,0,5.089,5.089H7.124a5.1,5.1,0,0,0,5.089-5.089l-4.6-11.2H14.5a3.049,3.049,0,0,0,1.848,1.848V24.606a5.1,5.1,0,0,0-3.968,3.96h9.972a5.1,5.1,0,0,0-3.968-3.96V10.058A3.049,3.049,0,0,0,20.236,8.21h6.871l-4.58,11.2a5.1,5.1,0,0,0,5.089,5.089h2.036a5.1,5.1,0,0,0,5.089-5.089l-4.6-11.2ZM9.669,18.388H2.545l3.562-8.55Zm22.527,0H25.072l3.562-8.55Z" fill="#0078d4"/>
</svg>
