<svg xmlns="http://www.w3.org/2000/svg" width="38.105" height="26.817" viewBox="0 0 38.105 26.817">
  <g id="Сгруппировать_2361" data-name="Сгруппировать 2361" transform="translate(567.294 -2517.501)">
    <path id="Контур_1858" data-name="Контур 1858" d="M385.935,227.534a2.856,2.856,0,1,0-2.584-3.046A2.856,2.856,0,0,0,385.935,227.534ZM398.62,247.28a1.542,1.542,0,0,0,1.843-1.168l.038-.173h-3.076a1.54,1.54,0,0,0,1.195,1.341Zm-7.992-12.55a2.2,2.2,0,0,1,1.235,1.361h4.132a2.145,2.145,0,0,1,1.116-1.69l.946-.513h-9.414l1.984.843Zm17.316-10.738a2.858,2.858,0,1,0-3.346,2.171,2.859,2.859,0,0,0,3.346-2.171Zm-10.862,17.477c0,.094.083.152.2.2v-.381C397.142,241.319,397.082,241.393,397.082,241.469Zm.383.8v.43c.11-.027.2-.087.2-.2S397.582,242.319,397.465,242.265Z" transform="translate(-943.147 2297)" fill="#0078d4"/>
    <path id="Контур_1859" data-name="Контур 1859" d="M395.139,229.712h-1.385v-.892h.009v-.013a2.088,2.088,0,0,1-.9.3v.608h-2.139v-.8h1a2.151,2.151,0,0,1-.953-.892h-.493a.446.446,0,0,0-.444.446v1.251h-1.386a.681.681,0,0,0-.681.682v4.643a.681.681,0,0,0,.681.682h6.69a.684.684,0,0,0,.684-.682v-4.643a.684.684,0,0,0-.681-.682Zm-3.132,4.1v.092c0,.045-.061.087-.123.087s-.121-.043-.121-.087v-.081c-.386-.011-.7-.211-.7-.417,0-.108.1-.269.217-.269.137,0,.244.191.482.231v-.52c-.3-.112-.641-.249-.641-.659a.657.657,0,0,1,.641-.652v-.09c0-.045.052-.085.121-.085s.123.04.123.085v.081c.2.007.574.058.574.28,0,.085-.058.262-.2.262-.105,0-.166-.1-.374-.119v.469c.291.108.632.26.632.693a.685.685,0,0,1-.632.7Z" transform="translate(-937.656 2306.331)" fill="#0078d4"/>
    <path id="Контур_1860" data-name="Контур 1860" d="M417.178,223.1a1.1,1.1,0,0,0-1.26.915l-1.168,7.378v-4.5a3.27,3.27,0,0,0-3.271-3.271h-.41a3.453,3.453,0,0,0-3.452,3.455v.567l2.011-1.381-2.775,2.887-5.176,2.807a1.287,1.287,0,1,0,1.226,2.262l5.354-2.9a1.255,1.255,0,0,0,.314-.24l2.912-3.031-2.287,3.632a1.221,1.221,0,0,1-.527.4l-4.439,2.408v.46h.549a1.576,1.576,0,0,1,1.574,1.574v.5a1.077,1.077,0,0,0,.572.161h.713l-1.507,6.147a.63.63,0,0,0,1.224.3l1.578-6.445h4.291l1.578,6.445a.63.63,0,1,0,1.224-.3l-1.506-6.147h.6a1.1,1.1,0,0,0,1.09-.928l1.883-11.893a1.1,1.1,0,0,0-.917-1.26Zm-3,11.88h-.706a3.376,3.376,0,0,0,.87-1.029Zm-19.192.5a2.2,2.2,0,0,1-1.937.105l-4.311-1.834a1.39,1.39,0,0,1-.8-.953l-1.007-4.322,1.836,3.934a1.282,1.282,0,0,0,.664.639l3.977,1.693a1.287,1.287,0,0,0,1.007-2.367l-3.524-1.5-1.63-3.488,1.224,1.628v-1.98a3.388,3.388,0,0,0-.457-1.706h-.016a3.833,3.833,0,0,1-2.93-1.7h-.459a3.27,3.27,0,0,0-3.271,3.271v4.5l-1.168-7.378a1.1,1.1,0,0,0-2.177.345l1.883,11.893a1.1,1.1,0,0,0,1.09.928h.6l-1.506,6.145a.632.632,0,0,0,1.224.3l1.578-6.445h4.291l1.578,6.445a.63.63,0,1,0,1.224-.3l-1.507-6.145h.713a1.1,1.1,0,0,0,.917-.491l1.394,6.219a1.543,1.543,0,0,0,3.011-.675l-1.513-6.757Zm-11.068-.5-.164-1.029a3.375,3.375,0,0,0,.87,1.029Z" transform="translate(-947.297 2300.206)" fill="#0078d4"/>
  </g>
</svg>
