<svg xmlns="http://www.w3.org/2000/svg" width="176.189" height="176.186" viewBox="0 0 176.189 176.186">
  <g id="Сгруппировать_1784" data-name="Сгруппировать 1784" transform="translate(-311.048 -1476.293)">
    <path id="Контур_524" data-name="Контур 524" d="M333.311,1591.652a164.085,164.085,0,0,0-19.168-18.812,1.559,1.559,0,0,0-.471-.261,1.416,1.416,0,0,0-2.624.693q.312,13.53,1.468,26.993,8.694,10.337,18.05,20.126a1.415,1.415,0,0,0,2.345-1.364,1.53,1.53,0,0,0,.15-.518,164.138,164.138,0,0,0,.251-26.856Zm0-54.536a164.121,164.121,0,0,0-.251-26.856,1.529,1.529,0,0,0-.15-.518,1.415,1.415,0,0,0-2.345-1.365q-9.345,9.788-18.05,20.126-1.161,13.455-1.468,26.993a1.415,1.415,0,0,0,2.624.691,1.514,1.514,0,0,0,.471-.256,163.911,163.911,0,0,0,19.168-18.817Zm38.562-38.562a164.1,164.1,0,0,0,18.817-19.167,1.513,1.513,0,0,0,.256-.471,1.414,1.414,0,0,0-.691-2.622q-13.53.307-27,1.465-10.334,8.694-20.124,18.05a1.415,1.415,0,0,0,1.365,2.345,1.488,1.488,0,0,0,.518.149,164.1,164.1,0,0,0,26.856.251Zm54.536,0a164.1,164.1,0,0,0,26.856-.251,1.46,1.46,0,0,0,.518-.149,1.415,1.415,0,0,0,1.365-2.345q-9.785-9.345-20.124-18.05-13.458-1.161-26.993-1.466a1.414,1.414,0,0,0-.694,2.622,1.478,1.478,0,0,0,.261.471,164.069,164.069,0,0,0,18.812,19.167Zm38.563,38.56a164.262,164.262,0,0,0,19.165,18.817,1.5,1.5,0,0,0,.473.256,1.413,1.413,0,0,0,2.622-.691q-.312-13.53-1.468-26.994-8.694-10.337-18.05-20.126a1.413,1.413,0,0,0-2.343,1.364,1.534,1.534,0,0,0-.154.518,164.358,164.358,0,0,0-.242,26.853Zm0,54.536a164.369,164.369,0,0,0,.251,26.856,1.532,1.532,0,0,0,.154.518,1.414,1.414,0,0,0,2.343,1.364q9.348-9.788,18.05-20.126,1.161-13.455,1.468-26.993a1.414,1.414,0,0,0-2.622-.693,1.546,1.546,0,0,0-.473.261,164.4,164.4,0,0,0-19.17,18.817Zm-38.563,38.566a164.236,164.236,0,0,0-18.812,19.166,1.467,1.467,0,0,0-.261.473,1.414,1.414,0,0,0,.694,2.622q13.53-.313,26.993-1.468,10.337-8.694,20.124-18.05a1.414,1.414,0,0,0-1.365-2.343,1.505,1.505,0,0,0-.518-.154,164.128,164.128,0,0,0-26.856-.247Zm-54.536,0a164.142,164.142,0,0,0-26.856.248,1.539,1.539,0,0,0-.518.154,1.414,1.414,0,0,0-1.365,2.343q9.788,9.349,20.124,18.05,13.458,1.161,27,1.468a1.414,1.414,0,0,0,.691-2.622,1.494,1.494,0,0,0-.256-.473,164.25,164.25,0,0,0-18.817-19.168Zm-54.4-32q-.755-8.7-1.16-17.424A169.424,169.424,0,0,1,329,1593.436a169.19,169.19,0,0,1-.024,17.915q-5.883-6.46-11.5-13.14Zm0-67.653q5.616-6.683,11.5-13.14a169.206,169.206,0,0,1,.024,17.915,169.411,169.411,0,0,1-12.685,12.648q.411-8.726,1.16-17.428Zm47.837-47.837q8.7-.754,17.423-1.16a169.083,169.083,0,0,1-12.648,12.685,169.238,169.238,0,0,1-17.915-.025q6.455-5.882,13.142-11.5Zm67.651,0q6.683,5.616,13.142,11.5a169.141,169.141,0,0,1-17.915.024,169.405,169.405,0,0,1-12.649-12.686q8.724.411,17.424,1.161Zm47.839,47.837q.755,8.7,1.157,17.423a169.005,169.005,0,0,1-12.683-12.648,168.638,168.638,0,0,1,.024-17.915q5.881,6.455,11.5,13.14Zm0,67.654q-5.616,6.683-11.5,13.14a168.632,168.632,0,0,1-.024-17.915,169,169,0,0,1,12.683-12.648q-.4,8.724-1.157,17.423Zm-47.839,47.837q-8.7.755-17.423,1.157a169.435,169.435,0,0,1,12.652-12.682,168.684,168.684,0,0,1,17.915.025q-6.459,5.879-13.142,11.5Zm-67.651,0q-6.683-5.616-13.14-11.5a168.588,168.588,0,0,1,17.915-.024,169.036,169.036,0,0,1,12.648,12.683q-8.722-.407-17.422-1.157Z" fill="#5eb26e"/>
    <path id="Контур_525" data-name="Контур 525" d="M312.956,1564.708a1.437,1.437,0,0,0,.681,1.218c10.048,6.439,18.459,14.619,26.166,23.506.831,11.733.67,23.464-1.882,35.122a1.426,1.426,0,0,0,1.72,1.72c11.658-2.553,23.391-2.713,35.122-1.884,8.882,7.71,17.066,16.118,23.5,26.166a1.427,1.427,0,0,0,2.436,0c6.439-10.048,14.62-18.456,23.506-26.166,11.731-.829,23.464-.67,35.122,1.884a1.426,1.426,0,0,0,1.72-1.72c-2.553-11.658-2.713-23.391-1.884-35.122,7.71-8.883,16.118-17.066,26.166-23.506a1.426,1.426,0,0,0,0-2.432c-10.048-6.439-18.456-14.62-26.166-23.506-.829-11.733-.67-23.464,1.884-35.122a1.426,1.426,0,0,0-1.72-1.72c-11.658,2.553-23.391,2.713-35.122,1.884-8.882-7.71-17.066-16.119-23.506-26.169a1.428,1.428,0,0,0-2.436,0c-6.437,10.048-14.62,18.459-23.5,26.169-11.733.829-23.464.67-35.122-1.884a1.426,1.426,0,0,0-1.72,1.72c2.553,11.658,2.713,23.391,1.882,35.122-7.708,8.882-16.118,17.066-26.166,23.506A1.436,1.436,0,0,0,312.956,1564.708Zm46.7,0c0,6.7-1.526,14.019-8.244,17.167-6.925,3.245-11.882-1.518-16.6-6.024a11.978,11.978,0,0,0,1.55.219c6.412.441,12.567-4.75,12.567-11.361s-6.156-11.8-12.567-11.359a11.937,11.937,0,0,0-1.55.219c4.723-4.506,9.679-9.269,16.6-6.024C358.126,1550.689,359.652,1558.015,359.652,1564.708Zm11.666-28.161c-4.735,4.732-10.991,8.834-17.965,6.31-7.193-2.608-7.331-9.477-7.482-16a12.024,12.024,0,0,0,.942,1.249c4.223,4.848,12.248,5.529,16.92.853s3.992-12.7-.853-16.92a11.975,11.975,0,0,0-1.249-.942c6.525.154,13.4.291,16,7.481,2.525,6.976-1.577,13.233-6.31,17.965Zm28.161-11.666c-6.693,0-14.019-1.522-17.164-8.242-3.245-6.928,1.516-11.884,6.024-16.607a11.98,11.98,0,0,0-.219,1.551c-.441,6.412,4.75,12.567,11.359,12.567s11.8-6.156,11.361-12.567a11.987,11.987,0,0,0-.219-1.55c4.506,4.722,9.267,9.679,6.022,16.607-3.144,6.716-10.468,8.239-17.163,8.239Zm28.166,11.666c-4.735-4.734-8.836-10.991-6.31-17.965,2.6-7.191,9.475-7.33,16-7.481a12,12,0,0,0-1.251.942c-4.846,4.223-5.526,12.248-.853,16.92s12.7,3.992,16.922-.853a12.01,12.01,0,0,0,.94-1.249c-.154,6.525-.289,13.4-7.481,16-6.971,2.521-13.228-1.58-17.965-6.311Zm11.666,28.161c0-6.693,1.522-14.019,8.242-17.164,6.928-3.245,11.882,1.516,16.6,6.024a12.037,12.037,0,0,0-1.549-.219c-6.412-.441-12.567,4.75-12.567,11.359s6.155,11.8,12.567,11.361a12,12,0,0,0,1.549-.219c-4.723,4.506-9.677,9.269-16.6,6.024-6.715-3.148-8.239-10.474-8.239-17.167Zm-11.666,28.166c4.735-4.734,10.991-8.834,17.965-6.309,7.193,2.6,7.33,9.475,7.481,16a12.04,12.04,0,0,0-.94-1.251c-4.223-4.846-12.251-5.526-16.922-.853s-3.99,12.7.853,16.922a11.743,11.743,0,0,0,1.251.94c-6.525-.154-13.4-.289-16-7.481-2.525-6.974,1.576-13.231,6.311-17.965Zm-28.166,11.666c6.7,0,14.019,1.522,17.164,8.242,3.245,6.928-1.516,11.882-6.022,16.6a11.945,11.945,0,0,0,.219-1.549c.441-6.412-4.75-12.567-11.361-12.567s-11.8,6.156-11.359,12.567a11.956,11.956,0,0,0,.219,1.549c-4.506-4.722-9.269-9.677-6.024-16.6,3.148-6.717,10.474-8.242,17.167-8.242Zm-28.161-11.666c4.732,4.734,8.834,10.991,6.31,17.965-2.6,7.192-9.475,7.33-16,7.481a11.706,11.706,0,0,0,1.249-.94c4.847-4.223,5.529-12.248.853-16.922s-12.7-3.99-16.92.853a12.072,12.072,0,0,0-.942,1.251c.154-6.525.289-13.4,7.481-16,6.979-2.517,13.235,1.581,17.97,6.313Zm-25.211-28.166a8.931,8.931,0,0,1-6.867,8.323c-3.055.731-5.856-.307-8.409-1.91-3.283-2.058-6.053-4.656-9.443-6.412,3.385-1.755,6.162-4.352,9.443-6.412,2.553-1.6,5.355-2.643,8.409-1.912a8.939,8.939,0,0,1,6.866,8.323Zm15.634-37.741A8.938,8.938,0,0,1,351,1528c-2.675-1.644-3.922-4.36-4.6-7.3-.863-3.776-.988-7.572-2.142-11.209,3.637,1.157,7.436,1.279,11.209,2.142,2.94.673,5.656,1.921,7.3,4.6A8.938,8.938,0,0,1,361.741,1526.967Zm37.741-15.635a8.935,8.935,0,0,1-8.323-6.867c-.731-3.055.308-5.857,1.912-8.409,2.058-3.283,4.654-6.053,6.412-9.443,1.757,3.388,4.355,6.162,6.412,9.443,1.6,2.553,2.64,5.355,1.91,8.409a8.934,8.934,0,0,1-8.323,6.866Zm37.743,15.635a8.935,8.935,0,0,1-1.029-10.742c1.644-2.675,4.36-3.922,7.3-4.6,3.776-.864,7.573-.988,11.209-2.143-1.152,3.637-1.279,7.436-2.142,11.209-.673,2.939-1.918,5.656-4.6,7.3a8.938,8.938,0,0,1-10.742-1.029Zm15.632,37.741a8.934,8.934,0,0,1,6.869-8.323c3.053-.731,5.855.308,8.409,1.912,3.279,2.058,6.053,4.656,9.439,6.412-3.385,1.757-6.162,4.355-9.439,6.412-2.558,1.6-5.359,2.64-8.409,1.91A8.927,8.927,0,0,1,452.858,1564.708Zm-15.634,37.744a8.931,8.931,0,0,1,10.74-1.029c2.68,1.644,3.922,4.36,4.6,7.3.865,3.776.991,7.573,2.142,11.209-3.637-1.152-7.436-1.279-11.209-2.142-2.94-.673-5.654-1.918-7.3-4.6a8.935,8.935,0,0,1,1.029-10.739Zm-37.744,15.634a8.935,8.935,0,0,1,8.323,6.867c.731,3.055-.307,5.855-1.91,8.409-2.058,3.279-4.656,6.052-6.412,9.443-1.757-3.385-4.352-6.163-6.412-9.443-1.6-2.558-2.642-5.355-1.912-8.409a8.939,8.939,0,0,1,8.325-6.867Zm-37.741-15.634a8.935,8.935,0,0,1,1.029,10.74c-1.644,2.68-4.36,3.922-7.3,4.6-3.776.865-7.573.991-11.209,2.142,1.157-3.637,1.279-7.435,2.142-11.209.673-2.939,1.921-5.654,4.6-7.3a8.941,8.941,0,0,1,10.744,1.029Zm-16.314-60.134q.067-1.147.122-2.295a11.586,11.586,0,0,0,3.606,3.837,11.584,11.584,0,0,0-5.264.164q.772-.849,1.536-1.7Zm31.667-31.667c.572-.513,1.141-1.023,1.705-1.539a11.559,11.559,0,0,0-.164,5.264,11.584,11.584,0,0,0-3.837-3.606q1.147-.054,2.295-.122Zm44.781,0q1.147.061,2.295.118a11.572,11.572,0,0,0-3.837,3.606,11.558,11.558,0,0,0-.161-5.264c.565.518,1.135,1.029,1.705,1.54Zm31.667,31.667q.764.858,1.539,1.705a11.584,11.584,0,0,0-5.264-.164,11.541,11.541,0,0,0,3.606-3.837c.037.764.075,1.53.122,2.295Zm0,44.781q-.066,1.147-.122,2.295a11.532,11.532,0,0,0-3.606-3.837,11.556,11.556,0,0,0,5.264-.161q-.771.847-1.537,1.705Zm-31.667,31.667q-.858.764-1.705,1.539a11.556,11.556,0,0,0,.161-5.264,11.553,11.553,0,0,0,3.836,3.608q-1.148.053-2.293.118Zm-44.781,0q-1.149-.061-2.295-.117a11.57,11.57,0,0,0,3.836-3.608,11.556,11.556,0,0,0,.164,5.264q-.849-.772-1.705-1.538ZM345.425,1587.1q-.764-.858-1.539-1.705a11.563,11.563,0,0,0,5.264.161,11.571,11.571,0,0,0-3.606,3.836q-.051-1.148-.122-2.293Zm9.111-3.776c6.053-3.974,7.951-11.462,7.932-18.621.018-7.154-1.88-14.642-7.932-18.616,7.09,1.469,13.727-2.484,18.774-7.556,5.072-5.045,9.024-11.682,7.554-18.774,3.977,6.053,11.464,7.951,18.621,7.934,7.156.016,14.644-1.882,18.621-7.934-1.469,7.092,2.482,13.728,7.554,18.774,5.048,5.072,11.684,9.028,18.774,7.556-6.053,3.974-7.951,11.462-7.934,18.616-.018,7.156,1.88,14.644,7.934,18.621-7.091-1.469-13.727,2.482-18.774,7.554-5.072,5.048-9.024,11.684-7.554,18.774-3.974-6.052-11.462-7.951-18.621-7.934-7.154-.018-14.642,1.88-18.621,7.934,1.469-7.092-2.482-13.728-7.554-18.774-5.047-5.071-11.685-9.023-18.775-7.551Zm19.974-18.621a38.789,38.789,0,0,1-1.705,11.052,36.629,36.629,0,0,1,15.628,15.633,36.638,36.638,0,0,1,22.1,0,36.6,36.6,0,0,1,15.628-15.629,36.6,36.6,0,0,1,0-22.1,36.63,36.63,0,0,1-15.628-15.628,36.642,36.642,0,0,1-22.1,0,36.66,36.66,0,0,1-15.628,15.628,38.782,38.782,0,0,1,1.705,11.048Zm12.5,0a17.434,17.434,0,0,1-.609,5.42,24.491,24.491,0,0,1,7.658,7.658,24.423,24.423,0,0,1,10.834,0,24.49,24.49,0,0,1,7.658-7.658,24.419,24.419,0,0,1,0-10.833,24.5,24.5,0,0,1-7.658-7.658,24.5,24.5,0,0,1-10.834,0,24.5,24.5,0,0,1-7.655,7.657,17.505,17.505,0,0,1,.609,5.42Zm-10.883,9.676a39.682,39.682,0,0,0,0-19.344,39.7,39.7,0,0,0,13.679-13.679,39.676,39.676,0,0,0,19.343,0,39.715,39.715,0,0,0,13.677,13.679,39.747,39.747,0,0,0,0,19.344,39.734,39.734,0,0,0-13.678,13.677,39.756,39.756,0,0,0-19.343,0,39.72,39.72,0,0,0-13.679-13.678Zm13.424-5.562a30.67,30.67,0,0,0,0-8.225,30.632,30.632,0,0,0,5.816-5.816,30.654,30.654,0,0,0,8.221,0,30.627,30.627,0,0,0,5.816,5.816,30.675,30.675,0,0,0,0,8.225,26.73,26.73,0,0,0-3.106,2.711,27.108,27.108,0,0,0-2.713,3.106,30.654,30.654,0,0,0-8.221,0,30.7,30.7,0,0,0-5.813-5.81Zm7.11-4.114c0,.392,0,.78,0,1.171l.831.821q.416.412.821.829c.389,0,.778,0,1.169,0s.78,0,1.17,0c.273-.277.548-.552.821-.829s.552-.548.829-.821c0-.39,0-.778,0-1.171s0-.78,0-1.168c-.277-.273-.552-.548-.829-.821s-.548-.554-.821-.831c-.39,0-.78,0-1.17,0s-.78,0-1.169,0l-.821.831q-.411.416-.831.821c0,.391,0,.781,0,1.171Z" transform="translate(-0.341 -0.328)" fill="#5eb26e"/>
  </g>
</svg>
