<svg xmlns="http://www.w3.org/2000/svg" width="29.084" height="29.084" viewBox="0 0 29.084 29.084">
  <path id="Контур_7751" data-name="Контур 7751" d="M14.542,0A14.542,14.542,0,1,0,29.084,14.542,14.543,14.543,0,0,0,14.542,0Zm4.177,20.275A4.677,4.677,0,0,1,16.3,21.831a.674.674,0,0,0-.586.772c.018.431,0,.856-.006,1.287a.533.533,0,0,1-.575.6c-.245.006-.491.012-.736.012-.215,0-.431,0-.646-.006a.556.556,0,0,1-.6-.634c-.006-.311-.006-.628-.006-.94-.006-.694-.03-.718-.694-.826a8.821,8.821,0,0,1-2.466-.706c-.61-.3-.676-.449-.5-1.1.132-.479.263-.958.413-1.43.108-.347.209-.5.395-.5a1.049,1.049,0,0,1,.431.15,7.984,7.984,0,0,0,2.741.82,4.391,4.391,0,0,0,.485.03,3.234,3.234,0,0,0,1.311-.269,1.394,1.394,0,0,0,.335-2.448,4.37,4.37,0,0,0-1.023-.6,23.957,23.957,0,0,1-2.8-1.257A3.959,3.959,0,0,1,9.527,11a4.172,4.172,0,0,1,3.052-3.866c.748-.269.754-.263.754-1.041,0-.263-.006-.527.006-.8.018-.586.114-.688.7-.706h.682c1.113,0,1.113.048,1.119,1.251.006.886.006.886.886,1.023a7.793,7.793,0,0,1,1.939.58.563.563,0,0,1,.365.754c-.156.539-.305,1.083-.473,1.616-.108.323-.209.473-.4.473a.961.961,0,0,1-.407-.126,6.119,6.119,0,0,0-2.711-.622c-.12,0-.245.006-.365.012a2.415,2.415,0,0,0-.82.168,1.162,1.162,0,0,0-.287,2.071,5.417,5.417,0,0,0,1.335.748,24.063,24.063,0,0,1,2.436,1.1A4.379,4.379,0,0,1,18.719,20.275Z" fill="#0078d4"/>
</svg>
