<svg xmlns="http://www.w3.org/2000/svg" width="32.504" height="32.262" viewBox="0 0 32.504 32.262">
  <g id="business-and-trade" transform="translate(0 -0.178)">
    <path id="Контур_2447" data-name="Контур 2447" d="M17.647,2.469,2.763.208A2.4,2.4,0,0,0,.84.736,2.422,2.422,0,0,0,0,2.551V31.086A1.358,1.358,0,0,0,1.354,32.44h4.4V25.33a2.364,2.364,0,0,1,2.37-2.37h3.386a2.364,2.364,0,0,1,2.37,2.37v7.11h5.756V4.812a2.371,2.371,0,0,0-1.991-2.343ZM7.449,19.913H5.417a1.016,1.016,0,0,1,0-2.031H7.449a1.016,1.016,0,0,1,0,2.031Zm0-4.063H5.417a1.016,1.016,0,1,1,0-2.031H7.449a1.016,1.016,0,1,1,0,2.031Zm0-4.063H5.417a1.016,1.016,0,1,1,0-2.031H7.449a1.016,1.016,0,1,1,0,2.031Zm0-4.063H5.417a1.016,1.016,0,1,1,0-2.031H7.449a1.016,1.016,0,1,1,0,2.031ZM14.22,19.913H12.189a1.016,1.016,0,0,1,0-2.031H14.22a1.016,1.016,0,0,1,0,2.031Zm0-4.063H12.189a1.016,1.016,0,0,1,0-2.031H14.22a1.016,1.016,0,0,1,0,2.031Zm0-4.063H12.189a1.016,1.016,0,1,1,0-2.031H14.22a1.016,1.016,0,1,1,0,2.031Zm0-4.063H12.189a1.016,1.016,0,0,1,0-2.031H14.22a1.016,1.016,0,0,1,0,2.031Z" fill="#0078d4"/>
    <path id="Контур_2448" data-name="Контур 2448" d="M25.143,11.37,15.5,9.351V29.19h9.142a2.373,2.373,0,0,0,2.37-2.37V13.686A2.358,2.358,0,0,0,25.143,11.37Zm-3.21,13.757H19.9a1.016,1.016,0,0,1,0-2.031h2.031a1.016,1.016,0,1,1,0,2.031Zm0-4.063H19.9a1.016,1.016,0,1,1,0-2.031h2.031a1.016,1.016,0,1,1,0,2.031Zm0-4.063H19.9a1.016,1.016,0,1,1,0-2.031h2.031a1.016,1.016,0,1,1,0,2.031Z" transform="translate(5.492 3.25)" fill="#0078d4"/>
  </g>
</svg>
