<svg xmlns="http://www.w3.org/2000/svg" xmlns:xlink="http://www.w3.org/1999/xlink" width="54.517" height="54.517" viewBox="0 0 54.517 54.517">
  <defs>
    <filter id="Ellipse_189" x="0" y="0" width="54.517" height="54.517" filterUnits="userSpaceOnUse">
      <feOffset dy="3" input="SourceAlpha"/>
      <feGaussianBlur stdDeviation="3" result="blur"/>
      <feFlood flood-opacity="0.161"/>
      <feComposite operator="in" in2="blur"/>
      <feComposite in="SourceGraphic"/>
    </filter>
  </defs>
  <g id="calendar" transform="translate(-711.138 -148.608)">
    <g transform="matrix(1, 0, 0, 1, 711.14, 148.61)" filter="url(#Ellipse_189)">
      <g id="Ellipse_189-2" data-name="Ellipse 189" transform="translate(9 6)" fill="#fff" stroke="#628ce8" stroke-width="2">
        <ellipse cx="18.258" cy="18.258" rx="18.258" ry="18.258" stroke="none"/>
        <ellipse cx="18.258" cy="18.258" rx="17.258" ry="17.258" fill="none"/>
      </g>
    </g>
    <g id="calendar-2" data-name="calendar" transform="translate(725.727 165.168)">
      <g id="Group_2607" data-name="Group 2607" transform="translate(5.411)">
        <path id="Path_7963" data-name="Path 7963" d="M118.953,258.591a.349.349,0,0,0-.349-.349h-1.219a.349.349,0,0,0-.349.349v1.219a.349.349,0,0,0,.349.349H118.6a.349.349,0,0,0,.349-.349v-1.219Z" transform="translate(-113.514 -250.097)" fill="#527bd5"/>
        <path id="Path_7964" data-name="Path 7964" d="M215.588,258.591a.349.349,0,0,0-.349-.349h-1.22a.349.349,0,0,0-.349.349v1.219a.349.349,0,0,0,.349.349h1.22a.349.349,0,0,0,.349-.349Z" transform="translate(-207.102 -250.097)" fill="#527bd5"/>
        <path id="Path_7965" data-name="Path 7965" d="M312.216,258.591a.349.349,0,0,0-.349-.349h-1.219a.349.349,0,0,0-.349.349v1.219a.349.349,0,0,0,.349.349h1.219a.349.349,0,0,0,.349-.349Z" transform="translate(-300.682 -250.097)" fill="#527bd5"/>
        <path id="Path_7966" data-name="Path 7966" d="M118.953,355.224a.349.349,0,0,0-.349-.349h-1.219a.349.349,0,0,0-.349.349v1.219a.349.349,0,0,0,.349.349H118.6a.349.349,0,0,0,.349-.349v-1.219Z" transform="translate(-113.514 -343.682)" fill="#527bd5"/>
        <path id="Path_7967" data-name="Path 7967" d="M215.588,355.224a.349.349,0,0,0-.349-.349h-1.22a.349.349,0,0,0-.349.349v1.219a.349.349,0,0,0,.349.349h1.22a.349.349,0,0,0,.349-.349Z" transform="translate(-207.102 -343.682)" fill="#527bd5"/>
        <path id="Path_7968" data-name="Path 7968" d="M312.216,355.224a.349.349,0,0,0-.349-.349h-1.22a.349.349,0,0,0-.349.349v1.219a.349.349,0,0,0,.349.349h1.22a.349.349,0,0,0,.349-.349v-1.219Z" transform="translate(-300.682 -343.682)" fill="#527bd5"/>
        <path id="Path_7969" data-name="Path 7969" d="M19.126,54.149v1.862a1.521,1.521,0,0,1-1.525,1.52H16.64a1.529,1.529,0,0,1-1.534-1.52V54.142H10.771v1.869a1.529,1.529,0,0,1-1.534,1.52H8.276a1.521,1.521,0,0,1-1.525-1.52V54.149a1.386,1.386,0,0,0-1.34,1.379V66.442a1.387,1.387,0,0,0,1.38,1.388H19.086a1.389,1.389,0,0,0,1.38-1.388V55.528A1.386,1.386,0,0,0,19.126,54.149Zm-.447,11.614a.6.6,0,0,1-.6.6H7.768a.6.6,0,0,1-.6-.6V60.125a.6.6,0,0,1,.6-.6H18.082a.6.6,0,0,1,.6.6v5.638Z" transform="translate(-5.411 -52.434)" fill="#527bd5"/>
        <path id="Path_7970" data-name="Path 7970" d="M80.073,4.1h.951a.523.523,0,0,0,.523-.523V.523A.523.523,0,0,0,81.024,0h-.951a.523.523,0,0,0-.523.523V3.576A.523.523,0,0,0,80.073,4.1Z" transform="translate(-77.212)" fill="#527bd5"/>
        <path id="Path_7971" data-name="Path 7971" d="M344.981,4.1h.951a.523.523,0,0,0,.523-.523V.523A.523.523,0,0,0,345.932,0h-.951a.523.523,0,0,0-.523.523V3.576A.523.523,0,0,0,344.981,4.1Z" transform="translate(-333.765)" fill="#527bd5"/>
      </g>
    </g>
  </g>
</svg>
