<svg xmlns="http://www.w3.org/2000/svg" width="10.78" height="12.32" viewBox="0 0 10.78 12.32">
  <path id="calendar-date" d="M0,11.165A1.155,1.155,0,0,0,1.155,12.32h8.47a1.155,1.155,0,0,0,1.155-1.155V4.62H0ZM7.7,6.449a.29.29,0,0,1,.289-.289h.963a.29.29,0,0,1,.289.289v.963a.29.29,0,0,1-.289.289H7.989A.29.29,0,0,1,7.7,7.411Zm0,3.08a.29.29,0,0,1,.289-.289h.963a.29.29,0,0,1,.289.289v.963a.29.29,0,0,1-.289.289H7.989a.29.29,0,0,1-.289-.289ZM4.62,6.449a.29.29,0,0,1,.289-.289h.963a.29.29,0,0,1,.289.289v.963a.29.29,0,0,1-.289.289H4.909a.29.29,0,0,1-.289-.289Zm0,3.08a.29.29,0,0,1,.289-.289h.963a.29.29,0,0,1,.289.289v.963a.29.29,0,0,1-.289.289H4.909a.29.29,0,0,1-.289-.289ZM1.54,6.449a.29.29,0,0,1,.289-.289h.963a.29.29,0,0,1,.289.289v.963a.29.29,0,0,1-.289.289H1.829a.29.29,0,0,1-.289-.289Zm0,3.08a.29.29,0,0,1,.289-.289h.963a.29.29,0,0,1,.289.289v.963a.29.29,0,0,1-.289.289H1.829a.29.29,0,0,1-.289-.289ZM9.625,1.54H8.47V.385A.386.386,0,0,0,8.085,0h-.77A.386.386,0,0,0,6.93.385V1.54H3.85V.385A.386.386,0,0,0,3.465,0H2.7A.386.386,0,0,0,2.31.385V1.54H1.155A1.155,1.155,0,0,0,0,2.7V3.85H10.78V2.7A1.155,1.155,0,0,0,9.625,1.54Z" fill="#41a34e"/>
</svg>
