<svg id="car-accident" xmlns="http://www.w3.org/2000/svg" width="36.62" height="25.729" viewBox="0 0 36.62 25.729">
  <path id="Контур_7779" data-name="Контур 7779" d="M183.621,84.212l4.6,0a.306.306,0,0,1,.306.306V88.2a.306.306,0,0,0,.565.162l4.6-7.537a.306.306,0,0,0-.259-.467l-4.6-.01a.306.306,0,0,1-.305-.306V76.367a.306.306,0,0,0-.566-.161l-4.6,7.539A.306.306,0,0,0,183.621,84.212Z" transform="translate(-170.192 -76.061)" fill="#0078d4"/>
  <path id="Контур_7780" data-name="Контур 7780" d="M94.41,169.352h7.067a71.972,71.972,0,0,1-8.314-6.047,7.174,7.174,0,0,0-.909-.615v4.5A2.157,2.157,0,0,0,94.41,169.352Z" transform="translate(-85.649 -156.488)" fill="#0078d4"/>
  <path id="Контур_7781" data-name="Контур 7781" d="M121.154,348.19a3.124,3.124,0,1,0,3.124,3.124A3.127,3.127,0,0,0,121.154,348.19Zm0,4.1a.976.976,0,1,1,.976-.976A.977.977,0,0,1,121.154,352.29Z" transform="translate(-109.58 -328.708)" fill="#0078d4"/>
  <path id="Контур_7782" data-name="Контур 7782" d="M464.945,210.926v2.068a1.074,1.074,0,0,0,1.074,1.074h2.26v-4.216h-2.26A1.074,1.074,0,0,0,464.945,210.926Z" transform="translate(-431.66 -200.274)" fill="#0078d4"/>
  <path id="Контур_7783" data-name="Контур 7783" d="M31.428,149.515a9.721,9.721,0,0,0-9.686,9.649l.01,2.566a3.264,3.264,0,0,0-1.323-2.41l-.08-.053H8.761a4.309,4.309,0,0,1-4.3-4.3v-5.31a7.128,7.128,0,0,0-1.394-.138H0v15.918H6.5a5.27,5.27,0,0,1,10.146,0h4.039a1.074,1.074,0,0,0,1.074-1.074v-.428l0,.428a1.084,1.084,0,0,0,1.072,1.074h1.815a5.27,5.27,0,0,1,10.146,0h1.825V160.2h-2.26a3.225,3.225,0,0,1-3.222-3.222v-2.068a3.225,3.225,0,0,1,3.222-3.222h2.259v-2.172H31.428Z" transform="translate(0 -144.256)" fill="#0078d4"/>
  <path id="Контур_7784" data-name="Контур 7784" d="M374.65,348.19a3.124,3.124,0,1,0,3.124,3.124A3.127,3.127,0,0,0,374.65,348.19Zm0,4.1a.976.976,0,1,1,.976-.976A.977.977,0,0,1,374.65,352.29Z" transform="translate(-344.929 -328.708)" fill="#0078d4"/>
</svg>
