<svg xmlns="http://www.w3.org/2000/svg" width="32.105" height="31.822" viewBox="0 0 32.105 31.822">
  <g id="Сгруппировать_2393" data-name="Сгруппировать 2393" transform="translate(612.288 -2442)">
    <path id="Контур_1746" data-name="Контур 1746" d="M359.941,158.832a2.067,2.067,0,0,0-1.654-2.018l-.468-.094v.52a1.6,1.6,0,0,0,1.594,1.591h.528Zm-8.486,6.895a1.06,1.06,0,1,0-1.06-1.06A1.06,1.06,0,0,0,351.455,165.727Zm-16.446-1.591h9.576a6.845,6.845,0,0,1,.165-1.06h-9.741ZM336.6,149.82v4.236h9.447a13.537,13.537,0,0,0-9.447-4.236Z" transform="translate(-947.297 2305.448)" fill="#0078d4"/>
    <path id="Контур_1747" data-name="Контур 1747" d="M351.455,159.122a6.9,6.9,0,0,1,5.8,3.185h2.684v-1.062h-.528a2.651,2.651,0,0,1-2.653-2.651v-.732l-7-1.4a.531.531,0,0,1-.314-.193,18.769,18.769,0,0,0-14.434-7.22v14.318h10.08a6.9,6.9,0,0,1,6.367-4.244Zm-13.264-.529h-2.122v-1.062h2.122Zm-2.122-2.122a.531.531,0,0,1-.531-.531v-5.3a.534.534,0,0,1,.531-.531h.1a14.6,14.6,0,0,1,11.45,5.5.531.531,0,0,1-.413.864Z" transform="translate(-947.297 2304.094)" fill="#0078d4"/>
    <path id="Контур_1748" data-name="Контур 1748" d="M343.349,153.865A3.71,3.71,0,1,0,346.9,156.5,3.721,3.721,0,0,0,343.349,153.865Zm0,5.835a2.119,2.119,0,1,1,2.117-2.122,2.119,2.119,0,0,1-2.117,2.122Z" transform="translate(-939.191 2312.536)" fill="#0078d4"/>
    <path id="Контур_1749" data-name="Контур 1749" d="M348.416,167.279a5.849,5.849,0,0,0-5.81,5.3h1.065a4.775,4.775,0,0,1,9.488,0h1.065A5.849,5.849,0,0,0,348.416,167.279Zm9.017,3.182H354.78a6.893,6.893,0,0,1,.506,2.122h2.147a1.061,1.061,0,0,0,0-2.122Zm3.713-4.833a8.2,8.2,0,0,0-.052-.939l-.361-3.245a1.531,1.531,0,0,0-1.153-1.321l-1.085-.27.952-1.594a6.017,6.017,0,0,1,1.646-1.781l2.268-1.618a1.06,1.06,0,0,0,.388-1.175,1.04,1.04,0,0,0-1-.727,1.5,1.5,0,0,0-.955.347l-2.031,1.69A6.628,6.628,0,0,0,358.5,156.4L356.9,158.79l-2.122-2.122,1.062-.264a2.84,2.84,0,0,0,1.668-1.175l1.206-1.811a1.838,1.838,0,0,0,.308-1.018,1.035,1.035,0,0,0-1.9-.575l-1.225,1.839a1.979,1.979,0,0,1-1.649.883h-.721l-.017,0a2.122,2.122,0,1,0-2.992-2.995,2.123,2.123,0,0,0,.952,3.41l-.019,0-2.51,1.569-1.06.663-1.263-1.263a1.126,1.126,0,0,0-1.591,1.594l1.39,1.8a1.349,1.349,0,0,0,1.8.295l2.846-1.9a7.679,7.679,0,0,0,6.867,4.242h.562l.418,3.779a1.12,1.12,0,0,0,2.232-.124Zm-24.181-12.772,3.713,2.653.617-.864-2.367-1.69h3.121a.541.541,0,0,0,.308-.1.514.514,0,0,0,.193-.264l.658-1.968,1.018,2.037.95-.473-1.591-3.182a.531.531,0,0,0-.98.066l-.939,2.821h-4.393a.542.542,0,0,0-.506.369.537.537,0,0,0,.2.595Zm10.388-5.816,1.178,1.473a.529.529,0,0,0,.65.143l3.1-1.55-.655,1.968,1.007.336,1.06-3.185a.526.526,0,0,0-.154-.57.523.523,0,0,0-.586-.072l-3.862,1.929-1.855-2.318a.531.531,0,0,0-.845.028.523.523,0,0,0-.1.305v4.244h1.06Zm14.068,21.4-.545.911,2.651,1.594.548-.911-2.653-1.594Zm-.295,1.88-1.021.292,1.062,3.713,1.018-.289-1.06-3.716Z" transform="translate(-944.258 2297)" fill="#0078d4"/>
  </g>
</svg>
