<svg id="circular-economy" xmlns="http://www.w3.org/2000/svg" width="22.237" height="22.237" viewBox="0 0 22.237 22.237">
  <path id="Контур_2418" data-name="Контур 2418" d="M35.822,362H32v3.909h1.346v-1.265a11.086,11.086,0,0,0,8.373,3.871,11.289,11.289,0,0,0,2.789-.349l-.326-1.262a9.967,9.967,0,0,1-2.463.308A9.809,9.809,0,0,1,33.91,363.3h1.912Z" transform="translate(-30.61 -346.278)" fill="#fff"/>
  <path id="Контур_2419" data-name="Контур 2419" d="M193.814,1.3a9.808,9.808,0,0,1,7.809,3.909h-1.936v1.3h3.822V2.606h-1.346V3.867A11.043,11.043,0,0,0,193.814,0,11.484,11.484,0,0,0,191,.349l.326,1.262A10.163,10.163,0,0,1,193.814,1.3Z" transform="translate(-182.705)" fill="#fff"/>
  <path id="Контур_2420" data-name="Контур 2420" d="M367.212,194.78a9.742,9.742,0,0,1-3.909,7.774v-1.911H362v3.822h3.909v-1.346h-1.257a11.031,11.031,0,0,0,3.863-8.339,11.225,11.225,0,0,0-.349-2.78l-1.262.324A9.894,9.894,0,0,1,367.212,194.78Z" transform="translate(-346.278 -183.661)" fill="#fff"/>
  <path id="Контур_2421" data-name="Контур 2421" d="M0,42.705a11.224,11.224,0,0,0,.349,2.78l1.262-.324A9.794,9.794,0,0,1,5.212,34.9v1.947h1.3V33.021H2.606v1.345H3.873A11.012,11.012,0,0,0,0,42.705Z" transform="translate(0 -31.587)" fill="#fff"/>
  <path id="Контур_2422" data-name="Контур 2422" d="M125.863,121a5.863,5.863,0,1,0,5.863,5.863A5.87,5.87,0,0,0,125.863,121Zm0,5.212a1.954,1.954,0,0,1,.655,3.8v1.416h-1.3V130.01a1.958,1.958,0,0,1-1.306-1.844h1.3a.651.651,0,1,0,.651-.651,1.954,1.954,0,0,1-.648-3.8V122.3h1.3v1.416a1.958,1.958,0,0,1,1.3,1.841h-1.3a.651.651,0,1,0-.651.651Z" transform="translate(-114.788 -115.745)" fill="#fff"/>
</svg>
