<svg xmlns="http://www.w3.org/2000/svg" width="19.682" height="19.682" viewBox="0 0 19.682 19.682">
  <g id="clock__saidbar" transform="translate(-27.318 -336.189)">
    <g id="clock" transform="translate(27.318 336.189)">
      <g id="Group_3" data-name="Group 3" transform="translate(0 0)">
        <g id="Group_2" data-name="Group 2">
          <path id="Path_10" data-name="Path 10" d="M16.8,2.882A9.841,9.841,0,0,0,2.882,16.8,9.841,9.841,0,0,0,16.8,2.882ZM9.841,17.751A7.918,7.918,0,0,1,1.932,9.841c0-.007,0-.014,0-.021s0,0,0-.005,0-.006,0-.009a7.918,7.918,0,0,1,7.8-7.872h.108a7.909,7.909,0,1,1,0,15.819Z" transform="translate(0 0)" fill="#fff"/>
        </g>
      </g>
      <g id="Group_5" data-name="Group 5" transform="translate(3.119 3.115)">
        <g id="Group_4" data-name="Group 4">
          <path id="Path_11" data-name="Path 11" d="M93.872,88.23a.582.582,0,0,1,0-1.165h.7a6.756,6.756,0,0,0-6.208-6.037v.611a.582.582,0,1,1-1.165,0v-.6a6.756,6.756,0,0,0-6.054,6.1h.629a.582.582,0,1,1,0,1.165h-.633a6.756,6.756,0,0,0,6.14,6.164v-.738a.582.582,0,1,1,1.165,0v.738a6.755,6.755,0,0,0,6.146-6.244Zm-3.651-2.009-1.945,1.946a.582.582,0,0,1-.824,0L84.066,84.78a.582.582,0,0,1,.823-.824l2.975,2.975L89.4,85.4a.582.582,0,1,1,.823.823Z" transform="translate(-81.142 -81.029)" fill="#fff"/>
        </g>
      </g>
    </g>
  </g>
</svg>
