<svg xmlns="http://www.w3.org/2000/svg" width="36.137" height="27.525" viewBox="0 0 36.137 27.525">
  <g id="crime-scene_1_" data-name="crime-scene (1)" transform="translate(0 -61.009)">
    <g id="Сгруппировать_2296" data-name="Сгруппировать 2296" transform="translate(2.16 68.525)">
      <g id="Сгруппировать_2295" data-name="Сгруппировать 2295">
        <path id="Контур_2427" data-name="Контур 2427" d="M45.124,167.5,30.6,169.723l4.912,3.176,15.874-2.244Z" transform="translate(-30.599 -167.5)" fill="#fff"/>
      </g>
    </g>
    <g id="Сгруппировать_2298" data-name="Сгруппировать 2298" transform="translate(0 61.009)">
      <g id="Сгруппировать_2297" data-name="Сгруппировать 2297">
        <path id="Контур_2428" data-name="Контур 2428" d="M5.272,61.178a1.079,1.079,0,0,0-1.461.3L0,67.191,11.794,65.37Z" transform="translate(0 -61.009)" fill="#fff"/>
      </g>
    </g>
    <g id="Сгруппировать_2300" data-name="Сгруппировать 2300" transform="translate(24.343 82.352)">
      <g id="Сгруппировать_2299" data-name="Сгруппировать 2299">
        <path id="Контур_2429" data-name="Контур 2429" d="M344.9,365.22l6.521,4.193a1.075,1.075,0,0,0,1.461-.3L356.7,363.4Z" transform="translate(-344.902 -363.399)" fill="#fff"/>
      </g>
    </g>
    <g id="Сгруппировать_2302" data-name="Сгруппировать 2302" transform="translate(12.387 75.089)">
      <g id="Сгруппировать_2301" data-name="Сгруппировать 2301">
        <path id="Контур_2430" data-name="Контур 2430" d="M191.373,260.5,175.5,262.744l5.315,3.409,15.852-2.223Z" transform="translate(-175.499 -260.5)" fill="#fff"/>
      </g>
    </g>
    <g id="Сгруппировать_2304" data-name="Сгруппировать 2304" transform="translate(2.583 76.028)">
      <g id="Сгруппировать_2303" data-name="Сгруппировать 2303">
        <path id="Контур_2431" data-name="Контур 2431" d="M40.444,273.8,36.6,276.293l10.133,1.551Z" transform="translate(-36.599 -273.802)" fill="#fff"/>
      </g>
    </g>
    <g id="Сгруппировать_2306" data-name="Сгруппировать 2306" transform="translate(0 82.352)">
      <g id="Сгруппировать_2305" data-name="Сгруппировать 2305">
        <path id="Контур_2432" data-name="Контур 2432" d="M0,363.4l3.811,5.717a1.075,1.075,0,0,0,1.461.3l6.522-4.192Z" transform="translate(0 -363.4)" fill="#fff"/>
      </g>
    </g>
    <g id="Сгруппировать_2308" data-name="Сгруппировать 2308" transform="translate(24.343 61.009)">
      <g id="Сгруппировать_2307" data-name="Сгруппировать 2307">
        <path id="Контур_2433" data-name="Контур 2433" d="M352.884,61.474a1.079,1.079,0,0,0-1.461-.3L344.9,65.37l11.794,1.821Z" transform="translate(-344.901 -61.009)" fill="#fff"/>
      </g>
    </g>
    <g id="Сгруппировать_2310" data-name="Сгруппировать 2310" transform="translate(22.727 69.026)">
      <g id="Сгруппировать_2309" data-name="Сгруппировать 2309">
        <path id="Контур_2434" data-name="Контур 2434" d="M322.008,174.6l6.977,4.485,4.273-2.763Z" transform="translate(-322.008 -174.603)" fill="#fff"/>
      </g>
    </g>
  </g>
</svg>
