<svg xmlns="http://www.w3.org/2000/svg" width="36.538" height="23.496" viewBox="0 0 36.538 23.496">
  <g id="criminal-hand-subtracting-an-object-from-a-pocket" transform="translate(0 -19.734)">
    <path id="Контур_7731" data-name="Контур 7731" d="M23.69,29.5,24.2,40.513l5.943,2.717,5.888-2.718L36.538,29.5ZM35.709,40.3l-5.569,2.57L24.519,40.3,24.035,29.83H36.192Zm-6.394,1.642h.33a2.367,2.367,0,0,1,.043-.461l-.324-.064A2.716,2.716,0,0,0,29.315,41.938Zm2.567-2.506.056.326a7.31,7.31,0,0,1,1.046-.1l-.009-.33A7.682,7.682,0,0,0,31.882,39.432Zm-1.823.773a2.859,2.859,0,0,0-.755-.468l-.131.3a2.379,2.379,0,0,1,.823.562l.062-.057.064.058a2.37,2.37,0,0,1,.823-.563l-.131-.3A2.891,2.891,0,0,0,30.058,40.2Zm4.329-.814c-.083-.01-.191-.02-.319-.031l-.027.329c.294.024.477.052.48.053l.185.028.021-.682-.33-.01Zm.185-5.822.33.01.035-1.1-.33-.01Zm-.07,2.2.33.011.035-1.1-.33-.011Zm-.07,2.2.33.01.035-1.1-.33-.01Zm-.106-6.935h.325l-.01.325.33.01.021-.666h-.667v.331Zm-4.742-.33h-.948v.33h.948Zm-1.9,0h-.948v.33h.948Zm4.742.33h.948v-.33H32.43Zm-1.9,0h.948v-.33h-.948Zm-5.068,0h.325v-.33h-.666l.021.666.33-.01Zm.115,3.63-.33.011.035,1.1.33-.011Zm-.07-2.2-.33.01.035,1.1.33-.01Zm.139,4.407-.33.01.035,1.1.33-.01Zm.08,2.516-.01-.313-.33.01.021.682.185-.028s.186-.028.48-.053l-.027-.329C25.921,39.37,25.813,39.381,25.73,39.39Zm1.4.269a7.3,7.3,0,0,1,1.046.1l.056-.326a7.714,7.714,0,0,0-1.093-.1Zm3.3,1.818a2.4,2.4,0,0,1,.044.461h.33a2.773,2.773,0,0,0-.049-.526Zm-6.257-13.5a3.642,3.642,0,0,0,.736-.354l1.853,1.853h6.193L34,28.421l-6.59-6.59L25.147,24.1a2.053,2.053,0,0,0-.328-.44c-1.459-1.871-4.145-2.8-6.594-3.2-1.631-.264-2.206-.975-3.172-.643a3.742,3.742,0,0,0-1.167.707c-.06.052-.114.1-.159.147-.111.109-.176.186-.2.215l-.161.165h0l-.236.242-.28.285-.151.154,0,0-.134.134c-2.083,2.083-2.57,2.374-4.276,3.9a14.11,14.11,0,0,1-3.611,2.382l-4.3,1.321c-1.6,3.555,2.368,6,2.368,6l4.633-2.482a7.135,7.135,0,0,1,2.262-.726c3.4-.184,7.732-3.035,7.1-2.4s-.767.938-.254,1.681S18.6,30.8,18.6,30.8s.092.341.773.8c.2.134.472-.017.751-.3A10.513,10.513,0,0,0,21.5,29.256s.241,1.191,1.261.7a1.185,1.185,0,0,0,.337-.232c.408-.408.232-.958.224-1.237a.214.214,0,0,1,.032-.153.065.065,0,0,1,.014-.012,1.569,1.569,0,0,1,.155-.083c.1-.047.207-.095.312-.138C24.017,28.03,24.172,27.973,24.172,27.973ZM21.46,25.38c-2.848.674-3.56.309-3.56.309a.845.845,0,0,1,.043-1.279,2.125,2.125,0,0,1,.323-.259c.088-.029.182-.056.28-.08s.182-.044.277-.062A13.627,13.627,0,0,1,20.8,23.8l.143.1a2.789,2.789,0,0,1,.7.481l.623.432a5.269,5.269,0,0,1,1.409.006,3.728,3.728,0,0,1,.375.073c.087.022.165.048.244.073l-.341.341c-.083-.021-.165-.042-.258-.058a3.814,3.814,0,0,0-.4-.048A6.146,6.146,0,0,0,21.46,25.38Z" transform="translate(0)" fill="#0078d4"/>
  </g>
</svg>
