<svg xmlns="http://www.w3.org/2000/svg" width="31.374" height="30.512" viewBox="0 0 31.374 30.512">
  <g id="criminals-silhouettes-of-an-adult-with-a-child" transform="translate(0 -1.445)">
    <g id="Сгруппировать_2395" data-name="Сгруппировать 2395" transform="translate(0 1.445)">
      <circle id="Эллипс_204" data-name="Эллипс 204" cx="3.401" cy="3.401" r="3.401" transform="translate(18.336)" fill="#0078d4"/>
      <path id="Контур_7729" data-name="Контур 7729" d="M30.681,28.864l-5.738-1.591-3.132-2.736a1.335,1.335,0,0,0-.108-.086,1.429,1.429,0,0,0-.6-.249,3.1,3.1,0,0,0-2.537-.083,1.436,1.436,0,0,0-.622.159L14.225,26.2l-.114.059a1.072,1.072,0,0,0-.524.615L12.648,29.7l-.46,1.424-.225.723-.111.373-.058.208-.035.137a1.719,1.719,0,0,0-.042.354.943.943,0,0,0,.095.375L8.9,34.551l-2.61-.732a1.79,1.79,0,0,0-1.487-.339.815.815,0,0,0-.367.025l-2.315.713-.071.022a.62.62,0,0,0-.362.3L.865,36.056l-.407.766-.2.391-.1.2-.035.072-.044.1a2.042,2.042,0,0,0-.069.209.547.547,0,1,0,1.083.152.059.059,0,0,1,.024.016.013.013,0,0,1,0,.006s0,0,0,0l.014-.022.111-.175.23-.353.474-.712.782-1.154.5-.1L2.312,38.33a1.8,1.8,0,0,0-.069.771.912.912,0,0,0-.068.305L2.1,41.636.159,44.409a.594.594,0,0,0,.932.733l2.427-2.749a.652.652,0,0,0,.16-.355l.009-.077.156-1.292c.027,0,.055.005.081.006l1.979,2.3L5.422,45.5a.594.594,0,0,0,1.15.287l.886-2.848a.681.681,0,0,0-.1-.6l-.043-.059-1.77-2.431a1.785,1.785,0,0,0,.21-.434l1.15-3.631c.016-.051.029-.1.04-.153l1.84.36.056.011a.629.629,0,0,0,.417-.062L12.9,34.018a.547.547,0,0,0,.269-.341.941.941,0,0,0,.438-.829.405.405,0,0,1,0,.173l-.005.02,0-.009.007-.017.013-.035.056-.145.134-.328.284-.673.589-1.355.976-2.2.811-.322-.67,5.166a3.1,3.1,0,0,0,.116,1.323,1.557,1.557,0,0,0-.02.547l.558,3.869-2.748,7.461a1.024,1.024,0,0,0,1.888.789l3.548-7.569a1.151,1.151,0,0,0,.107-.553l-.006-.118-.13-2.238c.049,0,.1-.008.147-.013L23.3,39.908l-.272,6.569a1.024,1.024,0,0,0,2.039.167l.886-7.232a1.221,1.221,0,0,0-.364-1.02l-.077-.073-3.741-3.584a3.125,3.125,0,0,0,.218-.808l.68-5.238.918.659.1.07a.978.978,0,0,0,.392.165L30.259,30.7a.945.945,0,0,0,.422-1.841Z" transform="translate(0 -17.189)" fill="#0078d4"/>
      <path id="Контур_7730" data-name="Контур 7730" d="M18.019,47.571a1.969,1.969,0,0,0,2.55-2.511h0c.733.186.8-1.416.406-.856-.183.264-.541.234-.868.129a1.97,1.97,0,1,0-2.089,3.238Z" transform="translate(-11.747 -31.127)" fill="#0078d4"/>
    </g>
  </g>
</svg>
