<svg xmlns="http://www.w3.org/2000/svg" width="23.744" height="38.965" viewBox="0 0 23.744 38.965">
  <g id="criminal-carrying-money-bag-at-his-back" transform="translate(-23.026 0)">
    <path id="Контур_7728" data-name="Контур 7728" d="M46.167,10.408a1.214,1.214,0,0,0-.873-.169c-.026-.138-.106.222-.258.1A7.019,7.019,0,0,0,42.51,8.77l-.2-.041a4.371,4.371,0,1,0-3.77-2.33,11.527,11.527,0,0,0-1.165-.657,14.171,14.171,0,0,0-4.7-.918c-3.371-.266-8.78,2.383-9.493,5.869-.755,3.7,1.3,7.244,4.58,7.914,2.448.322,4.159-1.144,5.334-3.032L32.06,18.855a3.977,3.977,0,0,0-.154,1.7,2,2,0,0,0-.148.686l-.173,5.014-5.163,8.8a1.314,1.314,0,0,0,2.206,1.424l6.2-8.758a1.491,1.491,0,0,0,.26-.674l.019-.15.344-2.857c.063.007.127.013.189.017l4.353,5.068-1.834,8.237a1.314,1.314,0,0,0,2.539.674l2.76-8.936a1.566,1.566,0,0,0-.228-1.371l-.08-.11-3.916-5.379a4.019,4.019,0,0,0,.46-.97L41.86,14.43l1.161.995.191.165a1.457,1.457,0,0,0,2.31-.612l1.135-3.126A1.224,1.224,0,0,0,46.167,10.408ZM31.034,11.493a5.1,5.1,0,0,0-1.4-1.1c-.922-.5-1.413-.313-1.538.015-.163.426.2.879,1.128,1.74,1.1,1.014,1.563,1.778,1.285,2.506-.247.647-1.137.9-2.424.365l-.325.852L27,15.463l.316-.827a6.14,6.14,0,0,1-1.695-1.355l.5-.393a5.609,5.609,0,0,0,1.59,1.289c.85.461,1.554.438,1.732-.029.172-.45-.189-.982-.981-1.709-1.1-.991-1.708-1.777-1.436-2.49.26-.68,1.164-.811,2.312-.336l.316-.827.743.4-.3.795a5.667,5.667,0,0,1,1.448,1.132Zm13.247-.4-.416.651-1.339-1.4a3.493,3.493,0,0,1,1.42.6A.818.818,0,0,0,44.282,11.092ZM35.439,8.821c.188-.5.746-.556,1.409-.479a4,4,0,0,0-1.525,1.149C35.4,9.072,35.439,8.821,35.439,8.821Z" transform="translate(0 0)" fill="#0078d4"/>
  </g>
</svg>
