<svg id="customs" xmlns="http://www.w3.org/2000/svg" width="29.749" height="29.749" viewBox="0 0 29.749 29.749">
  <path id="Контур_7771" data-name="Контур 7771" d="M482,376h1.743v7.9H482Zm0,0" transform="translate(-453.995 -354.153)" fill="#0078d4"/>
  <path id="Контур_7772" data-name="Контур 7772" d="M362,286h5.229v3.486H362Zm0,0" transform="translate(-340.967 -269.383)" fill="#0078d4"/>
  <path id="Контур_7773" data-name="Контур 7773" d="M482,286h1.743v3.486H482Zm0,0" transform="translate(-453.995 -269.383)" fill="#0078d4"/>
  <path id="Контур_7774" data-name="Контур 7774" d="M302,286h1.743v3.486H302Zm0,0" transform="translate(-284.453 -269.383)" fill="#0078d4"/>
  <path id="Контур_7775" data-name="Контур 7775" d="M75,150h7.03v7.089H75Zm0,0" transform="translate(-70.642 -141.285)" fill="#0078d4"/>
  <path id="Контур_7776" data-name="Контур 7776" d="M75,302h7.03v1.743H75Zm0,0" transform="translate(-70.642 -284.453)" fill="#0078d4"/>
  <path id="Контур_7777" data-name="Контур 7777" d="M0,6.972H15.8V0H0ZM12.812,4.358H2.615V2.615h10.2Zm0,0" fill="#0078d4"/>
  <path id="Контур_7778" data-name="Контур 7778" d="M13.131,150v12.318H2.615V150H0v21.033H15.8V150Zm0,0" transform="translate(0 -141.285)" fill="#0078d4"/>
</svg>
