<svg xmlns="http://www.w3.org/2000/svg" width="31.054" height="38.067" viewBox="0 0 31.054 38.067">
  <g id="criminal-with-label" transform="translate(-8.916)">
    <path id="Контур_7807" data-name="Контур 7807" d="M38.444,18.643c-.483,2.379-1.209,6.182-2.041,9.963a61.2,61.2,0,0,1-1.722,6.384c-.562,1.667-1.532,3.116-3.618,3.076a4.669,4.669,0,0,1-4.34-3.154c-1.251-2.808-.536-5.276,2.115-6.736,2.673-1.472,3.033-4.032,3.456-6.607a5.125,5.125,0,0,0-2.458-5.582A7.077,7.077,0,0,1,26.4,11.629a3.7,3.7,0,0,1,.823-3.577A3.023,3.023,0,0,1,30.019,7C35.127,7.605,38.8,11.966,38.444,18.643ZM28.086,6.366a1.661,1.661,0,0,0,1.553-1.22,8.815,8.815,0,0,0,.218-3.726A1.94,1.94,0,0,0,27.868.01,1.926,1.926,0,0,0,25.739,1.2a5.015,5.015,0,0,0,1.038,4.608A1.961,1.961,0,0,0,28.086,6.366Zm3.481.056a1.071,1.071,0,0,0,.137.008,1.247,1.247,0,0,0,.893-.4,2.7,2.7,0,0,0,.653-1.915l-.005-.061c-.073-.684-.183-1.718-1.492-1.766H31.71a1.281,1.281,0,0,0-.925.425,2.564,2.564,0,0,0-.626,1.849C30.2,5.686,30.672,6.313,31.566,6.422Zm2.413,1.141a1,1,0,0,0,.339.059c.7,0,1.359-.717,1.563-1.705l.008-.055c.066-.565.176-1.51-.949-1.808a1.012,1.012,0,0,0-.262-.034,1.855,1.855,0,0,0-1.556,1.668C32.939,6.664,33.227,7.294,33.979,7.563ZM36.51,9.156a1.166,1.166,0,0,0,.365.059,1.613,1.613,0,0,0,1.46-1.4l.008-.057A1.243,1.243,0,0,0,37.337,6.2a1.171,1.171,0,0,0-.294-.037,1.582,1.582,0,0,0-1.452,1.368A1.3,1.3,0,0,0,36.51,9.156Zm2.582-.3a1.025,1.025,0,0,0-.254-.032A1.343,1.343,0,0,0,37.6,9.984a1.107,1.107,0,0,0,.787,1.39,1.011,1.011,0,0,0,.316.051,1.368,1.368,0,0,0,1.243-1.18l.007-.052A1.071,1.071,0,0,0,39.092,8.858ZM22.163,34.913a4.669,4.669,0,0,1-4.34,3.154c-2.088.04-3.057-1.408-3.619-3.076a61.252,61.252,0,0,1-1.722-6.384c-.832-3.78-1.558-7.583-2.041-9.963C10.087,11.967,13.758,7.606,18.867,7a3.015,3.015,0,0,1,1.974.376c-.168.117-.345.236-.526.358-1.171.784-2.627,1.761-2.808,3.039a1.94,1.94,0,0,0,.05.76,1.7,1.7,0,0,0,.354-.214,1.526,1.526,0,0,1-.015-.491c.156-1.105,1.532-2.027,2.637-2.767.231-.155.451-.3.652-.445a3.935,3.935,0,0,1,.473.438,3.7,3.7,0,0,1,.822,3.577,6.349,6.349,0,0,1-2.115,3.385l-.514,4.4-3.181-.372a5.986,5.986,0,0,0-.079,2.531c.423,2.575.783,5.135,3.456,6.607C22.7,29.637,23.414,32.1,22.163,34.913ZM15.92,18.274l3.424.4.713-6.1-1.549-1.587-.583.369a1.932,1.932,0,0,0,.376,1.011.4.4,0,0,1,.048-.01.426.426,0,1,1-.426.426.418.418,0,0,1,.054-.2,2.448,2.448,0,0,1-.427-.994l-.916.581ZM21.017.01a1.942,1.942,0,0,0-1.99,1.41,8.8,8.8,0,0,0,.219,3.726A1.661,1.661,0,0,0,20.8,6.366a1.964,1.964,0,0,0,1.309-.557A5.015,5.015,0,0,0,23.145,1.2,1.926,1.926,0,0,0,21.017.01ZM17.181,6.43a1.166,1.166,0,0,0,.137-.008c.895-.109,1.368-.736,1.408-1.863A2.568,2.568,0,0,0,18.1,2.71a1.282,1.282,0,0,0-.926-.425h-.042c-1.31.049-1.42,1.082-1.492,1.766l-.005.061a2.7,2.7,0,0,0,.653,1.915A1.245,1.245,0,0,0,17.181,6.43ZM13,5.917c.2.988.861,1.705,1.563,1.705a1.008,1.008,0,0,0,.339-.059c.752-.269,1.04-.9.856-1.874A1.855,1.855,0,0,0,14.206,4.02a1.029,1.029,0,0,0-.262.034C12.82,4.352,12.929,5.3,13,5.862ZM10.55,7.82a1.613,1.613,0,0,0,1.46,1.4,1.168,1.168,0,0,0,.365-.059,1.3,1.3,0,0,0,.92-1.629,1.582,1.582,0,0,0-1.453-1.368,1.171,1.171,0,0,0-.294.037,1.243,1.243,0,0,0-1.005,1.566Zm.734,2.164a1.343,1.343,0,0,0-1.238-1.159,1,1,0,0,0-.254.032,1.07,1.07,0,0,0-.861,1.336l.007.052a1.368,1.368,0,0,0,1.243,1.18,1.016,1.016,0,0,0,.315-.051A1.107,1.107,0,0,0,11.284,9.984Z" transform="translate(0 0)" fill="#0078d4"/>
  </g>
</svg>
