<svg xmlns="http://www.w3.org/2000/svg" width="34.83" height="34.829" viewBox="0 0 34.83 34.829">
  <g id="demand" transform="translate(0.001)">
    <path id="Контур_7762" data-name="Контур 7762" d="M4.172,6.168H3.084a.907.907,0,0,1,0-1.814H6.168a1.088,1.088,0,0,0,0-2.177H4.716V1.088a1.088,1.088,0,1,0-2.177,0V2.232a3.08,3.08,0,0,0,.544,6.113H4.172a.907.907,0,1,1,0,1.814H1.088a1.088,1.088,0,0,0,0,2.177H2.54v1.088a1.088,1.088,0,1,0,2.177,0V12.28a3.08,3.08,0,0,0-.544-6.113Z" transform="translate(0)" fill="#0078d4"/>
    <path id="Контур_7763" data-name="Контур 7763" d="M33.668,20.561,1.742,14.031a1.451,1.451,0,1,0-.582,2.843l13.8,2.824L10.851,25.61H8.708a1.451,1.451,0,1,0,0,2.9H26.122a1.451,1.451,0,0,0,0-2.9H23.979l-3.3-4.745L33.086,23.4a1.433,1.433,0,0,0,.292.03,1.451,1.451,0,0,0,.29-2.872ZM14.388,25.61l3.027-4.352,3.027,4.352Z" transform="translate(0 6.317)" fill="#0078d4"/>
    <path id="Контур_7764" data-name="Контур 7764" d="M29.38,16.009A9.861,9.861,0,0,0,27.19,14.9a10.6,10.6,0,0,0,2.667-6.149,1.089,1.089,0,0,0-.313-.908,1.078,1.078,0,0,0-.91-.306A11,11,0,0,0,23.59,9.429a14.6,14.6,0,0,0-2.226-6.915,1.13,1.13,0,0,0-1.862,0,14.591,14.591,0,0,0-2.226,6.915A10.953,10.953,0,0,0,12.231,7.54a1.088,1.088,0,0,0-1.223,1.215A10.6,10.6,0,0,0,13.675,14.9a9.861,9.861,0,0,0-2.19,1.106,1.14,1.14,0,0,0-.485.935,1.086,1.086,0,0,0,.491.908,7.965,7.965,0,0,0,7.491,1.038V19.4a1.451,1.451,0,0,0,2.9,0V18.89a7.772,7.772,0,0,0,2.722.525,8.618,8.618,0,0,0,4.769-1.562,1.115,1.115,0,0,0,0-1.844Z" transform="translate(4.963 0.913)" fill="#0078d4"/>
  </g>
</svg>
