<svg xmlns="http://www.w3.org/2000/svg" width="22.714" height="25.076" viewBox="0 0 22.714 25.076">
  <g id="evidence" transform="translate(-24.025 0)">
    <path id="Контур_2415" data-name="Контур 2415" d="M215.975,90h8.85v1.475h-8.85Z" transform="translate(-182.512 -85.575)" fill="#fff"/>
    <path id="Контур_2416" data-name="Контур 2416" d="M27.733,359.12,24.457,362.4a1.475,1.475,0,0,0,0,2.086h0a1.475,1.475,0,0,0,2.086,0l3.238-3.238A5.934,5.934,0,0,1,27.733,359.12Z" transform="translate(0 -341.462)" fill="#fff"/>
    <circle id="Эллипс_201" data-name="Эллипс 201" cx="4.425" cy="4.425" r="4.425" transform="translate(28.442 10.326)" fill="#fff"/>
    <path id="Контур_2417" data-name="Контур 2417" d="M125.975,0V10.262a5.9,5.9,0,1,1,2.19,10.159l-2.19,2.19v2.466h17.7V0Zm14.751,22.126h-5.9V20.651h5.9Zm0-2.95h-2.95V17.7h2.95Zm0-2.95h-2.95V14.751h2.95Zm0-2.95h-2.95V11.8h2.95Zm0-2.95h-4.719V8.85h4.719v1.475Zm0-2.95h-11.8V2.95h11.8Z" transform="translate(-96.937)" fill="#fff"/>
  </g>
</svg>
