<svg xmlns="http://www.w3.org/2000/svg" xmlns:xlink="http://www.w3.org/1999/xlink" width="29.598" height="29.598" viewBox="0 0 29.598 29.598">
  <defs>
    <clipPath id="clip-path">
      <path id="Контур_2156" data-name="Контур 2156" d="M0,0H29.6V29.6H0Z" transform="translate(389.427 474.547)" fill="#0078d4"/>
    </clipPath>
  </defs>
  <g id="Сгруппировать_2270" data-name="Сгруппировать 2270" transform="translate(-389.427 -474.547)" clip-path="url(#clip-path)">
    <path id="Контур_2155" data-name="Контур 2155" d="M394.953,480.542a3,3,0,1,0-3-3A3,3,0,0,0,394.953,480.542Zm21.108,9.536a14.563,14.563,0,0,0-3.948-2.084,1.95,1.95,0,0,0-1.4.024,1.919,1.919,0,0,0-.371-.035,9.756,9.756,0,0,0-4.165.982,3.851,3.851,0,0,0-.375-.653l-1.7-2.388a10.009,10.009,0,0,0,3.26-4.242c.844-2.049-2.388-3.188-3.226-1.155a6.119,6.119,0,0,1-2.028,2.6l-.931-1.305a39.282,39.282,0,0,0,5.087-4.451c1.479-1.551-1.1-3.646-2.573-2.1a38.288,38.288,0,0,1-6.55,5.333,2.612,2.612,0,0,0-.5.338,2.972,2.972,0,0,0-.287,4.109l5.056,7.082a2.31,2.31,0,0,0,1.16.839,11.78,11.78,0,0,1,2.969,9.043c-.105,2.2,3.315,2.4,3.42.2a15.757,15.757,0,0,0-2.368-9.654,7.011,7.011,0,0,1,4.046-1.268,1.68,1.68,0,0,0,.56-.1,11.4,11.4,0,0,1,2.761,1.459,1.685,1.685,0,0,0,2.337-.237A1.668,1.668,0,0,0,416.061,490.078Zm-18.754,12.868a22.417,22.417,0,0,1-3.118-.829,7.3,7.3,0,0,1-1.435-.677,1.882,1.882,0,0,1-.954-1.206,1.338,1.338,0,0,0,.164.835,2.738,2.738,0,0,0,.541.686,5.979,5.979,0,0,0,1.431.95,13.519,13.519,0,0,0,3.208,1.047,20.369,20.369,0,0,0,3.324.381,17.751,17.751,0,0,0,3.329-.178c-1.1-.173-2.191-.306-3.272-.463S398.367,503.167,397.307,502.946Zm3.109-2.055c-.634-.132-1.263-.267-1.869-.458a5.069,5.069,0,0,1-.868-.356,1.16,1.16,0,0,1-.628-.667,1.115,1.115,0,0,0,.378.983,3.488,3.488,0,0,0,.865.629,7.318,7.318,0,0,0,1.958.677,10.026,10.026,0,0,0,2.032.2,8.132,8.132,0,0,0,2.026-.235c-.666-.172-1.32-.288-1.969-.407l-1.925-.364Z" fill="#0078d4"/>
  </g>
</svg>
