<svg id="fireman" xmlns="http://www.w3.org/2000/svg" width="26.05" height="29.64" viewBox="0 0 26.05 29.64">
  <path id="Контур_7847" data-name="Контур 7847" d="M61,55.824a.868.868,0,0,0,.868.868h5.187l1.262-7.638a7.861,7.861,0,0,0-3.775,5.9H61.868A.868.868,0,0,0,61,55.824Z" transform="translate(-59.263 -46.214)" fill="#0078d4"/>
  <path id="Контур_7848" data-name="Контур 7848" d="M324.589,49.058l1.264,7.638h5.186a.868.868,0,0,0,0-1.737h-2.674A7.861,7.861,0,0,0,324.589,49.058Z" transform="translate(-307.593 -46.218)" fill="#0078d4"/>
  <path id="Контур_7849" data-name="Контур 7849" d="M201.336.726A.868.868,0,0,0,200.48,0h-2a.868.868,0,0,0-.856.726L196,10.478h6.946Zm-1.858,8.016a.868.868,0,1,1,.868-.868A.868.868,0,0,1,199.478,8.741Z" transform="translate(-186.453)" fill="#0078d4"/>
  <path id="Контур_7850" data-name="Контур 7850" d="M172.947,218.815V218.5a5.2,5.2,0,0,0,3.473-4.891V211H166v2.605a5.2,5.2,0,0,0,3.473,4.891v.319a1.737,1.737,0,0,0,3.473,0Z" transform="translate(-158.185 -198.785)" fill="#0078d4"/>
  <path id="Контур_7851" data-name="Контур 7851" d="M359.556,218.687V211h-2.605v2.605a6.874,6.874,0,0,1-1.171,3.811l3.643,1.214C359.469,218.646,359.51,218.67,359.556,218.687Z" transform="translate(-336.979 -198.785)" fill="#0078d4"/>
  <path id="Контур_7852" data-name="Контур 7852" d="M91,211v7.687c.046-.016.087-.041.134-.057l3.642-1.214a6.873,6.873,0,0,1-1.171-3.811V211Z" transform="translate(-87.527 -198.785)" fill="#0078d4"/>
  <path id="Контур_7853" data-name="Контур 7853" d="M273.5,347.094A3.478,3.478,0,0,1,271,349.6v5.32l8.613-6.949a6.041,6.041,0,0,0-.613-.259l-4.342-1.447A6.932,6.932,0,0,1,273.5,347.094Z" transform="translate(-257.106 -326.222)" fill="#0078d4"/>
  <path id="Контур_7854" data-name="Контур 7854" d="M100.823,349.6a3.478,3.478,0,0,1-2.5-2.509,6.925,6.925,0,0,1-1.157-.827l-4.342,1.447a6.046,6.046,0,0,0-.613.259l8.614,6.949Z" transform="translate(-88.666 -326.22)" fill="#0078d4"/>
  <path id="Контур_7855" data-name="Контур 7855" d="M33.017,393.1A6.18,6.18,0,0,0,31,397.661v1.455a.868.868,0,0,0,.868.868h9.681Z" transform="translate(-31 -370.345)" fill="#0078d4"/>
  <path id="Контур_7856" data-name="Контур 7856" d="M298.773,399.983h9.681a.868.868,0,0,0,.868-.868V397.66a6.18,6.18,0,0,0-2.018-4.56Z" transform="translate(-283.272 -370.343)" fill="#0078d4"/>
</svg>
