<svg xmlns="http://www.w3.org/2000/svg" xmlns:xlink="http://www.w3.org/1999/xlink" width="30.26" height="37.464" viewBox="0 0 30.26 37.464">
  <defs>
    <clipPath id="clip-path">
      <path id="Контур_2159" data-name="Контур 2159" d="M0,0H30.26V37.464H0Z" transform="translate(173.276 472.481)" fill="#0078d4"/>
    </clipPath>
  </defs>
  <g id="Сгруппировать_2271" data-name="Сгруппировать 2271" transform="translate(-173.276 -472.481)" clip-path="url(#clip-path)">
    <path id="Контур_2158" data-name="Контур 2158" d="M198.972,493.37a13.63,13.63,0,0,1-1.994-6.533,15.1,15.1,0,0,1,.567-4.38,12.64,12.64,0,0,0-1.429,1.208,14.545,14.545,0,0,0-3.8,6.405q0,.022-.009.043l.009-.043s2.3-11.125-4.1-16.306c-.531-.43-1.755-1.284-1.755-1.284s3.176,9.636-2.509,15.353c-1.119-5.653-7.026-5.723-7.026-5.723s.455,1.97.527,2.436c.957,6.145-1.977,8.089-2.572,13.9.068-.668.041-.4,0,0v.008a11.889,11.889,0,0,0,3.987,10.473,11.348,11.348,0,0,1,1.4-4.537,9.428,9.428,0,0,0,1.379-4.519,10.508,10.508,0,0,0-.392-3.031,9.065,9.065,0,0,1,.988.836,10.486,10.486,0,0,1,2.536,4.1l.022-.017c-.281-1.573-1.075-7.709,2.9-10.932.368-.3,1.215-.889,1.215-.889a10.931,10.931,0,0,0,2.706,11.054,7.747,7.747,0,0,1,1.684-5.343,4.385,4.385,0,0,1,1.78-1.159s-.314,1.364-.365,1.686c-.661,4.251,2.221,7.557,1.6,11.584a13.476,13.476,0,0,1-.511,2.183h.275A11.032,11.032,0,0,0,199.843,506c2.115-3.925,1.165-8.966-.871-12.626Z" transform="translate(0.482)" fill="#0078d4"/>
  </g>
</svg>
