<svg xmlns="http://www.w3.org/2000/svg" width="33.002" height="32.433" viewBox="0 0 33.002 32.433">
  <g id="flood" transform="translate(-1.998 -2)">
    <path id="Контур_7788" data-name="Контур 7788" d="M52.736,37.836l-1.422-1.422-1.261,1.261a.55.55,0,0,1-.389.161H47.691l-2.106,2.106.961,4.084,1.779-1.779a2.171,2.171,0,0,1-.312-1.11,2.2,2.2,0,0,1,2.2-2.2,2.171,2.171,0,0,1,1.11.312Z" transform="translate(-19.614 -15.486)" fill="#0078d4"/>
    <path id="Контур_7789" data-name="Контур 7789" d="M4.806,32.629l8.839-10.737a.55.55,0,0,1,.65-.152l12.7,5.671.638-2-14.284-6.25-10,11.963Z" transform="translate(-0.607 -7.723)" fill="#0078d4"/>
    <circle id="Эллипс_206" data-name="Эллипс 206" cx="1.1" cy="1.1" r="1.1" transform="translate(29.5 24.551)" fill="#0078d4"/>
    <path id="Контур_7790" data-name="Контур 7790" d="M28.968,39.965l.44.33a2.559,2.559,0,0,0,.44.26L27.483,30.5l-10.1-4.51-7.032,8.54L11.683,40.2l.124.093a2.823,2.823,0,0,0,3.3,0l.44-.33a3.535,3.535,0,0,1,.523-.325L15.2,35.955a4.4,4.4,0,0,1,8.566-2.015l1.279,5.624a3.965,3.965,0,0,1,3.918.4Z" transform="translate(-3.758 -10.794)" fill="#0078d4"/>
    <path id="Контур_7791" data-name="Контур 7791" d="M31.466,17.058l.517,2.2,3.779,1.654-1.1-4.686Z" transform="translate(-13.26 -6.401)" fill="#0078d4"/>
    <path id="Контур_7792" data-name="Контур 7792" d="M21.458,38.062a3.28,3.28,0,0,0-.406,2.493l.843,3.59a3.935,3.935,0,0,1,2.97.623l-1.88-8a3.274,3.274,0,0,0-1.527,1.3Z" transform="translate(-8.534 -15.644)" fill="#0078d4"/>
    <path id="Контур_7793" data-name="Контур 7793" d="M31.213,44.93l.156-.117-1.363-5.989a3.3,3.3,0,0,0-3.421-2.53l2.126,9.038a2.827,2.827,0,0,0,2.5-.4Z" transform="translate(-11.064 -15.429)" fill="#0078d4"/>
    <path id="Контур_7794" data-name="Контур 7794" d="M30.5,52.564l-.44.33a3.955,3.955,0,0,1-4.62,0l-.44-.33a2.823,2.823,0,0,0-3.3,0l-.44.33a3.955,3.955,0,0,1-4.62,0l-.44-.33a2.823,2.823,0,0,0-3.3,0l-.44.33a3.955,3.955,0,0,1-4.62,0l-.44-.33a2.823,2.823,0,0,0-3.3,0L3,53.389v3.025l.44-.33a3.953,3.953,0,0,1,4.62,0l.44.33a2.823,2.823,0,0,0,3.3,0l.44-.33a3.955,3.955,0,0,1,4.62,0l.44.33a2.823,2.823,0,0,0,3.3,0l.44-.33a3.85,3.85,0,0,1,4.62,0l.44.33a2.823,2.823,0,0,0,3.3,0l.44-.33a3.955,3.955,0,0,1,4.62,0l.44.33V53.389l-1.1-.825a2.825,2.825,0,0,0-3.3,0Z" transform="translate(-0.451 -22.514)" fill="#0078d4"/>
    <path id="Контур_7795" data-name="Контур 7795" d="M44.2,9.7a2.189,2.189,0,0,0,1.246-.389,2.717,2.717,0,0,0,4.108,0,2.2,2.2,0,1,0,1.792-3.935c0-.026,0-.051,0-.076a3.3,3.3,0,1,0-6.6,0c0,.027,0,.055,0,.079A2.165,2.165,0,0,0,44.2,5.3a2.2,2.2,0,1,0,0,4.4Z" transform="translate(-18)" fill="#0078d4"/>
    <path id="Контур_7796" data-name="Контур 7796" d="M58,19h1.1v2.2H58Z" transform="translate(-25.2 -7.65)" fill="#0078d4"/>
    <path id="Контур_7797" data-name="Контур 7797" d="M54,23h1.1v2.2H54Z" transform="translate(-23.4 -9.45)" fill="#0078d4"/>
    <path id="Контур_7798" data-name="Контур 7798" d="M49,21h1.1v2.2H49Z" transform="translate(-21.15 -8.55)" fill="#0078d4"/>
    <path id="Контур_7799" data-name="Контур 7799" d="M44,19h1.1v2.2H44Z" transform="translate(-18.9 -7.65)" fill="#0078d4"/>
    <path id="Контур_7800" data-name="Контур 7800" d="M26,6h1.1V8.2H26Z" transform="translate(-10.801 -1.8)" fill="#0078d4"/>
    <path id="Контур_7801" data-name="Контур 7801" d="M31,3h1.1V5.2H31Z" transform="translate(-13.05 -0.45)" fill="#0078d4"/>
    <path id="Контур_7802" data-name="Контур 7802" d="M36,6h1.1V8.2H36Z" transform="translate(-15.3 -1.8)" fill="#0078d4"/>
    <path id="Контур_7803" data-name="Контур 7803" d="M4.2,9.7a2.189,2.189,0,0,0,1.246-.389,2.717,2.717,0,0,0,4.108,0A2.2,2.2,0,1,0,10.8,5.3a2.165,2.165,0,0,0-.554.079c0-.027,0-.055,0-.079a3.3,3.3,0,1,0-6.6,0c0,.026,0,.051,0,.076A2.2,2.2,0,0,0,4.2,9.7Z" transform="translate(0)" fill="#0078d4"/>
    <path id="Контур_7804" data-name="Контур 7804" d="M4,19H5.1v2.2H4Z" transform="translate(-0.901 -7.65)" fill="#0078d4"/>
    <path id="Контур_7805" data-name="Контур 7805" d="M9,21h1.1v2.2H9Z" transform="translate(-3.151 -8.55)" fill="#0078d4"/>
    <path id="Контур_7806" data-name="Контур 7806" d="M60,26h1.1v2.2H60Z" transform="translate(-26.1 -10.8)" fill="#0078d4"/>
  </g>
</svg>
