<svg xmlns="http://www.w3.org/2000/svg" xmlns:xlink="http://www.w3.org/1999/xlink" width="38.797" height="38.796" viewBox="0 0 38.797 38.796">
  <defs>
    <clipPath id="clip-path">
      <path id="Контур_2008" data-name="Контур 2008" d="M0,0H38.8V38.8H0Z" transform="translate(193 339)" fill="#0078d4"/>
    </clipPath>
  </defs>
  <g id="Сгруппировать_2241" data-name="Сгруппировать 2241" transform="translate(-193 -339)" clip-path="url(#clip-path)">
    <path id="Контур_2006" data-name="Контур 2006" d="M214.8,349.181a3.756,3.756,0,1,0-3.756-3.756,3.755,3.755,0,0,0,3.756,3.756Zm9.387,16.31h-1.9a2.564,2.564,0,0,0,.825-2.742l-3.52-11.362a2.554,2.554,0,0,0-3.2-1.684,3.194,3.194,0,0,0-1.07.652c-.072.06-8.251,7.056-8.341,7.176l-.982-1.4a3.122,3.122,0,0,0,.563-.141c.725-.24,1.644-.705,1.585-.882-.048-.143-.72-.053-1.356.113.06-.088.123-.183.189-.287.7-1.111,1.414-2.735,1.145-2.906-.242-.152-1.18.9-1.878,1.912l-.014-.275c-.108-1.79-.608-4.16-1.044-4.134-.374.023-.582,1.793-.564,3.426-1.242-1.77-3.1-3.765-3.527-3.478s.739,2.756,1.922,4.566c-1.511-.621-3.232-1.086-3.393-.748-.187.395,1.829,1.739,3.453,2.5l.25.115c-1.2.272-2.524.755-2.472,1.037.056.314,1.83.252,3.123.014l.337-.069c-.391.531-.721,1.12-.608,1.217.143.12.915-.563,1.407-1.144a3.307,3.307,0,0,0,.342-.473l1.187,1.689a2.125,2.125,0,0,0,3.416,2.241l5.521-4.723,2.009,6.477s-4.791,2.416-4.862,2.46a3.219,3.219,0,0,0,1.711,5.941h9.749a2.55,2.55,0,1,0,0-5.095Z" transform="translate(5.052 2.038)" fill="#0078d4"/>
    <path id="Контур_2007" data-name="Контур 2007" d="M208.939,361.215q-.385,0-.769.035v-.473a2.412,2.412,0,0,0,.406.148c.543.153,1.3.25,1.337.116.032-.106-.416-.33-.876-.494q.118-.045.233-.1c.892-.391,2.007-1.09,1.912-1.307-.086-.194-1.1.058-1.947.391q.053-.082.106-.175c.677-1.144,1.356-2.806,1.077-2.97-.238-.141-1.1.861-1.771,1.867-.025-1.6-.337-3.6-.718-3.6s-.691,2-.718,3.6c-.67-1.009-1.532-2.009-1.771-1.867-.279.164.4,1.825,1.077,2.97q.053.093.106.175c-.85-.333-1.862-.584-1.947-.391-.1.217,1.017.915,1.91,1.307.083.037.16.069.235.1-.46.164-.908.388-.878.494.037.134.8.037,1.344-.116a2.532,2.532,0,0,0,.409-.148v.533a6.273,6.273,0,0,0-3.023,1.245,7.535,7.535,0,0,0-5.206-1.82c-.222,0-.45.007-.667.021l-.009,0v-1.478a4.261,4.261,0,0,0,.679.245c.9.254,2.16.414,2.222.194.049-.178-.691-.548-1.455-.82.123-.048.252-.1.39-.16,1.48-.649,3.328-1.808,3.169-2.169-.141-.321-1.818.1-3.229.651.058-.092.116-.189.176-.289,1.123-1.9,2.248-4.654,1.786-4.927-.4-.233-1.827,1.425-2.936,3.1-.042-2.654-.559-5.968-1.19-5.968s-1.148,3.312-1.19,5.968c-1.109-1.672-2.541-3.333-2.936-3.1-.462.273.663,3.028,1.786,4.927l.175.289c-1.409-.552-3.088-.972-3.229-.651-.157.362,1.689,1.52,3.169,2.169.138.06.266.115.388.162-.762.268-1.506.64-1.455.818.062.22,1.321.058,2.222-.194a4.292,4.292,0,0,0,.677-.245s0,1.538.005,1.566c-2.6.391-4.534,1.792-4.534,3.234,0,1.7,20.65,1.7,20.65,0s-2.326-2.862-5.193-2.862Z" transform="translate(0 7.734)" fill="#0078d4"/>
  </g>
</svg>
