<svg xmlns="http://www.w3.org/2000/svg" width="30.646" height="30.504" viewBox="0 0 30.646 30.504">
  <g id="hacker" transform="translate(0 -1.194)">
    <g id="Сгруппировать_2320" data-name="Сгруппировать 2320" transform="translate(0 11.692)">
      <g id="Сгруппировать_2319" data-name="Сгруппировать 2319">
        <path id="Контур_2439" data-name="Контур 2439" d="M26.41,180.128l-2.273-.527.724-2.269-.053-.018a22.2,22.2,0,0,0-2.889-.735,6.644,6.644,0,0,1-13.173.135,21.837,21.837,0,0,0-2.9.809L6.51,179.6l-2.275.527L0,187.938v4.752H5.048v-8.017H25.6v8.017h5.048V187.9Z" transform="translate(0 -176.579)" fill="#0078d4"/>
      </g>
    </g>
    <g id="Сгруппировать_2322" data-name="Сгруппировать 2322" transform="translate(5.655 1.194)">
      <g id="Сгруппировать_2321" data-name="Сгруппировать 2321" transform="translate(0 0)">
        <path id="Контур_2440" data-name="Контур 2440" d="M111.624,6A8.222,8.222,0,0,0,96.663,6l-2.188,4.8a32.268,32.268,0,0,1,9.613-1.448,32.763,32.763,0,0,1,9.616,1.214Z" transform="translate(-94.475 -1.194)" fill="#0078d4"/>
      </g>
    </g>
    <g id="Сгруппировать_2324" data-name="Сгруппировать 2324" transform="translate(10.517 11.144)">
      <g id="Сгруппировать_2323" data-name="Сгруппировать 2323">
        <path id="Контур_2441" data-name="Контур 2441" d="M175.7,167.8a4.847,4.847,0,0,0,9.626-.1A36.672,36.672,0,0,0,175.7,167.8Z" transform="translate(-175.696 -167.431)" fill="#0078d4"/>
      </g>
    </g>
    <g id="Сгруппировать_2326" data-name="Сгруппировать 2326" transform="translate(6.844 21.582)">
      <g id="Сгруппировать_2325" data-name="Сгруппировать 2325">
        <path id="Контур_2442" data-name="Контур 2442" d="M114.333,351.921h16.959V341.805H114.333Zm8.48-6.328,1.27,1.27-1.27,1.27-1.27-1.27Z" transform="translate(-114.333 -341.805)" fill="#0078d4"/>
      </g>
    </g>
  </g>
</svg>
