<svg id="handcuffs" xmlns="http://www.w3.org/2000/svg" width="21.534" height="21.534" viewBox="0 0 21.534 21.534">
  <path id="Path_8045" data-name="Path 8045" d="M6.375,184.706a3.672,3.672,0,1,1,1.843-6.846,7.62,7.62,0,0,1,1.545-2.225q-.191-.12-.392-.228v-1.619a.631.631,0,0,0-.631-.631H4.01a.631.631,0,0,0-.631.631v1.619a6.374,6.374,0,1,0,6.384,11.025,7.669,7.669,0,0,1-1.547-2.222,3.649,3.649,0,0,1-1.841.5Z" transform="translate(0 -165.875)" fill="#fff"/>
  <path id="Path_8046" data-name="Path 8046" d="M107.266,5.467a.909.909,0,0,1,.836.554h1.3a2.187,2.187,0,0,0-.047-.214A2.178,2.178,0,0,0,110.9,4.264a2.162,2.162,0,0,0,1.136,0,2.178,2.178,0,0,0,1.543,1.543,2.187,2.187,0,0,0-.047.214h1.3a.908.908,0,0,1,1.673,0h1.3a2.176,2.176,0,0,0-1.586-1.744,2.169,2.169,0,0,0-2.662-2.662,2.17,2.17,0,0,0-4.2,0,2.169,2.169,0,0,0-2.662,2.662,2.176,2.176,0,0,0-1.586,1.744h1.3a.91.91,0,0,1,.837-.554Zm6.87-2.666a.908.908,0,1,1-.908.908A.909.909,0,0,1,114.136,2.8Zm-2.666-1.539a.908.908,0,1,1-.908.908.909.909,0,0,1,.908-.908ZM108.805,2.8a.908.908,0,1,1-.908.908A.909.909,0,0,1,108.805,2.8Z" transform="translate(-100.704)" fill="#fff"/>
  <path id="Path_8047" data-name="Path 8047" d="M215.242,177.363a3.676,3.676,0,0,1,3.672,3.672,1.352,1.352,0,0,0,2.7,0,6.393,6.393,0,0,0-3.379-5.627v-1.619a.631.631,0,0,0-.631-.631h-4.73a.631.631,0,0,0-.631.631v1.619a6.375,6.375,0,1,0,8.873,8.1,2.607,2.607,0,0,1-2.7-.625,3.671,3.671,0,1,1-3.174-5.516Z" transform="translate(-200.082 -165.875)" fill="#fff"/>
</svg>
