<svg xmlns="http://www.w3.org/2000/svg" width="29.439" height="29.442" viewBox="0 0 29.439 29.442">
  <path id="home" d="M28.648,12.806l0,0L16.636.794a2.71,2.71,0,0,0-3.833,0l-12,12-.012.012a2.709,2.709,0,0,0,1.8,4.618q.041,0,.084,0h.479v8.838a3.176,3.176,0,0,0,3.172,3.172h4.7a.863.863,0,0,0,.863-.863V21.651A1.449,1.449,0,0,1,13.334,20.2h2.771a1.449,1.449,0,0,1,1.447,1.447V28.58a.863.863,0,0,0,.863.863h4.7a3.176,3.176,0,0,0,3.172-3.172V17.432h.444a2.711,2.711,0,0,0,1.918-4.626Zm0,0" transform="translate(0.001)" fill="#0078d4"/>
</svg>
