<svg id="idea" xmlns="http://www.w3.org/2000/svg" width="33.153" height="33.94" viewBox="0 0 33.153 33.94">
  <path id="Контур_7833" data-name="Контур 7833" d="M5.922,332H9.9v11.931H5.922Z" transform="translate(-5.922 -309.991)" fill="#0078d4"/>
  <path id="Контур_7834" data-name="Контур 7834" d="M159.421,13.92h6.921c1.074-1.5,3.5-3.611,3.5-6.96a6.96,6.96,0,0,0-13.92,0C155.922,10.279,158.3,12.354,159.421,13.92ZM161.6,6.257l1.286,1.286,1.286-1.286,1.406,1.406-1.7,1.7v2.571h-1.989V9.36l-1.7-1.7Z" transform="translate(-145.979 0.002)" fill="#0078d4"/>
  <path id="Контур_7835" data-name="Контур 7835" d="M218.9,243.977a2.986,2.986,0,0,0,2.983-2.983V240h-5.966v.994A2.986,2.986,0,0,0,218.9,243.977Z" transform="translate(-202.002 -224.09)" fill="#0078d4"/>
  <path id="Контур_7836" data-name="Контур 7836" d="M65.922,96H69.9v1.989H65.922Z" transform="translate(-61.945 -89.635)" fill="#0078d4"/>
  <path id="Контур_7837" data-name="Контур 7837" d="M395.922,96H399.9v1.989h-3.977Z" transform="translate(-370.071 -89.635)" fill="#0078d4"/>
  <path id="Контур_7838" data-name="Контур 7838" d="M0,0H3.976V1.989H0Z" transform="matrix(0.866, -0.5, 0.5, 0.866, 5.212, 12.959)" fill="#0078d4"/>
  <path id="Контур_7839" data-name="Контур 7839" d="M0,0H3.976V1.989H0Z" transform="matrix(0.866, -0.5, 0.5, 0.866, 24.154, 1.988)" fill="#0078d4"/>
  <path id="Контур_7840" data-name="Контур 7840" d="M0,0H1.989V3.976H0Z" transform="matrix(0.5, -0.866, 0.866, 0.5, 5.211, 1.724)" fill="#0078d4"/>
  <path id="Контур_7841" data-name="Контур 7841" d="M0,0H1.989V3.976H0Z" transform="matrix(0.5, -0.866, 0.866, 0.5, 24.153, 12.692)" fill="#0078d4"/>
  <path id="Контур_7842" data-name="Контур 7842" d="M122.214,283.269a2.984,2.984,0,0,0-3.993,1.339l-3.788,7.567H101.888v-1.989h11.931a3.977,3.977,0,0,0-3.977-3.977h-4.575a8.017,8.017,0,0,0-9.345-.966V296.37h20.856l6.331-12.659Z" transform="translate(-89.956 -264.2)" fill="#0078d4"/>
</svg>
