<svg xmlns="http://www.w3.org/2000/svg" xmlns:xlink="http://www.w3.org/1999/xlink" width="54.517" height="54.517" viewBox="0 0 54.517 54.517">
  <defs>
    <filter id="Ellipse_129" x="0" y="0" width="54.517" height="54.517" filterUnits="userSpaceOnUse">
      <feOffset dy="3" input="SourceAlpha"/>
      <feGaussianBlur stdDeviation="3" result="blur"/>
      <feFlood flood-opacity="0.161"/>
      <feComposite operator="in" in2="blur"/>
      <feComposite in="SourceGraphic"/>
    </filter>
  </defs>
  <g id="javob" transform="translate(-443.057 -148.608)">
    <g transform="matrix(1, 0, 0, 1, 443.06, 148.61)" filter="url(#Ellipse_129)">
      <g id="Ellipse_129-2" data-name="Ellipse 129" transform="translate(9 6)" fill="#fff" stroke="#628ce8" stroke-width="2">
        <ellipse cx="18.258" cy="18.258" rx="18.258" ry="18.258" stroke="none"/>
        <ellipse cx="18.258" cy="18.258" rx="17.258" ry="17.258" fill="none"/>
      </g>
    </g>
    <g id="comments" transform="translate(462 164.484)">
      <g id="Group_1859" data-name="Group 1859" transform="translate(0 0)">
        <path id="Path_1277" data-name="Path 1277" d="M15.878,2.491A8.314,8.314,0,0,0,1.634,8.565,7.923,7.923,0,0,0,2.2,11.348a8.235,8.235,0,0,0,1.176,2.057l-.686,1.626a1.232,1.232,0,0,0,1.352,1.7l3.174-.549a8.324,8.324,0,0,0,8.66-13.7Zm-6.544,9.15H7.159a.627.627,0,0,1,0-1.254H9.334a.631.631,0,0,1,.627.627A.619.619,0,0,1,9.334,11.642Zm3.39-2.547H7.159a.631.631,0,0,1-.627-.627.619.619,0,0,1,.627-.627h5.565a.627.627,0,0,1,0,1.254Zm0-2.567H7.159a.627.627,0,0,1,0-1.254h5.565a.631.631,0,0,1,.627.627A.645.645,0,0,1,12.724,6.528Z" transform="translate(-1.63 0)" fill="#5f89e5"/>
      </g>
    </g>
  </g>
</svg>
