<svg xmlns="http://www.w3.org/2000/svg" width="30.953" height="30.955" viewBox="0 0 30.953 30.955">
  <path id="labeled" d="M29.463,16.393a2.211,2.211,0,0,1,0-1.83l1.179-2.6a3.5,3.5,0,0,0-1.959-4.729l-2.669-1a2.218,2.218,0,0,1-1.3-1.294l-1-2.67A3.5,3.5,0,0,0,18.989.314L16.4,1.493a2.217,2.217,0,0,1-1.833,0L11.967.314A3.5,3.5,0,0,0,7.238,2.274l-1,2.67a2.211,2.211,0,0,1-1.3,1.294l-2.669,1A3.5,3.5,0,0,0,.314,11.967l1.179,2.6a2.211,2.211,0,0,1,0,1.83L.314,18.99a3.5,3.5,0,0,0,1.959,4.729l2.669,1a2.218,2.218,0,0,1,1.3,1.294l1,2.67a3.5,3.5,0,0,0,4.729,1.958l2.594-1.179a2.217,2.217,0,0,1,1.833,0l2.6,1.18a3.5,3.5,0,0,0,4.729-1.958l1-2.67a2.211,2.211,0,0,1,1.3-1.294l2.669-1a3.5,3.5,0,0,0,1.959-4.729Zm-6.037,4.141a7.663,7.663,0,0,1-4.239,1.388,6.908,6.908,0,0,1-2.42-.467v.457a1.29,1.29,0,0,1-2.58,0v-.457a7.079,7.079,0,0,1-6.658-.922.964.964,0,0,1-.436-.807,1.015,1.015,0,0,1,.432-.831,8.765,8.765,0,0,1,1.946-.983A9.419,9.419,0,0,1,7.1,12.446a.969.969,0,0,1,1.087-1.08,9.775,9.775,0,0,1,4.484,1.679A12.973,12.973,0,0,1,14.651,6.9a1,1,0,0,1,1.655,0,12.969,12.969,0,0,1,1.979,6.146,9.735,9.735,0,0,1,4.484-1.679.967.967,0,0,1,1.087,1.08,9.419,9.419,0,0,1-2.371,5.465,8.765,8.765,0,0,1,1.946.983.99.99,0,0,1-.005,1.639Z" transform="translate(-0.002 -0.001)" fill="#0078d4"/>
</svg>
