<svg xmlns="http://www.w3.org/2000/svg" width="274.005" height="274" viewBox="0 0 274.005 274">
  <g id="map__bg" transform="translate(-311.048 -1476.293)" opacity="0.33">
    <path id="Контур_524" data-name="Контур 524" d="M345.671,1655.7a255.172,255.172,0,0,0-29.81-29.257,2.428,2.428,0,0,0-.732-.405c-.993-1.667-4.134-1.32-4.081,1.078q.486,21.042,2.282,41.979,13.52,16.076,28.071,31.3c1.657,1.733,4.124-.24,3.646-2.121a2.38,2.38,0,0,0,.233-.8,255.265,255.265,0,0,0,.39-41.765Zm0-84.813a255.234,255.234,0,0,0-.39-41.765,2.378,2.378,0,0,0-.233-.8c.478-1.884-1.989-3.858-3.646-2.122q-14.534,15.222-28.071,31.3-1.806,20.924-2.282,41.979c-.053,2.4,3.087,2.746,4.081,1.075a2.354,2.354,0,0,0,.732-.4,254.926,254.926,0,0,0,29.81-29.264Zm59.971-59.971a255.2,255.2,0,0,0,29.264-29.809,2.352,2.352,0,0,0,.4-.732c1.67-.994,1.32-4.134-1.075-4.077q-21.041.478-41.982,2.279-16.072,13.52-31.3,28.071c-1.735,1.657.24,4.124,2.122,3.646a2.307,2.307,0,0,0,.805.232,255.2,255.2,0,0,0,41.765.39Zm84.813,0a255.225,255.225,0,0,0,41.765-.39,2.265,2.265,0,0,0,.8-.232c1.883.478,3.857-1.989,2.122-3.646q-15.217-14.533-31.3-28.071-20.93-1.806-41.979-2.28c-2.4-.057-2.746,3.084-1.079,4.077a2.3,2.3,0,0,0,.405.732,255.181,255.181,0,0,0,29.257,29.809Zm59.972,59.968a255.458,255.458,0,0,0,29.8,29.264,2.33,2.33,0,0,0,.736.4c.993,1.67,4.134,1.326,4.077-1.075q-.486-21.042-2.282-41.979-13.52-16.076-28.071-31.3c-1.657-1.735-4.122.24-3.643,2.121a2.383,2.383,0,0,0-.24.8,255.606,255.606,0,0,0-.377,41.761Zm0,84.813a255.626,255.626,0,0,0,.39,41.765,2.383,2.383,0,0,0,.24.805c-.478,1.879,1.989,3.854,3.643,2.121q14.538-15.222,28.071-31.3,1.806-20.924,2.282-41.979c.057-2.4-3.084-2.746-4.077-1.078a2.4,2.4,0,0,0-.736.405,255.67,255.67,0,0,0-29.813,29.264Zm-59.972,59.976a255.418,255.418,0,0,0-29.256,29.806,2.283,2.283,0,0,0-.405.736c-1.67.993-1.32,4.135,1.079,4.078q21.041-.487,41.979-2.282,16.076-13.52,31.3-28.071c1.735-1.657-.24-4.122-2.122-3.643a2.338,2.338,0,0,0-.8-.24,255.251,255.251,0,0,0-41.765-.384Zm-84.813,0a255.251,255.251,0,0,0-41.765.386,2.391,2.391,0,0,0-.8.24c-1.884-.478-3.857,1.989-2.122,3.643q15.222,14.539,31.3,28.071,20.93,1.806,41.982,2.282c2.393.057,2.746-3.084,1.075-4.078a2.325,2.325,0,0,0-.4-.736,255.421,255.421,0,0,0-29.264-29.809Zm-84.6-49.772q-1.174-13.53-1.8-27.1a263.516,263.516,0,0,1,19.73,19.671,263.119,263.119,0,0,1-.038,27.861q-9.149-10.046-17.888-20.436Zm0-105.213q8.734-10.394,17.885-20.435a263.138,263.138,0,0,1,.038,27.861,263.486,263.486,0,0,1-19.727,19.67q.639-13.57,1.8-27.1Zm74.394-74.394q13.525-1.173,27.1-1.8a262.922,262.922,0,0,1-19.67,19.727,263.192,263.192,0,0,1-27.861-.038q10.039-9.148,20.438-17.885Zm105.21,0q10.394,8.734,20.438,17.885a263.1,263.1,0,0,1-27.861.038,263.522,263.522,0,0,1-19.671-19.728q13.568.638,27.1,1.805Zm74.4,74.394q1.174,13.525,1.8,27.1a262.815,262.815,0,0,1-19.724-19.67,262.266,262.266,0,0,1,.038-27.861q9.147,10.039,17.888,20.435Zm0,105.214q-8.734,10.393-17.885,20.435a262.236,262.236,0,0,1-.038-27.861,262.818,262.818,0,0,1,19.725-19.67q-.63,13.567-1.8,27.1Zm-74.4,74.394q-13.525,1.174-27.1,1.8a263.463,263.463,0,0,1,19.676-19.724,262.346,262.346,0,0,1,27.861.038q-10.045,9.143-20.438,17.884Zm-105.21,0q-10.394-8.734-20.435-17.885a262.186,262.186,0,0,1,27.861-.038,262.863,262.863,0,0,1,19.67,19.724q-13.564-.633-27.094-1.8Z" fill="#5c86e2"/>
    <path id="Контур_525" data-name="Контур 525" d="M312.956,1612.747a2.234,2.234,0,0,0,1.06,1.894c15.626,10.013,28.706,22.735,40.693,36.557,1.293,18.247,1.042,36.49-2.927,54.621a2.218,2.218,0,0,0,2.675,2.675c18.131-3.97,36.377-4.219,54.621-2.93,13.814,11.991,26.54,25.066,36.55,40.693a2.22,2.22,0,0,0,3.788,0c10.013-15.627,22.736-28.7,36.557-40.693,18.243-1.289,36.49-1.042,54.621,2.93a2.218,2.218,0,0,0,2.675-2.675c-3.97-18.131-4.219-36.377-2.93-54.621,11.99-13.814,25.066-26.54,40.693-36.557a2.218,2.218,0,0,0,0-3.782c-15.626-10.013-28.7-22.736-40.693-36.557-1.289-18.247-1.042-36.49,2.93-54.621a2.218,2.218,0,0,0-2.675-2.675c-18.13,3.97-36.377,4.219-54.621,2.93-13.814-11.991-26.54-25.068-36.556-40.7a2.22,2.22,0,0,0-3.788,0c-10.01,15.626-22.736,28.706-36.55,40.7-18.247,1.289-36.49,1.042-54.621-2.93a2.218,2.218,0,0,0-2.676,2.676c3.97,18.13,4.219,36.376,2.927,54.62-11.988,13.814-25.066,26.54-40.693,36.557A2.233,2.233,0,0,0,312.956,1612.747Zm72.621,0c0,10.412-2.373,21.8-12.82,26.7-10.77,5.046-18.479-2.361-25.823-9.368a18.619,18.619,0,0,0,2.411.34c9.972.686,19.544-7.387,19.544-17.668s-9.573-18.348-19.544-17.665a18.578,18.578,0,0,0-2.411.34c7.344-7.008,15.053-14.414,25.822-9.368C383.2,1590.946,385.577,1602.339,385.577,1612.747Zm18.143-43.8c-7.363,7.36-17.093,13.739-27.938,9.813-11.186-4.056-11.4-14.738-11.636-24.887a18.685,18.685,0,0,0,1.465,1.942c6.567,7.539,19.048,8.6,26.313,1.326s6.209-19.746-1.326-26.313a18.675,18.675,0,0,0-1.942-1.464c10.148.24,20.835.453,24.883,11.635,3.927,10.85-2.452,20.58-9.812,27.938Zm43.8-18.143c-10.409,0-21.8-2.368-26.694-12.818-5.046-10.774,2.358-18.482,9.368-25.826a18.648,18.648,0,0,0-.34,2.411c-.686,9.971,7.387,19.544,17.665,19.544s18.354-9.573,17.668-19.544a18.638,18.638,0,0,0-.34-2.411c7.008,7.343,14.411,15.052,9.366,25.826-4.889,10.444-16.279,12.814-26.691,12.814Zm43.8,18.143c-7.363-7.362-13.742-17.093-9.812-27.938,4.05-11.183,14.735-11.4,24.883-11.635a18.7,18.7,0,0,0-1.945,1.465c-7.536,6.568-8.595,19.048-1.326,26.313s19.75,6.209,26.317-1.326a18.679,18.679,0,0,0,1.461-1.943c-.24,10.148-.449,20.835-11.635,24.883-10.842,3.921-20.572-2.457-27.938-9.815Zm18.143,43.8c0-10.409,2.368-21.8,12.817-26.694,10.774-5.046,18.479,2.358,25.823,9.368a18.618,18.618,0,0,0-2.408-.34c-9.972-.686-19.544,7.387-19.544,17.666s9.573,18.354,19.544,17.668a18.6,18.6,0,0,0,2.408-.34c-7.344,7.008-15.05,14.414-25.823,9.369-10.443-4.9-12.814-16.289-12.814-26.7Zm-18.143,43.8c7.363-7.362,17.093-13.738,27.938-9.812,11.186,4.05,11.4,14.735,11.635,24.883a18.71,18.71,0,0,0-1.461-1.945c-6.568-7.536-19.052-8.595-26.317-1.326s-6.205,19.75,1.326,26.317a18.242,18.242,0,0,0,1.945,1.462c-10.148-.24-20.835-.45-24.883-11.635-3.927-10.846,2.451-20.576,9.814-27.938Zm-43.8,18.143c10.412,0,21.8,2.368,26.694,12.818,5.046,10.774-2.358,18.479-9.365,25.823a18.577,18.577,0,0,0,.34-2.408c.686-9.972-7.387-19.544-17.668-19.544s-18.348,9.573-17.665,19.544a18.6,18.6,0,0,0,.34,2.408c-7.008-7.344-14.414-15.05-9.368-25.823,4.9-10.446,16.289-12.818,26.7-12.818Zm-43.8-18.143c7.36,7.363,13.739,17.093,9.812,27.938-4.05,11.185-14.735,11.4-24.883,11.635a18.207,18.207,0,0,0,1.942-1.462c7.539-6.567,8.6-19.047,1.326-26.317s-19.746-6.205-26.313,1.326a18.778,18.778,0,0,0-1.465,1.945c.24-10.148.45-20.835,11.635-24.883,10.853-3.915,20.583,2.458,27.947,9.817Zm-39.208-43.8c0,6.161-4.866,11.554-10.679,12.943-4.75,1.136-9.108-.478-13.078-2.971-5.106-3.2-9.414-7.24-14.685-9.972,5.265-2.729,9.582-6.769,14.685-9.972,3.97-2.493,8.327-4.109,13.078-2.974,5.808,1.39,10.678,6.789,10.678,12.945Zm24.314-58.694c-4.356,4.356-11.617,4.725-16.706,1.6-4.159-2.557-6.1-6.781-7.147-11.351-1.343-5.872-1.537-11.776-3.332-17.432,5.656,1.8,11.564,1.989,17.433,3.332,4.571,1.047,8.8,2.987,11.352,7.147C393.551,1542.44,393.18,1549.7,388.826,1554.053Zm58.694-24.315c-6.156,0-11.554-4.866-12.943-10.679-1.137-4.75.478-9.108,2.974-13.078,3.2-5.106,7.237-9.414,9.972-14.685,2.732,5.269,6.772,9.582,9.972,14.685,2.49,3.97,4.105,8.328,2.971,13.078-1.387,5.81-6.786,10.678-12.944,10.678Zm58.7,24.315c-4.356-4.356-4.728-11.614-1.6-16.706,2.557-4.159,6.781-6.1,11.35-7.146,5.872-1.343,11.777-1.537,17.432-3.333-1.792,5.656-1.989,11.563-3.332,17.432-1.046,4.571-2.983,8.8-7.147,11.351-5.089,3.125-12.349,2.755-16.705-1.6Zm24.311,58.694c0-6.156,4.866-11.554,10.683-12.943,4.748-1.136,9.105.478,13.078,2.974,5.1,3.2,9.414,7.24,14.679,9.972-5.265,2.732-9.582,6.772-14.679,9.972-3.978,2.493-8.334,4.105-13.078,2.971C535.4,1624.311,530.528,1618.912,530.528,1612.747Zm-24.314,58.7c4.356-4.356,11.614-4.729,16.7-1.6,4.167,2.557,6.1,6.781,7.147,11.35,1.346,5.872,1.541,11.777,3.332,17.432-5.656-1.792-11.564-1.989-17.432-3.332-4.571-1.047-8.793-2.983-11.35-7.147-3.125-5.081-2.754-12.345,1.6-16.7Zm-58.7,24.314c6.156,0,11.554,4.866,12.943,10.679,1.136,4.75-.478,9.1-2.971,13.078-3.2,5.1-7.24,9.413-9.972,14.685-2.732-5.265-6.769-9.585-9.972-14.685-2.493-3.978-4.109-8.328-2.974-13.078,1.394-5.81,6.787-10.679,12.947-10.679Zm-58.694-24.314c4.356,4.356,4.725,11.613,1.6,16.7-2.557,4.167-6.781,6.1-11.352,7.146-5.872,1.346-11.777,1.541-17.433,3.332,1.8-5.656,1.989-11.563,3.332-17.432,1.047-4.571,2.987-8.793,7.146-11.349,5.092-3.125,12.352-2.754,16.709,1.6Zm-25.372-93.518q.1-1.783.189-3.568a18.016,18.016,0,0,0,5.609,5.967,18.018,18.018,0,0,0-8.186.255q1.2-1.321,2.388-2.646ZM412.7,1528.68c.889-.8,1.774-1.591,2.652-2.393a17.976,17.976,0,0,0-.255,8.186,18.013,18.013,0,0,0-5.966-5.608q1.783-.084,3.569-.19Zm69.643,0q1.783.095,3.569.183a18,18,0,0,0-5.966,5.609,17.977,17.977,0,0,0-.251-8.186c.879.8,1.765,1.6,2.652,2.4Zm49.247,49.247q1.189,1.334,2.393,2.652a18.016,18.016,0,0,0-8.186-.255,17.948,17.948,0,0,0,5.609-5.967c.058,1.189.116,2.38.189,3.569Zm0,69.643q-.1,1.783-.189,3.568a17.935,17.935,0,0,0-5.609-5.967,17.971,17.971,0,0,0,8.186-.251q-1.2,1.318-2.39,2.652Zm-49.247,49.247q-1.334,1.189-2.652,2.393a17.973,17.973,0,0,0,.251-8.186,17.969,17.969,0,0,0,5.966,5.611q-1.785.081-3.567.184Zm-69.643,0q-1.787-.095-3.569-.183a17.993,17.993,0,0,0,5.966-5.611,17.972,17.972,0,0,0,.255,8.186q-1.32-1.2-2.652-2.391Zm-49.247-49.247q-1.189-1.334-2.393-2.652a17.981,17.981,0,0,0,8.186.251,17.994,17.994,0,0,0-5.608,5.967q-.08-1.785-.189-3.567Zm14.17-5.872c9.414-6.181,12.365-17.826,12.336-28.958.027-11.126-2.924-22.771-12.336-28.952,11.026,2.285,21.349-3.863,29.2-11.751,7.888-7.846,14.034-18.167,11.748-29.2,6.184,9.414,17.828,12.365,28.958,12.339,11.129.025,22.774-2.927,28.958-12.339-2.285,11.028,3.86,21.349,11.748,29.2,7.85,7.888,18.171,14.04,29.2,11.751-9.413,6.181-12.365,17.826-12.339,28.952-.027,11.129,2.924,22.774,12.339,28.958-11.029-2.285-21.349,3.86-29.2,11.748-7.888,7.85-14.034,18.171-11.748,29.2-6.181-9.413-17.826-12.365-28.958-12.339-11.126-.028-22.771,2.924-28.958,12.339,2.285-11.029-3.86-21.349-11.748-29.2-7.848-7.886-18.172-14.033-29.2-11.744Zm31.064-28.958a60.327,60.327,0,0,1-2.652,17.187,56.964,56.964,0,0,1,24.3,24.312,56.98,56.98,0,0,1,34.372,0,56.918,56.918,0,0,1,24.3-24.305,56.919,56.919,0,0,1,0-34.372,56.966,56.966,0,0,1-24.3-24.3,56.987,56.987,0,0,1-34.372,0,57.013,57.013,0,0,1-24.3,24.3,60.312,60.312,0,0,1,2.652,17.181Zm19.444,0a27.111,27.111,0,0,1-.947,8.429,38.088,38.088,0,0,1,11.909,11.909,37.973,37.973,0,0,1,16.848,0,38.088,38.088,0,0,1,11.909-11.909,37.977,37.977,0,0,1,0-16.848,38.1,38.1,0,0,1-11.909-11.909,38.1,38.1,0,0,1-16.848,0,38.094,38.094,0,0,1-11.9,11.907,27.227,27.227,0,0,1,.947,8.429ZM411.2,1627.787a61.714,61.714,0,0,0,0-30.083,61.743,61.743,0,0,0,21.274-21.274,61.7,61.7,0,0,0,30.082,0,61.764,61.764,0,0,0,21.271,21.274,61.814,61.814,0,0,0,0,30.084,61.8,61.8,0,0,0-21.271,21.271,61.827,61.827,0,0,0-30.082,0,61.77,61.77,0,0,0-21.274-21.271Zm20.877-8.65a47.7,47.7,0,0,0,0-12.792,47.629,47.629,0,0,0,9.044-9.044,47.671,47.671,0,0,0,12.785,0,47.626,47.626,0,0,0,9.044,9.044,47.7,47.7,0,0,0,0,12.792,41.557,41.557,0,0,0-4.83,4.216,42.157,42.157,0,0,0-4.219,4.83,47.661,47.661,0,0,0-12.785,0,47.738,47.738,0,0,0-9.04-9.035Zm11.057-6.4c0,.61,0,1.213-.007,1.82q.646.636,1.293,1.277t1.277,1.289c.6,0,1.21-.007,1.817-.007s1.213,0,1.82.007c.424-.431.852-.858,1.277-1.289s.858-.852,1.289-1.277c0-.606-.007-1.21-.007-1.82s0-1.213.007-1.817c-.431-.424-.858-.852-1.289-1.277s-.852-.862-1.277-1.293c-.607.007-1.213.007-1.82.007s-1.213,0-1.817-.007l-1.277,1.293q-.638.646-1.293,1.277c.007.608.007,1.215.007,1.821Z" transform="translate(0.529 0.536)" fill="#5c86e2"/>
  </g>
</svg>
