<svg xmlns="http://www.w3.org/2000/svg" xmlns:xlink="http://www.w3.org/1999/xlink" width="840" height="359" viewBox="0 0 840 359">
  <defs>
    <filter id="Rectangle_1891" x="-9" y="-6" width="858" height="377" filterUnits="userSpaceOnUse">
      <feOffset dy="3" input="SourceAlpha"/>
      <feGaussianBlur stdDeviation="3" result="blur"/>
      <feFlood flood-color="#4f76cb" flood-opacity="0.341"/>
      <feComposite operator="in" in2="blur"/>
      <feComposite in="SourceGraphic"/>
    </filter>
    <clipPath id="clip-path">
      <g transform="matrix(1, 0, 0, 1, 0, 0)" filter="url(#Rectangle_1891)">
        <rect id="Rectangle_1891-2" data-name="Rectangle 1891" width="840" height="359" rx="26" transform="translate(1056 684)" fill="#fff"/>
      </g>
    </clipPath>
  </defs>
  <g id="Mask_Group_21" data-name="Mask Group 21" transform="translate(-1056 -684)" clip-path="url(#clip-path)">
    <g id="Сгруппировать_1784" data-name="Сгруппировать 1784" transform="translate(1558.91 955.67)">
      <path id="Контур_524" data-name="Контур 524" d="M442.82,2118.09a268.721,268.721,0,0,0-31.352-30.856,2.55,2.55,0,0,0-.77-.427c-1.045-1.758-4.348-1.392-4.292,1.137q.511,22.192,2.4,44.274,14.22,16.954,29.523,33.01c1.743,1.828,4.338-.253,3.835-2.237a2.519,2.519,0,0,0,.245-.849,269.979,269.979,0,0,0,.41-44.049Zm0-89.449a269.938,269.938,0,0,0-.41-44.049,2.515,2.515,0,0,0-.245-.849c.5-1.987-2.092-4.068-3.835-2.238q-15.285,16.053-29.523,33.01-1.9,22.068-2.4,44.274c-.056,2.53,3.247,2.9,4.292,1.133a2.455,2.455,0,0,0,.77-.42,268.511,268.511,0,0,0,31.352-30.863Zm63.073-63.25a268.775,268.775,0,0,0,30.778-31.438,2.48,2.48,0,0,0,.419-.772c1.756-1.048,1.388-4.36-1.131-4.3q-22.129.505-44.154,2.4-16.9,14.259-32.915,29.605c-1.825,1.748.252,4.35,2.232,3.846a2.423,2.423,0,0,0,.847.244,267.642,267.642,0,0,0,43.926.412Zm89.2,0a267.7,267.7,0,0,0,43.926-.412,2.38,2.38,0,0,0,.847-.244c1.98.5,4.057-2.1,2.232-3.846q-16-15.328-32.915-29.605-22.013-1.905-44.151-2.4c-2.523-.06-2.889,3.252-1.135,4.3a2.436,2.436,0,0,0,.426.772,268.723,268.723,0,0,0,30.77,31.438Zm63.074,63.246a269.083,269.083,0,0,0,31.347,30.864,2.438,2.438,0,0,0,.774.421c1.045,1.761,4.348,1.4,4.288-1.134q-.511-22.192-2.4-44.274-14.22-16.955-29.523-33.01c-1.743-1.83-4.335.253-3.832,2.237a2.518,2.518,0,0,0-.252.849,270.329,270.329,0,0,0-.4,44.044Zm0,89.449a270.356,270.356,0,0,0,.41,44.048,2.516,2.516,0,0,0,.252.85c-.5,1.981,2.092,4.065,3.832,2.237q15.29-16.053,29.523-33.01,1.9-22.069,2.4-44.274c.06-2.53-3.243-2.9-4.288-1.137a2.524,2.524,0,0,0-.774.428,269.222,269.222,0,0,0-31.356,30.863Zm-63.074,63.255a269.035,269.035,0,0,0-30.77,31.436,2.4,2.4,0,0,0-.426.776c-1.756,1.047-1.389,4.361,1.134,4.3q22.129-.514,44.151-2.408,16.908-14.258,32.915-29.605c1.825-1.748-.252-4.347-2.232-3.842a2.432,2.432,0,0,0-.847-.253,267.64,267.64,0,0,0-43.926-.4Zm-89.2,0a267.7,267.7,0,0,0-43.926.407,2.512,2.512,0,0,0-.847.253c-1.981-.5-4.057,2.1-2.232,3.842q16.009,15.334,32.915,29.6,22.013,1.905,44.154,2.408c2.517.06,2.889-3.252,1.131-4.3a2.454,2.454,0,0,0-.419-.776,269.1,269.1,0,0,0-30.778-31.438Zm-88.971-52.492q-1.235-14.269-1.9-28.579a277.427,277.427,0,0,1,20.751,20.746,278.278,278.278,0,0,1-.04,29.383q-9.622-10.6-18.813-21.552Zm0-110.964q9.186-10.962,18.81-21.552a278.3,278.3,0,0,1,.04,29.384,277.479,277.479,0,0,1-20.748,20.746q.672-14.312,1.9-28.585Zm78.243-78.461q14.225-1.237,28.5-1.9a276.791,276.791,0,0,1-20.688,20.806,276.022,276.022,0,0,1-29.3-.041q10.558-9.648,21.495-18.863Zm110.652,0q10.932,9.211,21.5,18.863a276.022,276.022,0,0,1-29.3.041,277.516,277.516,0,0,1-20.689-20.808q14.27.674,28.5,1.9Zm78.247,78.461q1.235,14.265,1.893,28.578a276.9,276.9,0,0,1-20.745-20.746,277.373,277.373,0,0,1,.04-29.384q9.62,10.588,18.813,21.552Zm0,110.965q-9.185,10.961-18.81,21.552a277.324,277.324,0,0,1-.04-29.384,276.819,276.819,0,0,1,20.745-20.746q-.662,14.308-1.893,28.578Zm-78.247,78.461q-14.225,1.238-28.5,1.9a277.416,277.416,0,0,1,20.694-20.8,274.858,274.858,0,0,1,29.3.04q-10.564,9.642-21.495,18.861Zm-110.652,0q-10.932-9.212-21.492-18.863a274.989,274.989,0,0,1,29.3-.04,276.744,276.744,0,0,1,20.688,20.8q-14.265-.667-28.495-1.9Z" transform="translate(-406.405 -1928.88)" fill="rgba(94,178,110,0.37)"/>
      <path id="Контур_525" data-name="Контур 525" d="M408.9,2073.267a2.357,2.357,0,0,0,1.115,2c16.435,10.561,30.191,23.978,42.8,38.555,1.36,19.244,1.1,38.485-3.079,57.607a2.336,2.336,0,0,0,2.814,2.822c19.068-4.187,38.258-4.45,57.446-3.09,14.528,12.646,27.913,26.436,38.44,42.917a2.332,2.332,0,0,0,3.984,0c10.531-16.481,23.912-30.272,38.448-42.917,19.187-1.36,38.378-1.1,57.446,3.09a2.336,2.336,0,0,0,2.814-2.822c-4.175-19.122-4.437-38.365-3.082-57.607,12.61-14.569,26.362-27.991,42.8-38.555a2.343,2.343,0,0,0,0-3.99c-16.435-10.56-30.187-23.978-42.8-38.554-1.356-19.245-1.1-38.485,3.082-57.606a2.336,2.336,0,0,0-2.814-2.822c-19.068,4.187-38.258,4.449-57.446,3.09-14.528-12.646-27.913-26.438-38.448-42.922a2.331,2.331,0,0,0-3.984,0c-10.528,16.48-23.912,30.275-38.441,42.922-19.191,1.359-38.378,1.1-57.446-3.09a2.336,2.336,0,0,0-2.814,2.822c4.176,19.121,4.437,38.365,3.079,57.606-12.608,14.569-26.362,27.991-42.8,38.554A2.358,2.358,0,0,0,408.9,2073.267Zm76.378,0c0,10.982-2.5,22.994-13.483,28.158-11.327,5.322-19.435-2.49-27.158-9.881a19.554,19.554,0,0,0,2.536.359c10.487.723,20.555-7.791,20.555-18.635s-10.068-19.351-20.555-18.631a19.557,19.557,0,0,0-2.536.359c7.724-7.392,15.831-15.2,27.158-9.88C482.78,2050.274,485.276,2062.291,485.276,2073.267Zm19.081-46.189c-7.744,7.762-17.978,14.49-29.383,10.349-11.764-4.279-11.991-15.544-12.237-26.248a19.731,19.731,0,0,0,1.541,2.048c6.907,7.951,20.034,9.068,27.674,1.4s6.53-20.825-1.394-27.751a19.679,19.679,0,0,0-2.043-1.544c10.673.253,21.913.478,26.17,12.271,4.13,11.443-2.579,21.705-10.32,29.466Zm46.061-19.135c-10.948,0-22.93-2.5-28.075-13.519-5.307-11.362,2.48-19.492,9.853-27.238a19.724,19.724,0,0,0-.358,2.543c-.721,10.517,7.769,20.613,18.579,20.613s19.3-10.1,18.582-20.613a19.724,19.724,0,0,0-.358-2.543c7.371,7.745,15.157,15.875,9.85,27.238-5.142,11.015-17.121,13.515-28.072,13.515Zm46.068,19.135c-7.744-7.765-14.453-18.028-10.32-29.465,4.259-11.794,15.5-12.022,26.17-12.271a19.718,19.718,0,0,0-2.046,1.545c-7.925,6.927-9.039,20.09-1.394,27.752s20.772,6.548,27.678-1.4a19.637,19.637,0,0,0,1.537-2.049c-.252,10.7-.472,21.974-12.237,26.243-11.4,4.136-21.636-2.591-29.383-10.352Zm19.081,46.189c0-10.978,2.49-22.994,13.481-28.152,11.331-5.322,19.435,2.486,27.158,9.88a19.512,19.512,0,0,0-2.533-.359c-10.487-.723-20.555,7.791-20.555,18.631s10.068,19.358,20.555,18.635a19.6,19.6,0,0,0,2.533-.359c-7.724,7.392-15.828,15.2-27.158,9.882-10.983-5.164-13.477-17.18-13.477-28.158Zm-19.081,46.2c7.744-7.766,17.978-14.489,29.383-10.349,11.764,4.271,11.989,15.541,12.236,26.244a19.694,19.694,0,0,0-1.537-2.052c-6.908-7.947-20.038-9.064-27.678-1.4s-6.526,20.83,1.394,27.756a19.2,19.2,0,0,0,2.046,1.542c-10.673-.252-21.913-.474-26.17-12.271-4.13-11.438,2.578-21.7,10.322-29.465ZM550.419,2138.6c10.951,0,22.93,2.5,28.075,13.518,5.307,11.363-2.48,19.489-9.85,27.234a19.656,19.656,0,0,0,.358-2.54c.721-10.517-7.769-20.612-18.582-20.612s-19.3,10.1-18.579,20.612a19.666,19.666,0,0,0,.358,2.54c-7.371-7.745-15.16-15.872-9.853-27.234,5.149-11.017,17.132-13.518,28.079-13.518Zm-46.061-19.134c7.74,7.764,14.45,18.027,10.32,29.465-4.259,11.8-15.5,12.022-26.17,12.271a19.156,19.156,0,0,0,2.043-1.542c7.929-6.925,9.043-20.088,1.394-27.755s-20.768-6.544-27.674,1.4a19.846,19.846,0,0,0-1.541,2.051c.252-10.7.473-21.974,12.236-26.243,11.415-4.129,21.648,2.593,29.392,10.354Zm-41.236-46.2c0,6.5-5.118,12.186-11.231,13.651-5,1.2-9.579-.5-13.754-3.133-5.37-3.375-9.9-7.636-15.445-10.517,5.537-2.878,10.078-7.138,15.445-10.517,4.175-2.628,8.758-4.333,13.754-3.136,6.109,1.466,11.23,7.16,11.23,13.652Zm25.572-61.9c-4.582,4.595-12.218,4.983-17.57,1.688-4.375-2.7-6.415-7.152-7.516-11.972-1.412-6.192-1.617-12.419-3.5-18.385,5.948,1.9,12.162,2.1,18.334,3.514,4.808,1.1,9.251,3.15,11.94,7.537C493.663,1999.118,493.273,2006.771,488.693,2011.365Zm61.73-25.645c-6.474,0-12.152-5.132-13.613-11.262-1.2-5.01.5-9.606,3.128-13.793,3.366-5.385,7.612-9.928,10.487-15.488,2.874,5.556,7.123,10.106,10.487,15.488,2.619,4.187,4.318,8.783,3.125,13.793-1.459,6.127-7.137,11.261-13.614,11.261Zm61.734,25.645c-4.582-4.595-4.972-12.249-1.683-17.62,2.689-4.386,7.132-6.432,11.937-7.537,6.175-1.416,12.386-1.621,18.334-3.515-1.885,5.965-2.092,12.2-3.5,18.386-1.1,4.821-3.138,9.277-7.516,11.972-5.353,3.3-12.988,2.906-17.569-1.687Zm25.569,61.9c0-6.492,5.118-12.186,11.235-13.651,4.993-1.2,9.576.5,13.754,3.136,5.363,3.376,9.9,7.636,15.439,10.517-5.537,2.882-10.078,7.144-15.439,10.517-4.183,2.629-8.765,4.33-13.754,3.133C642.847,2085.463,637.726,2079.771,637.726,2073.267Zm-25.572,61.907c4.582-4.595,12.215-4.987,17.567-1.688,4.383,2.7,6.415,7.152,7.516,11.97,1.415,6.193,1.621,12.42,3.5,18.384-5.948-1.89-12.162-2.1-18.334-3.513-4.808-1.1-9.248-3.147-11.937-7.538-3.287-5.359-2.9-13.02,1.683-17.614Zm-61.734,25.643c6.474,0,12.152,5.132,13.613,11.263,1.2,5.01-.5,9.6-3.125,13.792-3.366,5.378-7.615,9.927-10.487,15.488-2.874-5.553-7.119-10.109-10.487-15.488-2.622-4.2-4.322-8.782-3.128-13.792,1.466-6.128,7.138-11.263,13.617-11.263Zm-61.73-25.643c4.582,4.594,4.969,12.247,1.683,17.616-2.689,4.395-7.132,6.432-11.94,7.538-6.176,1.419-12.386,1.624-18.334,3.513,1.892-5.965,2.092-12.195,3.5-18.384,1.1-4.821,3.142-9.274,7.516-11.97,5.356-3.3,12.99-2.9,17.573,1.688Zm-26.684-98.631q.11-1.881.2-3.764a18.974,18.974,0,0,0,5.9,6.293,18.9,18.9,0,0,0-8.61.269q1.262-1.393,2.512-2.791ZM513.8,1984.6c.935-.841,1.866-1.678,2.789-2.524a19.012,19.012,0,0,0-.268,8.634,18.965,18.965,0,0,0-6.275-5.915q1.876-.088,3.753-.2Zm73.245,0q1.876.1,3.753.192a18.955,18.955,0,0,0-6.275,5.915,19.01,19.01,0,0,0-.264-8.634c.924.849,1.857,1.688,2.789,2.526Zm51.795,51.939q1.25,1.408,2.517,2.8a18.9,18.9,0,0,0-8.61-.269,18.9,18.9,0,0,0,5.9-6.293c.061,1.254.122,2.51.2,3.764Zm0,73.45q-.109,1.881-.2,3.764a18.884,18.884,0,0,0-5.9-6.292,18.85,18.85,0,0,0,8.61-.265q-1.261,1.389-2.514,2.8Zm-51.795,51.939q-1.4,1.254-2.789,2.524a19.01,19.01,0,0,0,.264-8.634,18.911,18.911,0,0,0,6.275,5.918q-1.878.086-3.751.194Zm-73.245,0q-1.88-.1-3.753-.193a18.943,18.943,0,0,0,6.275-5.918,19.006,19.006,0,0,0,.268,8.634q-1.388-1.266-2.789-2.522Zm-51.795-51.939q-1.25-1.408-2.517-2.8a18.863,18.863,0,0,0,8.61.265,18.952,18.952,0,0,0-5.9,6.292q-.084-1.884-.2-3.762Zm14.9-6.193c9.9-6.519,13-18.8,12.975-30.541.029-11.734-3.075-24.016-12.975-30.534,11.6,2.41,22.453-4.075,30.707-12.394,8.3-8.275,14.759-19.161,12.356-30.793,6.5,9.928,18.751,13.041,30.456,13.014,11.7.026,23.952-3.087,30.456-13.014-2.4,11.632,4.06,22.517,12.356,30.793,8.256,8.319,19.111,14.808,30.707,12.394-9.9,6.518-13,18.8-12.977,30.534-.029,11.737,3.075,24.019,12.977,30.541-11.6-2.41-22.453,4.072-30.707,12.391-8.3,8.28-14.759,19.165-12.356,30.793-6.5-9.928-18.748-13.041-30.456-13.014-11.7-.03-23.949,3.083-30.456,13.014,2.4-11.631-4.06-22.517-12.356-30.793-8.254-8.317-19.112-14.8-30.709-12.385Zm32.67-30.541a63.783,63.783,0,0,1-2.789,18.126,60,60,0,0,1,25.562,25.641,59.772,59.772,0,0,1,36.15,0,59.944,59.944,0,0,1,25.561-25.633,60.192,60.192,0,0,1,0-36.251A60,60,0,0,1,568.5,2029.51a59.776,59.776,0,0,1-36.15,0,60.045,60.045,0,0,1-25.562,25.633,63.773,63.773,0,0,1,2.789,18.121Zm20.45,0a28.668,28.668,0,0,1-1,8.889,40.116,40.116,0,0,1,12.525,12.561,39.829,39.829,0,0,1,17.72,0,40.115,40.115,0,0,1,12.525-12.561,40.162,40.162,0,0,1,0-17.769,40.128,40.128,0,0,1-12.525-12.56,39.958,39.958,0,0,1-17.72,0,40.125,40.125,0,0,1-12.52,12.558,28.788,28.788,0,0,1,1,8.889Zm-17.8,15.871a65.264,65.264,0,0,0,0-31.727,65.031,65.031,0,0,0,22.374-22.437,64.721,64.721,0,0,0,31.639,0,65.056,65.056,0,0,0,22.371,22.437,65.37,65.37,0,0,0,0,31.728,65.083,65.083,0,0,0-22.371,22.433,64.855,64.855,0,0,0-31.638,0,65.049,65.049,0,0,0-22.374-22.433Zm21.957-9.123a50.45,50.45,0,0,0,0-13.491,50.156,50.156,0,0,0,9.512-9.539,50,50,0,0,0,13.447,0,50.143,50.143,0,0,0,9.512,9.539,50.447,50.447,0,0,0,0,13.491,43.767,43.767,0,0,0-5.08,4.447,44.367,44.367,0,0,0-4.437,5.094,49.959,49.959,0,0,0-13.447,0,50.258,50.258,0,0,0-9.507-9.529Zm11.629-6.748c0,.643,0,1.279-.007,1.919l1.36,1.346q.68.676,1.343,1.359c.635,0,1.273-.006,1.911-.006s1.276,0,1.914.006c.446-.454.9-.9,1.343-1.359s.9-.9,1.356-1.346c0-.639-.007-1.276-.007-1.919s0-1.279.007-1.917c-.453-.448-.9-.9-1.356-1.347s-.9-.909-1.343-1.363c-.638.007-1.276.007-1.914.007s-1.276,0-1.911-.007L547.167,2070q-.671.681-1.36,1.347c.007.641.007,1.281.007,1.921Z" transform="translate(-406.335 -1928.789)" fill="rgba(94,178,110,0.37)"/>
    </g>
  </g>
</svg>
