<svg id="money_2_" data-name="money (2)" xmlns="http://www.w3.org/2000/svg" width="31.788" height="31.788" viewBox="0 0 31.788 31.788">
  <g id="Сгруппировать_2425" data-name="Сгруппировать 2425" transform="translate(0 18.75)">
    <g id="Сгруппировать_2424" data-name="Сгруппировать 2424">
      <path id="Контур_7757" data-name="Контур 7757" d="M2.856,302H.931a.931.931,0,0,0-.931.931v11.175a.931.931,0,0,0,.931.931H2.856a2.8,2.8,0,0,0,2.794-2.794v-7.45A2.8,2.8,0,0,0,2.856,302Z" transform="translate(0 -302)" fill="#0078d4"/>
    </g>
  </g>
  <g id="Сгруппировать_2427" data-name="Сгруппировать 2427" transform="translate(11.3)">
    <g id="Сгруппировать_2426" data-name="Сгруппировать 2426">
      <path id="Контур_7758" data-name="Контур 7758" d="M192.244,0a10.229,10.229,0,0,0-7.916,16.726,8.311,8.311,0,0,1,3.2,1.751.733.733,0,0,0,.466.149h3.315a3.632,3.632,0,0,1,3.073,1.639A10.246,10.246,0,0,0,192.244,0Zm.95,14.733h-.019v1.1a.931.931,0,0,1-1.863,0v-1.1a3.7,3.7,0,0,1-1.695-1.211.925.925,0,1,1,1.415-1.192c.5.6,1.062.82,1.527.652a.931.931,0,0,0-.317-1.807,2.79,2.79,0,0,1-1.08-5.364c.037-.019.093-.019.149-.037V4.656a.931.931,0,0,1,1.863,0V5.774a3.663,3.663,0,0,1,1.378.82.935.935,0,1,1-1.3,1.341,1.26,1.26,0,0,0-1.36-.41.929.929,0,0,0,.354,1.788,2.793,2.793,0,0,1,.95,5.42Z" transform="translate(-182)" fill="#0078d4"/>
    </g>
  </g>
  <g id="Сгруппировать_2429" data-name="Сгруппировать 2429" transform="translate(7.512 18.393)">
    <g id="Сгруппировать_2428" data-name="Сгруппировать 2428">
      <path id="Контур_7759" data-name="Контур 7759" d="M145,298.41a1.706,1.706,0,0,0-.428-.466,1.845,1.845,0,0,0-2.514.186l-4.228,4.88-.13.149a2.748,2.748,0,0,1-2.049.894h-7.289a.931.931,0,1,1,0-1.863H134.1a1.868,1.868,0,0,0,1.863-1.863v-.019a1.864,1.864,0,0,0-1.863-1.844h-3.433a2.564,2.564,0,0,1-1.639-.615,6.527,6.527,0,0,0-8.028-.428v11.455a21.5,21.5,0,0,0,5.662.764h8.369a6.528,6.528,0,0,0,5.215-2.608l4.47-5.96A2.467,2.467,0,0,0,145,298.41Z" transform="translate(-121 -296.246)" fill="#0078d4"/>
    </g>
  </g>
</svg>
