<svg xmlns="http://www.w3.org/2000/svg" width="32.503" height="32.502" viewBox="0 0 32.503 32.502">
  <g id="money_1_" data-name="money (1)" transform="translate(-0.001 -0.006)">
    <g id="Сгруппировать_2417" data-name="Сгруппировать 2417" transform="translate(0.001 15.098)">
      <g id="Сгруппировать_2416" data-name="Сгруппировать 2416" transform="translate(0)">
        <path id="Контур_7753" data-name="Контур 7753" d="M.444,238.951a.677.677,0,0,0-.4.867l.425,1.17L3.7,237.75Z" transform="translate(-0.001 -237.75)" fill="#0078d4"/>
      </g>
    </g>
    <g id="Сгруппировать_2419" data-name="Сгруппировать 2419" transform="translate(3.508 26.7)">
      <g id="Сгруппировать_2418" data-name="Сгруппировать 2418">
        <path id="Контур_7754" data-name="Контур 7754" d="M55.257,420.513l1.95,5.363a.671.671,0,0,0,.351.382.681.681,0,0,0,.286.064.663.663,0,0,0,.234-.042l2.152-.794Z" transform="translate(-55.257 -420.513)" fill="#0078d4"/>
      </g>
    </g>
    <g id="Сгруппировать_2421" data-name="Сгруппировать 2421" transform="translate(18.078 15.985)">
      <g id="Сгруппировать_2420" data-name="Сгруппировать 2420">
        <path id="Контур_7755" data-name="Контур 7755" d="M299.166,257.86l-2.232-6.136-5.356,5.356,2.654-.978a.677.677,0,1,1,.469,1.27l-3.372,1.243a.676.676,0,0,1-.869-.4s0-.008,0-.012l-5.676,5.676,13.981-5.151A.675.675,0,0,0,299.166,257.86Z" transform="translate(-284.783 -251.724)" fill="#0078d4"/>
      </g>
    </g>
    <g id="Сгруппировать_2423" data-name="Сгруппировать 2423" transform="translate(0.002 0.006)">
      <g id="Сгруппировать_2422" data-name="Сгруппировать 2422" transform="translate(0 0)">
        <path id="Контур_7756" data-name="Контур 7756" d="M32.322,11.038,21.488.2a.678.678,0,0,0-.957,0L.217,20.518a.678.678,0,0,0,0,.957L11.051,32.309a.67.67,0,0,0,.478.2.68.68,0,0,0,.479-.2L32.322,12A.679.679,0,0,0,32.322,11.038ZM7.946,18.768,5.237,21.476a.678.678,0,0,1-.959-.957L6.987,17.81a.678.678,0,0,1,.959.958Zm11.694.86a2.556,2.556,0,0,1-1.855.71,5.6,5.6,0,0,1-3.766-1.8,6.2,6.2,0,0,1-1.691-2.882,2.829,2.829,0,0,1,.6-2.74,2.821,2.821,0,0,1,2.74-.6,6.193,6.193,0,0,1,2.882,1.691C20.432,15.886,20.911,18.356,19.64,19.628ZM28.259,12l-2.708,2.708a.678.678,0,0,1-.959-.957L27.3,11.039a.678.678,0,0,1,.959.957Z" transform="translate(-0.019 -0.006)" fill="#0078d4"/>
      </g>
    </g>
  </g>
</svg>
