<svg xmlns="http://www.w3.org/2000/svg" xmlns:xlink="http://www.w3.org/1999/xlink" width="54.517" height="54.517" viewBox="0 0 54.517 54.517">
  <defs>
    <filter id="Ellipse_130" x="0" y="0" width="54.517" height="54.517" filterUnits="userSpaceOnUse">
      <feOffset dy="3" input="SourceAlpha"/>
      <feGaussianBlur stdDeviation="3" result="blur"/>
      <feFlood flood-opacity="0.161"/>
      <feComposite operator="in" in2="blur"/>
      <feComposite in="SourceGraphic"/>
    </filter>
  </defs>
  <g id="navbatda" transform="translate(-575.161 -148.608)">
    <g transform="matrix(1, 0, 0, 1, 575.16, 148.61)" filter="url(#Ellipse_130)">
      <g id="Ellipse_130-2" data-name="Ellipse 130" transform="translate(9 6)" fill="#fff" stroke="#628ce8" stroke-width="2">
        <ellipse cx="18.258" cy="18.258" rx="18.258" ry="18.258" stroke="none"/>
        <ellipse cx="18.258" cy="18.258" rx="17.258" ry="17.258" fill="none"/>
      </g>
    </g>
    <g id="clock_1_" data-name="clock (1)" transform="translate(593.828 164.274)">
      <g id="Group_1861" data-name="Group 1861" transform="translate(0 0)">
        <g id="Group_1860" data-name="Group 1860">
          <path id="Path_1278" data-name="Path 1278" d="M15.259,2.618A8.939,8.939,0,0,0,2.618,15.259,8.939,8.939,0,0,0,15.259,2.618Zm-6.321,13.5A7.192,7.192,0,0,1,1.754,8.939c0-.006,0-.013,0-.019s0,0,0,0,0-.005,0-.008A7.192,7.192,0,0,1,8.841,1.756h.1a7.184,7.184,0,1,1,0,14.368Z" transform="translate(0 0)" fill="#5d86e2"/>
        </g>
      </g>
      <g id="Group_1863" data-name="Group 1863" transform="translate(2.833 2.829)">
        <g id="Group_1862" data-name="Group 1862">
          <path id="Path_1279" data-name="Path 1279" d="M92.7,87.57a.529.529,0,0,1,0-1.058h.638A6.137,6.137,0,0,0,87.7,81.029v.555a.529.529,0,0,1-1.058,0v-.542a6.137,6.137,0,0,0-5.5,5.544h.571a.529.529,0,0,1,0,1.058h-.575a6.136,6.136,0,0,0,5.576,5.6v-.67a.529.529,0,1,1,1.058,0v.67a6.136,6.136,0,0,0,5.582-5.672Zm-3.316-1.825-1.767,1.767a.529.529,0,0,1-.748,0L83.8,84.436a.529.529,0,0,1,.748-.748l2.7,2.7L88.641,85a.529.529,0,1,1,.748.748Z" transform="translate(-81.142 -81.029)" fill="#5d86e2"/>
        </g>
      </g>
    </g>
  </g>
</svg>
