<svg xmlns="http://www.w3.org/2000/svg" width="31.783" height="31.784" viewBox="0 0 31.783 31.784">
  <g id="no-crowd" transform="translate(0 0)">
    <path id="Контур_7808" data-name="Контур 7808" d="M39.98,220.823a3.923,3.923,0,1,0-3.923,3.923A3.928,3.928,0,0,0,39.98,220.823Z" transform="translate(-30.139 -203.436)" fill="#0078d4"/>
    <path id="Контур_7809" data-name="Контур 7809" d="M361.313,220.823a3.923,3.923,0,1,0-3.923,3.923A3.928,3.928,0,0,0,361.313,220.823Z" transform="translate(-331.525 -203.436)" fill="#0078d4"/>
    <path id="Контур_7810" data-name="Контур 7810" d="M125.2,165.15a5.812,5.812,0,0,1,3.34-2.616,3.92,3.92,0,0,0-6.68,0A5.812,5.812,0,0,1,125.2,165.15Z" transform="translate(-114.3 -150.693)" fill="#0078d4"/>
    <path id="Контур_7811" data-name="Контур 7811" d="M282.531,162.534a5.812,5.812,0,0,1,3.34,2.616,5.812,5.812,0,0,1,3.34-2.616,3.92,3.92,0,0,0-6.68,0Z" transform="translate(-264.992 -150.693)" fill="#0078d4"/>
    <path id="Контур_7812" data-name="Контур 7812" d="M200.647,220.823a3.923,3.923,0,1,0-3.923,3.923A3.928,3.928,0,0,0,200.647,220.823Z" transform="translate(-180.832 -203.436)" fill="#0078d4"/>
    <path id="Контур_7813" data-name="Контур 7813" d="M0,349.218v3.623a.931.931,0,0,0,.931.931h7.34a2.78,2.78,0,0,1-.16-.931v-3.623a7.739,7.739,0,0,1,1.515-4.608A5.915,5.915,0,0,0,0,349.218Z" transform="translate(0 -321.989)" fill="#0078d4"/>
    <path id="Контур_7814" data-name="Контур 7814" d="M360.63,343.3a5.889,5.889,0,0,0-3.709,1.31,7.739,7.739,0,0,1,1.515,4.608v3.623a2.781,2.781,0,0,1-.16.931h7.34a.931.931,0,0,0,.931-.931v-3.623A5.925,5.925,0,0,0,360.63,343.3Z" transform="translate(-334.764 -321.989)" fill="#0078d4"/>
    <path id="Контур_7815" data-name="Контур 7815" d="M166.585,343.3a5.925,5.925,0,0,0-5.918,5.918v3.623a.931.931,0,0,0,.931.931h9.974a.931.931,0,0,0,.931-.931v-3.623a5.925,5.925,0,0,0-5.918-5.918Z" transform="translate(-150.693 -321.989)" fill="#0078d4"/>
    <path id="Контур_7816" data-name="Контур 7816" d="M193.072,7.573a.931.931,0,0,0,1.317,0l2.334-2.334,2.334,2.334a.931.931,0,0,0,1.317-1.317L198.04,3.923l2.334-2.334A.931.931,0,0,0,199.057.272l-2.334,2.334L194.389.272a.931.931,0,1,0-1.317,1.317l2.334,2.334-2.334,2.334A.931.931,0,0,0,193.072,7.573Z" transform="translate(-180.831)" fill="#0078d4"/>
  </g>
</svg>
