<svg xmlns="http://www.w3.org/2000/svg" xmlns:xlink="http://www.w3.org/1999/xlink" width="32.309" height="32.309" viewBox="0 0 32.309 32.309">
  <defs>
    <clipPath id="clip-path">
      <path id="Контур_2165" data-name="Контур 2165" d="M0,0H32.309V32.309H0Z" transform="translate(171.083 519.619)" fill="#0078d4"/>
    </clipPath>
  </defs>
  <g id="Сгруппировать_2273" data-name="Сгруппировать 2273" transform="translate(-171.083 -519.619)" clip-path="url(#clip-path)">
    <path id="Контур_2163" data-name="Контур 2163" d="M198.853,532.55a8.381,8.381,0,0,0-1.984-.835,8.553,8.553,0,0,0,.268-2.14,9.549,9.549,0,0,0-8.8-9.285l-.006.022a7.143,7.143,0,0,1,6.05,7.063,6.984,6.984,0,0,1-.964,3.571,6.906,6.906,0,0,1-1.392,1.726,7.129,7.129,0,0,1-9.583,0,6.9,6.9,0,0,1-1.392-1.726,6.984,6.984,0,0,1-.964-3.572,7.143,7.143,0,0,1,6.05-7.063v-.022a9.549,9.549,0,0,0-8.8,9.285,8.555,8.555,0,0,0,.268,2.14,8.2,8.2,0,0,0-1.977.836,9.563,9.563,0,0,0-3.543,12.489l.01-.005a7.161,7.161,0,0,1,4.753-9.733,7.253,7.253,0,0,1,4.038.123,7.122,7.122,0,0,1,3.966,3.214h.005v.01a7.065,7.065,0,0,1,.812,4.963,7.24,7.24,0,0,1-.546,1.654q-.1.214-.211.424a7.152,7.152,0,0,1-11.654,1.214l-.022.023a9.541,9.541,0,0,0,12.283,2.763,8.484,8.484,0,0,0,1.716-1.3,8.648,8.648,0,0,0,1.716,1.3,9.538,9.538,0,0,0,12.289-2.774l-.023-.017a7.152,7.152,0,0,1-11.6-8.25v-.01h.005a7.145,7.145,0,0,1,12.756,6.384l.018.005a9.563,9.563,0,0,0-3.543-12.478Z" transform="translate(0 0.189)" fill="#0078d4"/>
    <path id="Контур_2164" data-name="Контур 2164" d="M188.256,541.469a6,6,0,0,0,.484,1.548l.179.346a1.8,1.8,0,0,0,.105.172,8.782,8.782,0,0,0,5.331-9.124q-.081-.007-.161-.006c-.188,0-.34.011-.5.023a5.85,5.85,0,0,0-1.52.318,6.589,6.589,0,0,1-3.923,6.724Zm-7.86-12.875a3.469,3.469,0,0,0,.263.413,5.861,5.861,0,0,0,.914,1.053c.033.027.06.055.095.083a6.574,6.574,0,0,1,7.9,0,5.708,5.708,0,0,0,1-1.12,4.272,4.272,0,0,0,.256-.4c.038-.072.083-.138.117-.211a8.8,8.8,0,0,0-10.651,0l.1.178Zm-1.47,6.106a5.886,5.886,0,0,0-1.371-.273c-.167-.012-.311-.023-.473-.023h-.062a1.157,1.157,0,0,0-.133.006,8.778,8.778,0,0,0,5.336,9.124c.04-.055.067-.112.1-.167.056-.1.123-.234.185-.368a5.983,5.983,0,0,0,.456-1.381c.012-.05.017-.1.028-.151a6.587,6.587,0,0,1-3.966-6.043,5.379,5.379,0,0,1,.038-.674l-.138-.05Z" transform="translate(1.617 1.971)" fill="#0078d4"/>
  </g>
</svg>
