<svg xmlns="http://www.w3.org/2000/svg" width="16.318" height="18" viewBox="0 0 16.318 18">
  <g id="operator__saidbar" transform="translate(-29 -296.189)">
    <g id="call-center-operator" transform="translate(27.419 296.189)">
      <path id="Path_6" data-name="Path 6" d="M17.9,15.606V18H1.581V15.605a3.886,3.886,0,0,1,2.165-3.088L6.4,11.259l1.839,3.833.942-2.553a3.017,3.017,0,0,0,.563.082,3.023,3.023,0,0,0,.563-.082l.894,2.428,1.8-3.75,2.735,1.3A3.888,3.888,0,0,1,17.9,15.606ZM3.988,7.215V5.486a.828.828,0,0,1,.383-.7,5.406,5.406,0,0,1,10.741,0,.829.829,0,0,1,.383.7V7.215a.832.832,0,1,1-1.663,0V6.852c-.45,2.264-2.107,4.365-4.09,4.365s-3.64-2.1-4.09-4.365v.363a.83.83,0,0,1-.585.79,4.852,4.852,0,0,0,2.079,2.738.848.848,0,0,1,.653.069c.368.192.556.564.417.83a.676.676,0,0,1-.92.134.8.8,0,0,1-.46-.6A5.389,5.389,0,0,1,4.51,7.985.83.83,0,0,1,3.988,7.215Zm.95-2.621a.242.242,0,0,1,.073.011.264.264,0,0,1,.134.116.829.829,0,0,1,.412.39A3.887,3.887,0,0,1,9.74,1.6a3.887,3.887,0,0,1,4.183,3.515.825.825,0,0,1,.63-.445,4.87,4.87,0,0,0-9.616-.072Z" fill="#fff"/>
    </g>
  </g>
</svg>
