<svg xmlns="http://www.w3.org/2000/svg" width="22.832" height="26.568" viewBox="0 0 22.832 26.568">
  <path id="Контур_7720" data-name="Контур 7720" d="M14.984,6.888a1.806,1.806,0,0,1-1.8-1.8V0H.236a2.907,2.907,0,0,0-2.9,2.9v20.76a2.907,2.907,0,0,0,2.9,2.9H17.26a2.907,2.907,0,0,0,2.9-2.9V6.888ZM13.2,20.134H3.179a.778.778,0,1,1,0-1.557H13.2a.778.778,0,0,1,0,1.557ZM2.4,16.242a.778.778,0,0,1,.778-.778h8.946a.778.778,0,1,1,0,1.557H3.179A.778.778,0,0,1,2.4,16.242Zm11.75-2.335H3.179a.778.778,0,0,1,0-1.557H14.152a.778.778,0,0,1,0,1.557Zm0,0" transform="translate(2.668)" fill="#0078d4"/>
</svg>
