<svg xmlns="http://www.w3.org/2000/svg" width="33.001" height="28.842" viewBox="0 0 33.001 28.842">
  <g id="pawprint" transform="translate(0)">
    <path id="Контур_7738" data-name="Контур 7738" d="M82.373,185.649a8.035,8.035,0,0,0-13.531,0l-3.578,5.582a5.086,5.086,0,0,0,6.329,7.4l.067-.03a10,10,0,0,1,7.961.03,5.058,5.058,0,0,0,2.041.432,5.123,5.123,0,0,0,1.139-.129,5.087,5.087,0,0,0,3.15-7.7Zm0,0" transform="translate(-60.305 -170.222)" fill="#0078d4"/>
    <path id="Контур_7739" data-name="Контур 7739" d="M5.923,107.941A3.9,3.9,0,0,0,8.2,105.525a5.039,5.039,0,0,0-.089-3.476,5.043,5.043,0,0,0-2.264-2.638,3.9,3.9,0,0,0-3.307-.266,4.467,4.467,0,0,0-2.187,5.891,4.712,4.712,0,0,0,4.238,3.151A3.694,3.694,0,0,0,5.923,107.941Zm0,0" transform="translate(0 -92.521)" fill="#0078d4"/>
    <path id="Контур_7740" data-name="Контур 7740" d="M129.261,11.047c2.673,0,4.847-2.477,4.847-5.523S131.934,0,129.261,0s-4.847,2.478-4.847,5.524S126.588,11.047,129.261,11.047Zm0,0" transform="translate(-116.395)" fill="#0078d4"/>
    <path id="Контур_7741" data-name="Контур 7741" d="M287.114,50.061h0a3.951,3.951,0,0,0,1.248.2,5.024,5.024,0,0,0,4.574-3.6,5.417,5.417,0,0,0-.077-3.737,4.1,4.1,0,0,0-6.075-2.019,5.417,5.417,0,0,0-2.3,2.947C283.606,46.5,284.785,49.287,287.114,50.061Zm0,0" transform="translate(-265.877 -37.658)" fill="#0078d4"/>
    <path id="Контур_7742" data-name="Контур 7742" d="M383.9,171.788h0a4.75,4.75,0,0,0-5.608,7.576,3.789,3.789,0,0,0,2.276.735,4.9,4.9,0,0,0,3.871-2.05A4.468,4.468,0,0,0,383.9,171.788Zm0,0" transform="translate(-352.453 -160.029)" fill="#0078d4"/>
  </g>
</svg>
