<svg xmlns="http://www.w3.org/2000/svg" width="26.759" height="14.75" viewBox="0 0 26.759 14.75">
  <g id="people__saidbar" transform="translate(-24 -247.814)">
    <g id="group_1_" data-name="group (1)" transform="translate(24 142.479)">
      <circle id="Ellipse_1" data-name="Ellipse 1" cx="2.516" cy="2.516" r="2.516" transform="translate(19.683 106.916)" fill="#fff"/>
      <circle id="Ellipse_2" data-name="Ellipse 2" cx="2.516" cy="2.516" r="2.516" transform="translate(2.044 106.916)" fill="#fff"/>
      <path id="Path_7" data-name="Path 7" d="M340.281,251.348a4.538,4.538,0,0,0-2.971,1.1,7.844,7.844,0,0,1,1.84,3.458h5.691A4.56,4.56,0,0,0,340.281,251.348Z" transform="translate(-318.083 -137.69)" fill="#fff"/>
      <path id="Path_8" data-name="Path 8" d="M132.159,255.335a6.2,6.2,0,0,0-6.2,6.2h12.4A6.2,6.2,0,0,0,132.159,255.335Z" transform="translate(-118.78 -141.449)" fill="#fff"/>
      <path id="Path_9" data-name="Path 9" d="M4.56,251.348A4.56,4.56,0,0,0,0,255.908H5.691a7.844,7.844,0,0,1,1.84-3.458A4.539,4.539,0,0,0,4.56,251.348Z" transform="translate(0 -137.69)" fill="#fff"/>
      <circle id="Ellipse_3" data-name="Ellipse 3" cx="3.42" cy="3.42" r="3.42" transform="translate(9.959 105.335)" fill="#fff"/>
    </g>
  </g>
</svg>
