<svg xmlns="http://www.w3.org/2000/svg" width="17.847" height="17.847" viewBox="0 0 17.847 17.847">
  <g id="phone__saidbar" transform="translate(-28 -183.827)">
    <g id="settings_1_" data-name="settings (1)" transform="translate(28 183.827)">
      <path id="Path_2" data-name="Path 2" d="M271.542,5.932l.7,1.208a.523.523,0,0,0,.6.241l.555-.159a3.686,3.686,0,0,0,.929.539l.139.558a.523.523,0,0,0,.507.4h1.394a.523.523,0,0,0,.507-.4l.139-.558a3.686,3.686,0,0,0,.929-.539l.555.159a.523.523,0,0,0,.6-.241l.7-1.208a.523.523,0,0,0-.089-.637l-.414-.4a3.5,3.5,0,0,0,0-1.074l.414-.4a.523.523,0,0,0,.089-.637l-.7-1.207a.523.523,0,0,0-.6-.241l-.555.159a3.687,3.687,0,0,0-.929-.539L276.868.4a.523.523,0,0,0-.507-.4h-1.394a.523.523,0,0,0-.507.4l-.139.558a3.686,3.686,0,0,0-.929.539l-.555-.159a.523.523,0,0,0-.6.241l-.7,1.208a.523.523,0,0,0,.089.637l.414.4a3.5,3.5,0,0,0,0,1.074l-.414.4A.523.523,0,0,0,271.542,5.932Zm4.122-3.143A1.569,1.569,0,1,1,274.1,4.357a1.57,1.57,0,0,1,1.569-1.569Z" transform="translate(-262.009)" fill="#fff"/>
      <path id="Path_3" data-name="Path 3" d="M73.84,6.9a1.57,1.57,0,0,0,0-2.218L71.622,2.465a1.57,1.57,0,0,0-2.218,0l-.37.37,4.437,4.437Z" transform="translate(-66.628 -1.937)" fill="#fff"/>
      <path id="Path_4" data-name="Path 4" d="M361.536,292.382a1.57,1.57,0,0,0-2.218,0l-.37.37,4.437,4.437.37-.37a1.57,1.57,0,0,0,0-2.218Z" transform="translate(-346.436 -281.747)" fill="#fff"/>
      <path id="Path_5" data-name="Path 5" d="M11.338,57.527a.518.518,0,0,1-.628.086,14.858,14.858,0,0,1-5.127-5.127.518.518,0,0,1,.086-.628l.435-.435L1.667,46.987l-.735.735a3.155,3.155,0,0,0-.9,1.816A3.2,3.2,0,0,0,.4,51.53,28.862,28.862,0,0,0,11.666,62.8a3.2,3.2,0,0,0,1.992.37,3.156,3.156,0,0,0,1.816-.9l.735-.735-4.437-4.437Z" transform="translate(0 -45.349)" fill="#fff"/>
    </g>
  </g>
</svg>
