<svg id="plant" xmlns="http://www.w3.org/2000/svg" width="18.572" height="34.288" viewBox="0 0 18.572 34.288">
  <path id="Контур_7769" data-name="Контур 7769" d="M23.594,13.766a9.707,9.707,0,0,0-2.156-1.089,10.433,10.433,0,0,0,2.626-6.053,1.072,1.072,0,0,0-.309-.894,1.062,1.062,0,0,0-.9-.3,10.826,10.826,0,0,0-4.966,1.86A14.369,14.369,0,0,0,15.7.482a1.112,1.112,0,0,0-1.833,0,14.369,14.369,0,0,0-2.192,6.807,10.814,10.814,0,0,0-4.964-1.86,1.072,1.072,0,0,0-1.2,1.2,10.429,10.429,0,0,0,2.626,6.053,9.707,9.707,0,0,0-2.156,1.089,1.124,1.124,0,0,0-.479.92,1.069,1.069,0,0,0,.483.894A7.841,7.841,0,0,0,13.357,16.6V20.68a1.429,1.429,0,1,0,2.857,0V16.6a7.651,7.651,0,0,0,2.68.517,8.484,8.484,0,0,0,4.694-1.537,1.1,1.1,0,0,0,0-1.816Z" transform="translate(-5.5 0.001)" fill="#0078d4"/>
  <path id="Контур_7770" data-name="Контур 7770" d="M23.144,16.857A2.86,2.86,0,0,0,20.286,14H8.857a2.848,2.848,0,0,0-1.323,5.375l.933,5.36a4.277,4.277,0,0,0,4.222,3.552h3.766a4.28,4.28,0,0,0,4.223-3.552l.933-5.36a2.85,2.85,0,0,0,1.533-2.517Zm-6.689,8.572H12.689a1.427,1.427,0,0,1-1.407-1.183l-.787-4.532h8.156l-.789,4.532a1.427,1.427,0,0,1-1.407,1.183Z" transform="translate(-5.286 6.002)" fill="#0078d4"/>
</svg>
