<svg id="prison" xmlns="http://www.w3.org/2000/svg" width="21.894" height="24.265" viewBox="0 0 21.894 24.265">
  <path id="Контур_2410" data-name="Контур 2410" d="M430.232,78.992h1.422V95.769h-1.422Z" transform="translate(-411.028 -75.248)" fill="#fff"/>
  <path id="Контур_2411" data-name="Контур 2411" d="M25.008,0H46.9V2.322H25.008Z" transform="translate(-25.008)" fill="#fff"/>
  <path id="Контур_2412" data-name="Контур 2412" d="M51.768,78.992H53.19V95.769H51.768Z" transform="translate(-50.5 -75.248)" fill="#fff"/>
  <path id="Контур_2413" data-name="Контур 2413" d="M101.2,93.457a3.722,3.722,0,0,0-2.086-2.239V78.992H97.691V90.785l-.323-.092a3.678,3.678,0,0,1-1.214,1.478,3.827,3.827,0,0,1-1.525.638V91.347a2.287,2.287,0,0,0,1.566-1.561l-.16-.517a4.146,4.146,0,0,1-1.406.512V88.328a2.775,2.775,0,0,0,2.061-2.68v-1.2a2.777,2.777,0,0,0-2.061-2.679v-2.78H93.207v2.78a2.777,2.777,0,0,0-2.061,2.679V85.6a2.829,2.829,0,0,0,2.061,2.729V89.78a4.126,4.126,0,0,1-1.4-.521l-.164.528a2.287,2.287,0,0,0,1.566,1.561v1.462a3.827,3.827,0,0,1-1.525-.638,3.679,3.679,0,0,1-1.214-1.478l-.323.092V78.992H88.723V91.219a3.722,3.722,0,0,0-2.086,2.239l-.783,2.312h16.127Z" transform="translate(-82.97 -75.248)" fill="#fff"/>
  <path id="Контур_2414" data-name="Контур 2414" d="M25.008,463.008H46.9v2.322H25.008Z" transform="translate(-25.008 -441.065)" fill="#fff"/>
</svg>
