<svg id="money_3_" data-name="money (3)" xmlns="http://www.w3.org/2000/svg" width="34.551" height="34.551" viewBox="0 0 34.551 34.551">
  <path id="Контур_7765" data-name="Контур 7765" d="M10.321,20.276,8.161,18.116a1.079,1.079,0,0,0-1.843.763v1.08h-.36a1.8,1.8,0,0,1-1.8-1.8V17.08A1.08,1.08,0,1,0,2,17.08v1.08a3.962,3.962,0,0,0,3.959,3.959h.36V23.2a1.079,1.079,0,0,0,1.843.763L10.321,21.8a1.078,1.078,0,0,0,0-1.526Z" transform="translate(0.879 7.034)" fill="#0078d4"/>
  <path id="Контур_7766" data-name="Контур 7766" d="M20.679,4.409h-.36V3.329a1.079,1.079,0,0,0-1.843-.763L16.317,4.726a1.08,1.08,0,0,0,0,1.527l2.159,2.159a1.077,1.077,0,0,0,.763.317,1.079,1.079,0,0,0,1.08-1.081V6.568h.36a1.8,1.8,0,0,1,1.8,1.8v1.08a1.08,1.08,0,1,0,2.159,0V8.368a3.962,3.962,0,0,0-3.959-3.959Z" transform="translate(7.034 0.989)" fill="#0078d4"/>
  <path id="Контур_7767" data-name="Контур 7767" d="M29.233,24.9a9.782,9.782,0,0,0-2.172-1.1,10.513,10.513,0,0,0,2.646-6.1,1.081,1.081,0,0,0-.311-.9,1.07,1.07,0,0,0-.9-.3,10.909,10.909,0,0,0-5,1.874,14.479,14.479,0,0,0-2.208-6.86,1.121,1.121,0,0,0-1.847,0,14.474,14.474,0,0,0-2.208,6.86,10.865,10.865,0,0,0-5-1.874,1.08,1.08,0,0,0-1.214,1.2,10.513,10.513,0,0,0,2.646,6.1,9.782,9.782,0,0,0-2.172,1.1,1.131,1.131,0,0,0-.481.927,1.077,1.077,0,0,0,.487.9,7.9,7.9,0,0,0,7.431,1.029v.51a1.44,1.44,0,1,0,2.879,0v-.51a7.71,7.71,0,0,0,2.7.521,8.549,8.549,0,0,0,4.731-1.549,1.106,1.106,0,0,0,0-1.83Z" transform="translate(4.835 4.846)" fill="#0078d4"/>
  <path id="Контур_7768" data-name="Контур 7768" d="M9.357,0a9.357,9.357,0,1,0,9.357,9.357A9.368,9.368,0,0,0,9.357,0Zm-.18,8.278h.36a2.693,2.693,0,0,1,.9,5.233v.525a1.08,1.08,0,1,1-2.159,0v-.36h-.72a1.08,1.08,0,1,1,0-2.159H9.537a.54.54,0,1,0,0-1.08h-.36a2.693,2.693,0,0,1-.9-5.233V4.679a1.08,1.08,0,1,1,2.159,0v.36h.72a1.08,1.08,0,1,1,0,2.159H9.177a.54.54,0,1,0,0,1.08Z" fill="#0078d4"/>
</svg>
