<svg xmlns="http://www.w3.org/2000/svg" width="30.067" height="30.067" viewBox="0 0 30.067 30.067">
  <path id="server" d="M28.511,17.765H26.348V16.227a2.438,2.438,0,0,0-2.436-2.435H15.9v-2.6h2.834a.881.881,0,1,0,0-1.761H15.9V8.511h2.741a1.721,1.721,0,0,0,1.679-1.755v-5A1.72,1.72,0,0,0,18.642,0H11.353A1.72,1.72,0,0,0,9.673,1.755v5a1.721,1.721,0,0,0,1.679,1.755H14.14v.921H11.358a.881.881,0,1,0,0,1.761H14.14v2.6H6.3a2.439,2.439,0,0,0-2.436,2.435v1.538H1.556A1.557,1.557,0,0,0,0,19.321v9.191a1.558,1.558,0,0,0,1.556,1.556H7.938a1.558,1.558,0,0,0,1.556-1.556V19.321a1.558,1.558,0,0,0-1.556-1.555H5.628V16.227a.675.675,0,0,1,.675-.674H14.14v2.212H11.806a1.557,1.557,0,0,0-1.556,1.556v9.191a1.558,1.558,0,0,0,1.556,1.556h6.382a1.558,1.558,0,0,0,1.556-1.556V19.321a1.557,1.557,0,0,0-1.556-1.555H15.9V15.553h8.011a.675.675,0,0,1,.674.674v1.538H22.129a1.558,1.558,0,0,0-1.556,1.555v9.191a1.558,1.558,0,0,0,1.556,1.556h6.382a1.558,1.558,0,0,0,1.556-1.556V19.321A1.557,1.557,0,0,0,28.511,17.765Zm0,0" fill="#0078d4"/>
</svg>
