<svg id="silence" xmlns="http://www.w3.org/2000/svg" width="37" height="37" viewBox="0 0 37 37">
  <path id="Контур_2443" data-name="Контур 2443" d="M99.717,166.687l-2.061,1.234a3.5,3.5,0,0,1-3.6,0l-2.061-1.234a2.854,2.854,0,0,0-3.381.321l-.022.02-5.209,4.649h24.949l-5.231-4.669A2.853,2.853,0,0,0,99.717,166.687Z" transform="translate(-77.355 -154.261)" fill="#0078d4"/>
  <path id="Контур_2444" data-name="Контур 2444" d="M107.491,271H82.4C88.82,278.132,101,278.215,107.491,271Z" transform="translate(-76.445 -251.416)" fill="#0078d4"/>
  <path id="Контур_2445" data-name="Контур 2445" d="M3.26,99.446A2.269,2.269,0,0,1,3.6,96.435l6.1-5.446L4.68,85.97a18.492,18.492,0,0,0,26.107,26.107l-6.153-6.153c-8.254,2.7-17.1-.47-21.375-6.479Z" transform="translate(0 -79.757)" fill="#0078d4"/>
  <path id="Контур_2446" data-name="Контур 2446" d="M98.257,0A18.431,18.431,0,0,0,85.97,4.68l5.409,5.409a5.013,5.013,0,0,1,4.129.477L97.569,11.8a1.339,1.339,0,0,0,1.376,0l2.062-1.234a5.011,5.011,0,0,1,5.937.564l6.216,5.548a2.268,2.268,0,0,1,.337,3.011,17.639,17.639,0,0,1-6.909,5.61l5.489,5.489A18.492,18.492,0,0,0,98.257,0Z" transform="translate(-79.757)" fill="#0078d4"/>
</svg>
