<svg xmlns="http://www.w3.org/2000/svg" width="36.89" height="37" viewBox="0 0 36.89 37">
  <g id="siren" transform="translate(-0.6)">
    <g id="Сгруппировать_2329" data-name="Сгруппировать 2329" transform="translate(8.599 12.489)">
      <g id="Сгруппировать_2328" data-name="Сгруппировать 2328">
        <g id="Сгруппировать_2327" data-name="Сгруппировать 2327">
          <rect id="Прямоугольник_1945" data-name="Прямоугольник 1945" width="20.891" height="5.315" transform="translate(0 19.196)" fill="#0078d4"/>
          <path id="Контур_2449" data-name="Контур 2449" d="M125.671,153.636v-8.806a8.522,8.522,0,1,0-17.043.027v8.769c0,.009-.027.037-.027.037h17.107S125.671,153.645,125.671,153.636Z" transform="translate(-106.703 -136.3)" fill="#0078d4"/>
        </g>
      </g>
    </g>
    <g id="Сгруппировать_2331" data-name="Сгруппировать 2331" transform="translate(18.129)">
      <g id="Сгруппировать_2330" data-name="Сгруппировать 2330">
        <path id="Контур_2450" data-name="Контур 2450" d="M192.816,0a.919.919,0,0,0-.916.916v5.69a.916.916,0,1,0,1.833,0V.916A.919.919,0,0,0,192.816,0Z" transform="translate(-191.9)" fill="#0078d4"/>
      </g>
    </g>
    <g id="Сгруппировать_2333" data-name="Сгруппировать 2333" transform="translate(29.967 15.641)">
      <g id="Сгруппировать_2332" data-name="Сгруппировать 2332">
        <path id="Контур_2451" data-name="Контур 2451" d="M327.706,170.7h-5.69a.916.916,0,1,0,0,1.833h5.69a.919.919,0,0,0,.916-.916A.907.907,0,0,0,327.706,170.7Z" transform="translate(-321.1 -170.7)" fill="#0078d4"/>
      </g>
    </g>
    <g id="Сгруппировать_2335" data-name="Сгруппировать 2335" transform="translate(0.6 15.641)">
      <g id="Сгруппировать_2334" data-name="Сгруппировать 2334">
        <path id="Контур_2452" data-name="Контур 2452" d="M7.206,170.7H1.516a.916.916,0,1,0,0,1.833h5.69a.916.916,0,1,0,0-1.833Z" transform="translate(-0.6 -170.7)" fill="#0078d4"/>
      </g>
    </g>
    <g id="Сгруппировать_2337" data-name="Сгруппировать 2337" transform="translate(6.874 4.515)">
      <g id="Сгруппировать_2336" data-name="Сгруппировать 2336">
        <path id="Контур_2453" data-name="Контур 2453" d="M74.658,53.566l-4.023-4.023a.914.914,0,0,0-1.292,1.292l4.023,4.023a.914.914,0,1,0,1.292-1.292Z" transform="translate(-69.075 -49.275)" fill="#0078d4"/>
      </g>
    </g>
    <g id="Сгруппировать_2339" data-name="Сгруппировать 2339" transform="translate(25.374 4.51)">
      <g id="Сгруппировать_2338" data-name="Сгруппировать 2338">
        <path id="Контур_2454" data-name="Контур 2454" d="M276.567,49.5a.913.913,0,0,0-1.292-.009l-.009.009-4.023,4.023a.912.912,0,0,0,.641,1.558.946.946,0,0,0,.651-.266l4.023-4.023A.913.913,0,0,0,276.567,49.5Z" transform="translate(-270.975 -49.225)" fill="#0078d4"/>
      </g>
    </g>
  </g>
</svg>
