<svg xmlns="http://www.w3.org/2000/svg" width="37.03" height="26.207" viewBox="0 0 37.03 26.207">
  <g id="sports-car" transform="translate(0 -5.707)">
    <g id="Сгруппировать_2398" data-name="Сгруппировать 2398" transform="translate(0 5.707)">
      <path id="Контур_7743" data-name="Контур 7743" d="M36.817,13.816a.952.952,0,0,0-.735-.35h-3.6c-.889-2.346-2.048-4.644-3.365-5.512-4.556-3-16.64-3-21.2,0-1.318.869-2.472,3.17-3.366,5.512H.948A.949.949,0,0,0,.02,14.607l.534,2.587a.948.948,0,0,0,.928.756H2.55a6.4,6.4,0,0,0-1.537,4.184A6.268,6.268,0,0,0,2.993,26.84c.014.012.028.021.042.033v3.619a1.423,1.423,0,0,0,1.422,1.422H7.781A1.423,1.423,0,0,0,9.2,30.492V29.038H27.826v1.454a1.423,1.423,0,0,0,1.422,1.422h3.324a1.425,1.425,0,0,0,1.422-1.422V26.945a6.5,6.5,0,0,0,.415-9h1.139a.945.945,0,0,0,.928-.757l.535-2.586A.956.956,0,0,0,36.817,13.816ZM9.48,10.33c3.631-2.39,14.439-2.39,18.069,0,.705.463,1.613,2.333,2.444,4.624H7.037C7.867,12.665,8.774,10.795,9.48,10.33ZM5.226,22.49a2.8,2.8,0,1,1,2.8,2.8A2.8,2.8,0,0,1,5.226,22.49Zm23.816,2.8a2.8,2.8,0,1,1,2.8-2.8A2.8,2.8,0,0,1,29.043,25.288Z" transform="translate(0 -5.707)" fill="#0078d4"/>
    </g>
  </g>
</svg>
