<svg xmlns="http://www.w3.org/2000/svg" width="29.843" height="26.113" viewBox="0 0 29.843 26.113">
  <g id="store" transform="translate(0 -32)">
    <g id="Сгруппировать_2400" data-name="Сгруппировать 2400" transform="translate(0 32)">
      <g id="Сгруппировать_2399" data-name="Сгруппировать 2399" transform="translate(0 0)">
        <path id="Контур_7744" data-name="Контур 7744" d="M.028,40.168l1.688-6.756A1.864,1.864,0,0,1,3.525,32H26.316a1.868,1.868,0,0,1,1.811,1.412l1.688,6.756a.912.912,0,0,1,.028.226,4.556,4.556,0,0,1-4.43,4.663,4.353,4.353,0,0,1-3.5-1.8,4.292,4.292,0,0,1-6.994,0,4.292,4.292,0,0,1-6.994,0,4.35,4.35,0,0,1-3.5,1.8A4.556,4.556,0,0,1,0,40.393.912.912,0,0,1,.028,40.168Z" transform="translate(0 -32)" fill="#0078d4"/>
      </g>
    </g>
    <g id="Сгруппировать_2402" data-name="Сгруппировать 2402" transform="translate(1.865 45.825)">
      <g id="Сгруппировать_2401" data-name="Сгруппировать 2401">
        <path id="Контур_7745" data-name="Контур 7745" d="M34.565,270.281a6.1,6.1,0,0,0,3.5-1.1,6.277,6.277,0,0,0,6.994,0,6.277,6.277,0,0,0,6.994,0,6.055,6.055,0,0,0,6.062.517v9.906a1.866,1.866,0,0,1-1.865,1.865H48.787v-7.461H41.326v7.461H33.865A1.866,1.866,0,0,1,32,279.607V269.7A6.051,6.051,0,0,0,34.565,270.281Z" transform="translate(-32 -269.184)" fill="#0078d4"/>
      </g>
    </g>
  </g>
</svg>
