<svg id="tax" xmlns="http://www.w3.org/2000/svg" width="29.657" height="32.522" viewBox="0 0 29.657 32.522">
  <path id="Контур_7843" data-name="Контур 7843" d="M127.681,147.675a8.554,8.554,0,1,0,8.554-8.554A8.554,8.554,0,0,0,127.681,147.675Zm5.213-3.341a1.138,1.138,0,1,1-.334.805A1.147,1.147,0,0,1,132.894,144.334Zm6.682,6.681a1.138,1.138,0,1,1,.334-.805A1.148,1.148,0,0,1,139.576,151.016Zm-.015-6.666a1.139,1.139,0,0,1,0,1.61L134.52,151a1.139,1.139,0,1,1-1.611-1.61l5.041-5.041A1.139,1.139,0,0,1,139.561,144.349Z" transform="translate(-115.132 -123.887)" fill="#0078d4"/>
  <path id="Контур_7844" data-name="Контур 7844" d="M23.356,23.788A10.844,10.844,0,0,1,34.188,12.957q.3,0,.59.016V1.139A1.139,1.139,0,0,0,33.639,0H14.224a1.139,1.139,0,0,0-1.139,1.139V31.384a1.139,1.139,0,0,0,1.139,1.139H27.789A10.823,10.823,0,0,1,23.356,23.788ZM19.525,6.049H27.59a1.139,1.139,0,0,1,0,2.277H19.525a1.139,1.139,0,1,1,0-2.277Zm0,6.049H27.59a1.139,1.139,0,0,1,0,2.277H19.525a1.139,1.139,0,1,1,0-2.277Zm2.016,8.326H19.525a1.139,1.139,0,1,1,0-2.277h2.016a1.139,1.139,0,1,1,0,2.277Z" transform="translate(-13.085)" fill="#0078d4"/>
</svg>
