<svg xmlns="http://www.w3.org/2000/svg" width="32.589" height="28.763" viewBox="0 0 32.589 28.763">
  <g id="violent-criminal" transform="translate(0 -6.927)">
    <g id="Сгруппировать_2394" data-name="Сгруппировать 2394" transform="translate(0 6.927)">
      <circle id="Эллипс_202" data-name="Эллипс 202" cx="2.397" cy="2.397" r="2.397" transform="translate(14.755 20.406)" fill="#0078d4"/>
      <path id="Контур_7721" data-name="Контур 7721" d="M13.819,81.509,14.826,79.1c.012-.029.023-.061.033-.092a1.009,1.009,0,0,0,.031-.462,2.193,2.193,0,0,0-2.678-2.422L7.4,77.25a2.234,2.234,0,0,0-.318.1,1.1,1.1,0,0,0-1.124.7L4.771,81.122,1.516,80.87a.722.722,0,0,0-.2,1.428l3.967.812a.9.9,0,0,0,.957-.438l.27,1.083-5.72-.543a.721.721,0,0,0-.178,1.431l7,1.079a.907.907,0,0,0,1.033-1.047l-.01-.063-.509-3.036A2.218,2.218,0,0,0,8.4,81.53l3.832-.9-.224.722-.026.083a.792.792,0,0,0,.2.793l2.785,2.795a.666.666,0,0,0,.99-.89Z" transform="translate(0 -56.969)" fill="#0078d4"/>
      <circle id="Эллипс_203" data-name="Эллипс 203" cx="2.758" cy="2.758" r="2.758" transform="translate(21.645 0)" fill="#0078d4"/>
      <path id="Контур_7722" data-name="Контур 7722" d="M74.942,33.553l-.029-.111-.048-.168-.092-.3-.186-.585-.38-1.152-.776-2.292a.873.873,0,0,0-.431-.5l-.091-.046-3.022-1.536c-.033-.017-.069-.033-.1-.047a1.161,1.161,0,0,0-.4-.079,2.508,2.508,0,0,0-2.055.08,1.16,1.16,0,0,0-.576.275l-2.526,2.235L59.58,30.645a.766.766,0,0,0,.351,1.49l5.012-.942a.809.809,0,0,0,.32-.138L65.338,31l.742-.539.549,4.032-3.836-.136-.091,0a.98.98,0,0,0-.825.409l-3.157,4.41a.83.83,0,0,0,1.3,1.024l3.135-3.654,4.759.514-.9,1.8-.038.076a1,1,0,0,0,.009.9l3.184,6.171a.83.83,0,0,0,1.5-.706l0-.005-2.491-5.84,2.272-3.822c.015-.025.031-.054.044-.081a1.267,1.267,0,0,0,.131-.631,2.511,2.511,0,0,0,.042-.9l-.57-4.186.659.257.8,1.778.484,1.1.234.544.11.265.047.117.011.028.006.014,0,.007,0-.017a.327.327,0,0,1,0-.14.766.766,0,1,0,1.53.049A1.35,1.35,0,0,0,74.942,33.553Z" transform="translate(-42.388 -21.133)" fill="#0078d4"/>
      <path id="Контур_7723" data-name="Контур 7723" d="M42.241,62.4l.006-.178-1.835-.051.871-.842-.821-.7,1.224-.312L41.6,59.156l.992,1.33.631-1.468.337,1.529,1.248-.352-.368,1.384.172.046.449-1.685-1.367.385-.415-1.884-.728,1.693-1.171-1.571.119,1.616-1.411.359.932.8-1.033,1Z" transform="translate(-28.941 -44.212)" fill="#0078d4"/>
      <path id="Контур_7724" data-name="Контур 7724" d="M70.824,96.7l-.99-.469.89.639Z" transform="translate(-50.544 -71.56)" fill="#0078d4"/>
      <path id="Контур_7725" data-name="Контур 7725" d="M67.605,97.65l.112-.687-.3.628Z" transform="translate(-48.795 -72.093)" fill="#0078d4"/>
      <path id="Контур_7726" data-name="Контур 7726" d="M67.445,103.767a1.025,1.025,0,0,0-.5.007,4.294,4.294,0,0,0-1,.006l.085-.033-.085.033a.828.828,0,0,0-.605.42c.134,0,.224.134.357.089-.133.089-.357.045-.491.134-.178.089-.268.312-.045.4a1.984,1.984,0,0,0,2.277-.491c-.045,0-.045-.045-.09-.045.134,0,.223-.134.312-.223C67.756,103.887,67.533,103.843,67.445,103.767Z" transform="translate(-47.071 -76.998)" fill="#0078d4"/>
      <path id="Контур_7727" data-name="Контур 7727" d="M63.525,102.445c-.038,0-.064-.035-.1-.02.036-.027.1-.017.136-.045s.07-.091.006-.113a.558.558,0,0,0-.632.17c.012,0,.013.012.026.011-.038,0-.061.04-.085.067-.022.052.041.061.066.081a.287.287,0,0,0,.14-.009C63.231,102.585,63.446,102.612,63.525,102.445Z" transform="translate(-45.505 -75.91)" fill="#0078d4"/>
    </g>
  </g>
</svg>
