<svg xmlns="http://www.w3.org/2000/svg" width="36" height="36" viewBox="0 0 36 36">
  <path id="virus" d="M33.75,15.75A2.25,2.25,0,0,0,31.8,16.875H29.759a11.754,11.754,0,0,0-2.653-6.39l1.449-1.449a2.25,2.25,0,1,0-1.591-1.591L25.515,8.894a11.754,11.754,0,0,0-6.39-2.653V4.2a2.25,2.25,0,1,0-2.25,0V6.241a11.754,11.754,0,0,0-6.39,2.653L9.035,7.444A2.25,2.25,0,1,0,7.444,9.035l1.449,1.449a11.754,11.754,0,0,0-2.653,6.39H4.2a2.25,2.25,0,1,0,0,2.25H6.241a11.754,11.754,0,0,0,2.653,6.39L7.444,26.965a2.25,2.25,0,1,0,1.591,1.591l1.449-1.449a11.754,11.754,0,0,0,6.39,2.653V31.8a2.25,2.25,0,1,0,2.25,0V29.759a11.754,11.754,0,0,0,6.39-2.653l1.449,1.449a2.25,2.25,0,1,0,1.591-1.591l-1.449-1.449a11.754,11.754,0,0,0,2.653-6.39H31.8A2.25,2.25,0,1,0,33.75,15.75ZM14.273,17.438a1.969,1.969,0,1,1,1.969-1.969A1.971,1.971,0,0,1,14.273,17.438Zm4.852,6.75a2.25,2.25,0,1,1,2.25-2.25A2.252,2.252,0,0,1,19.125,24.187Zm3.938-7.875a1.688,1.688,0,1,1,1.688-1.687A1.69,1.69,0,0,1,23.063,16.312Z" fill="#0078d4"/>
</svg>
