<svg xmlns="http://www.w3.org/2000/svg" width="23.998" height="24" viewBox="0 0 23.998 24">
  <g id="warning_1_" data-name="warning (1)" transform="translate(-0.002)">
    <path id="Контур_2423" data-name="Контур 2423" d="M23.744,9.406,18.464.827a1.709,1.709,0,0,0-2.92-.012L10.272,9.38a1.632,1.632,0,0,0-.272.915A1.711,1.711,0,0,0,11.712,12H22.288A1.711,1.711,0,0,0,24,10.295a1.6,1.6,0,0,0-.256-.889ZM17,10.5a1,1,0,1,1,1-1A1,1,0,0,1,17,10.5Zm1-4a1,1,0,0,1-2,0v-3a1,1,0,0,1,2,0Z" fill="#fff"/>
    <path id="Контур_2424" data-name="Контур 2424" d="M18.99,16.55a.5.5,0,0,0-.32-.38l-.15-.05a13.939,13.939,0,0,0-3.98-1.03c.25-.35.49-.72.71-1.09H11.71A3.713,3.713,0,0,1,8,10.3a3.581,3.581,0,0,1,.62-2.04l1.84-2.98c-.16-.34-.33-.68-.52-1.02a.523.523,0,0,0-.88,0,15.239,15.239,0,0,0-2,6.72A16.071,16.071,0,0,0,2.3,7.3a.5.5,0,0,0-.73.52,17.022,17.022,0,0,0,2.89,7.27A13.939,13.939,0,0,0,.48,16.12l-.15.05a.5.5,0,0,0-.32.38.522.522,0,0,0,.16.47,9.067,9.067,0,0,0,4.24,2.15A8.367,8.367,0,0,0,3.17,21.3a.519.519,0,0,0,.04.47.5.5,0,0,0,.41.23A7.383,7.383,0,0,0,8.5,20.7V23a1,1,0,0,0,2,0V20.7A6.97,6.97,0,0,0,15.09,22h.29a.5.5,0,0,0,.41-.23.519.519,0,0,0,.04-.47,8.367,8.367,0,0,0-1.24-2.13,9.067,9.067,0,0,0,4.24-2.15A.522.522,0,0,0,18.99,16.55Z" fill="#fff"/>
  </g>
</svg>
