<svg id="worldwide" xmlns="http://www.w3.org/2000/svg" width="30.955" height="30.955" viewBox="0 0 30.955 30.955">
  <path id="Контур_7760" data-name="Контур 7760" d="M15.477,0a15.478,15.478,0,0,0-1.561,30.877c-.245-.142-.477-.284-.709-.439a3.54,3.54,0,0,1-.9-5.069,22.771,22.771,0,0,1-1.96-8.6h7.584a17.356,17.356,0,0,1,1.122-2.58H16.767V10.318h3.405c.116.645.219,1.3.3,2a3.533,3.533,0,0,1,2.1-.684c.142,0,.284.013.413.026-.052-.451-.116-.9-.181-1.341h4.488a12.98,12.98,0,0,1,1.019,3.869H26.092a17.96,17.96,0,0,1,1.122,2.58h1.1c.387-.077.8-.155,1.212-.206a3.3,3.3,0,0,1,1.38.1c.039-.4.052-.787.052-1.187A15.49,15.49,0,0,0,15.477,0ZM3.663,10.318H8.151a32.743,32.743,0,0,0-.387,3.869H2.644a12.98,12.98,0,0,1,1.019-3.869Zm0,10.318a12.98,12.98,0,0,1-1.019-3.869h5.12a32.742,32.742,0,0,0,.387,3.869ZM10.4,27.331a12.948,12.948,0,0,1-5.211-4.114H8.719A17.541,17.541,0,0,0,10.4,27.331ZM8.719,7.739H5.185A12.948,12.948,0,0,1,10.4,3.624,17.541,17.541,0,0,0,8.719,7.739Zm5.469,6.449H10.344a29.034,29.034,0,0,1,.439-3.869h3.405Zm0-6.449H11.44a9.518,9.518,0,0,1,2.747-4.656Zm2.58,0V3.083a9.518,9.518,0,0,1,2.747,4.656Zm5.469,0a17.541,17.541,0,0,0-1.677-4.114A12.948,12.948,0,0,1,25.77,7.739Z" fill="#0078d4"/>
  <path id="Контур_7761" data-name="Контур 7761" d="M27.335,23.454a8.764,8.764,0,0,0-1.946-.983,9.419,9.419,0,0,0,2.371-5.465.968.968,0,0,0-.279-.807.958.958,0,0,0-.809-.272,9.774,9.774,0,0,0-4.483,1.679,12.972,12.972,0,0,0-1.979-6.146,1,1,0,0,0-1.655,0,12.968,12.968,0,0,0-1.979,6.146,9.734,9.734,0,0,0-4.483-1.679.967.967,0,0,0-1.087,1.08,9.419,9.419,0,0,0,2.371,5.465,8.764,8.764,0,0,0-1.946.983,1.013,1.013,0,0,0-.431.831.965.965,0,0,0,.436.807,7.079,7.079,0,0,0,6.658.922v.457a1.29,1.29,0,0,0,2.58,0v-.457a6.908,6.908,0,0,0,2.42.467,7.659,7.659,0,0,0,4.238-1.388.991.991,0,0,0,0-1.639Z" transform="translate(3.187 3.195)" fill="#0078d4"/>
</svg>
