<svg id="writing" xmlns="http://www.w3.org/2000/svg" width="26.979" height="26.98" viewBox="0 0 26.979 26.98">
  <path id="Контур_7785" data-name="Контур 7785" d="M415.213,153.477a1.583,1.583,0,0,0-2.116-.108c-.09.073-.02.009-1.387,1.375l3.547,3.547,1.275-1.259a1.583,1.583,0,0,0,0-2.236Z" transform="translate(-390.016 -144.951)" fill="#0078d4"/>
  <path id="Контур_7786" data-name="Контур 7786" d="M234.822,213.265l-2.087,4.471a.79.79,0,0,0,1.051,1.051l4.471-2.087c.177-.083-.359.419,6.261-6.119l-3.54-3.54c-6.564,6.564-6.072,6.043-6.156,6.224Z" transform="translate(-220.402 -196.131)" fill="#0078d4"/>
  <path id="Контур_7787" data-name="Контур 7787" d="M19.193,21.54A2.365,2.365,0,0,1,18.53,22l-4.471,2.087a2.371,2.371,0,0,1-3.152-3.152l2.087-4.471a2.365,2.365,0,0,1,.472-.674l6.722-6.722v-6.7A2.374,2.374,0,0,0,17.817,0H2.377A2.374,2.374,0,0,0,.006,2.371V24.608A2.374,2.374,0,0,0,2.377,26.98h15.44a2.374,2.374,0,0,0,2.371-2.371V20.558ZM4.222,5.111h11.8a.79.79,0,0,1,0,1.581H4.222a.79.79,0,1,1,0-1.581Zm0,4.216H13.5a.79.79,0,1,1,0,1.581H4.222a.79.79,0,1,1,0-1.581Zm-.79,5.006a.79.79,0,0,1,.79-.79h6.745a.79.79,0,0,1,0,1.581H4.222A.79.79,0,0,1,3.431,14.333Z" transform="translate(-0.006 0)" fill="#0078d4"/>
</svg>
