<svg xmlns="http://www.w3.org/2000/svg" width="31.064" height="35.724" viewBox="0 0 31.064 35.724">
  <g id="zombie-attack-to-a-man" transform="translate(-6.232)">
    <g id="Сгруппировать_2396" data-name="Сгруппировать 2396" transform="translate(6.232)">
      <path id="Контур_7734" data-name="Контур 7734" d="M54.016,19.536a3.473,3.473,0,0,0,1.038,2.48,16.594,16.594,0,0,0,2.094-.295,1.831,1.831,0,0,1,1.991.892,3.481,3.481,0,0,0,.717-5.645l-.732.318.241-.694a3.481,3.481,0,0,0-5.349,2.943Z" transform="translate(-36.156 -10.051)" fill="#0078d4"/>
      <path id="Контур_7735" data-name="Контур 7735" d="M58.64,34.9a23.087,23.087,0,0,0-1.649-2.926h-.607s.216-.5.159-.575h0c-.067-.068-1.67-.276-1.67-.276l.724-.359c-.719-.3-2.015-.746-3.164-1.126a3.908,3.908,0,0,1-1.608,1.768A1.8,1.8,0,0,1,49.5,33.823a21.931,21.931,0,0,1-4.387.446c-.391,0-.77-.014-1.14-.037a7.232,7.232,0,0,1-.886-1.46A1.353,1.353,0,0,0,40.7,34.04s1.464,3.181,3.061,3.318l.1,0c.733,0,1.3-.48,1.991-1.414v.794c.619.093,1.7.3,1.7.3l-1.7,1.2v1.414a3.812,3.812,0,0,0,.2,1.214c-.009.068-.02,5.258-.02,5.258.514.466.98.945.938,1.007a2.609,2.609,0,0,1-.938.048v.583L42.7,50.806a1.6,1.6,0,0,0,2.156,2.365L48.7,49.663a1.6,1.6,0,0,0,.522-1.182V46.534l-1.181-.6,1.181-.663V42.733c.063,0,.127.008.191.008a4.071,4.071,0,0,0,.468-.03l1.473,5.484a1.61,1.61,0,0,0,.26.538L53.073,50.7l.977-.1-.216.475,1.037.3-1.036.346.9,1.217a1.6,1.6,0,0,0,2.569-1.907l-2.94-3.965-.69-2.57-1.13-.172.824-.967L52.7,40.874a2.733,2.733,0,0,0,.28-1.211v-2.5l-1.266-.778,1.266-.2V35.78l-.877-.389.878-.226V32.685c.745.258,1.352.477,1.613.592A20.9,20.9,0,0,1,56.213,36.1a1.353,1.353,0,1,0,2.428-1.2Z" transform="translate(-27.716 -18.561)" fill="#0078d4"/>
      <circle id="Эллипс_205" data-name="Эллипс 205" cx="3.704" cy="3.704" r="3.704" transform="translate(2.576 2.837)" fill="#0078d4"/>
      <path id="Контур_7736" data-name="Контур 7736" d="M16.989,38.17a2.513,2.513,0,0,0,.636-1.215l1.207-5.633a1.748,1.748,0,0,1,.846-2.082,1.753,1.753,0,0,1,2.372.727l.264.5c.11.21.225.428.333.624.383.024.761.035,1.127.035a21.633,21.633,0,0,0,4.3-.436,1.438,1.438,0,0,0-.625-2.807l-.111.023L27.1,29.024l-.811-.943c-2.017.269-5.325.372-7.229-.9a3.772,3.772,0,0,0-1.642-1.533,2.96,2.96,0,0,0-.765-.274,5.48,5.48,0,0,0-.842-.077H15.8a3.141,3.141,0,0,0-3.112,2.241l-1.75,8.013a1.7,1.7,0,0,0,.229,1.6,1.784,1.784,0,0,0-.041.186l-.719,6-3.8,4.925a1.8,1.8,0,0,0,2.857,2.2l4.1-5.318a1.8,1.8,0,0,0,.363-.888l.388-3.232L15.5,43.637l-1.193,5.756a1.8,1.8,0,0,0,1.4,2.133,1.855,1.855,0,0,0,.368.038,1.8,1.8,0,0,0,1.765-1.438L19.155,43.8a1.8,1.8,0,0,0-.123-1.11Z" transform="translate(-6.232 -15.841)" fill="#0078d4"/>
      <path id="Контур_7737" data-name="Контур 7737" d="M29.61.6l.759,1.3L31.8,1.376l-.75,1.7,1.416.309-1.067.945,1.519.974-1.6.459.074.261L33.564,5.4l-1.721-1.1,1.2-1.061L31.428,2.88,32.3.9l-1.813.665L29.572,0,28.71,2.014l.25.107Z" transform="translate(-20.309)" fill="#0078d4"/>
    </g>
  </g>
</svg>
